#N canvas 83 134 1362 695 10;
#X obj 10 27 dumpOSC 5555;
#X text 8 7 Read in signals from the server side;
#X obj 10 52 OSCroute /client;
#X obj 9 160 s p1in;
#X obj 240 77 print;
#X obj 36 192 s p2in;
#X obj 63 227 s p3in;
#X obj 90 258 s p4in;
#X obj 117 290 s p5in;
#X obj 9 101 OSCroute /1 /2 /3 /4 /5 /6 /7 /8 /9 /10 /11 /12 /13 /14
/15 /16 /17 /18 /19 /20;
#X obj 96 161 s p6in;
#X obj 123 193 s p7in;
#X obj 150 228 s p8in;
#X obj 177 259 s p9in;
#X obj 204 291 s p10in;
#X obj 185 164 s p11in;
#X obj 211 196 s p12in;
#X obj 238 231 s p13in;
#X obj 265 262 s p14in;
#X obj 292 294 s p15in;
#X obj 273 164 s p16in;
#X obj 303 197 s p17in;
#X obj 327 231 s p18in;
#X obj 354 262 s p19in;
#X obj 381 294 s p20in;
#X connect 0 0 2 0;
#X connect 2 0 4 0;
#X connect 2 0 9 0;
#X connect 9 0 3 0;
#X connect 9 1 5 0;
#X connect 9 2 6 0;
#X connect 9 3 7 0;
#X connect 9 4 8 0;
#X connect 9 5 10 0;
#X connect 9 6 11 0;
#X connect 9 7 12 0;
#X connect 9 8 13 0;
#X connect 9 9 14 0;
#X connect 9 10 15 0;
#X connect 9 11 16 0;
#X connect 9 12 17 0;
#X connect 9 13 18 0;
#X connect 9 14 19 0;
#X connect 9 15 20 0;
#X connect 9 16 21 0;
#X connect 9 17 22 0;
#X connect 9 18 23 0;
#X connect 9 19 24 0;
