#N canvas -9 -9 1920 980 10;
#X obj 10 27 dumpOSC 5555;
#X text 8 7 Read in signals from the server side;
#X obj 10 52 OSCroute /client;
#X obj 9 160 s p1in;
#X obj 210 90 print;
#X obj 9 101 OSCroute /1 /2 /3 /4 /5;
#X obj 36 192 s p2in;
#X obj 64 227 s p3in;
#X obj 91 258 s p4in;
#X obj 123 290 s p5in;
#X connect 0 0 2 0;
#X connect 2 0 5 0;
#X connect 2 0 4 0;
#X connect 5 0 3 0;
#X connect 5 1 6 0;
#X connect 5 2 7 0;
#X connect 5 3 8 0;
#X connect 5 4 9 0;
