#N canvas 0 0 1354 689 10;
#X obj 8 29 inlet;
#X obj 42 29 inlet;
#X text -69 28 x coordinate;
#X text 78 29 y coordinate;
#X obj -7 85 ==;
#X obj 27 86 ==;
#X text -75 3 Filters the bang based on selected input;
#X obj -7 59 r c1x;
#X obj 27 59 r c1y;
#X obj -7 630 sel 1;
#X obj -7 658 outlet;
#X obj -7 116 &&;
#X obj 61 85 ==;
#X obj 95 86 ==;
#X obj 61 116 &&;
#X obj -7 142 ||;
#X obj 61 59 r c2x;
#X obj 95 59 r c2y;
#X obj 129 85 ==;
#X obj 163 86 ==;
#X obj 129 116 &&;
#X obj 129 59 r c3x;
#X obj 163 59 r c3y;
#X obj -7 167 ||;
#X obj 197 85 ==;
#X obj 231 86 ==;
#X obj 197 116 &&;
#X obj 197 59 r c4x;
#X obj 231 59 r c4y;
#X obj -7 193 ||;
#X obj 265 85 ==;
#X obj 299 86 ==;
#X obj 265 116 &&;
#X obj 265 59 r c5x;
#X obj 299 59 r c5y;
#X obj -7 219 ||;
#X obj -7 245 ||;
#X obj -7 270 ||;
#X obj -7 296 ||;
#X obj -7 322 ||;
#X obj 333 85 ==;
#X obj 367 86 ==;
#X obj 333 116 &&;
#X obj 401 85 ==;
#X obj 435 86 ==;
#X obj 401 116 &&;
#X obj 469 85 ==;
#X obj 503 86 ==;
#X obj 469 116 &&;
#X obj 537 85 ==;
#X obj 571 86 ==;
#X obj 537 116 &&;
#X obj 333 59 r c6x;
#X obj 367 59 r c6y;
#X obj 401 59 r c7x;
#X obj 435 59 r c7y;
#X obj 469 59 r c8x;
#X obj 503 59 r c8y;
#X obj 537 59 r c9x;
#X obj 571 59 r c9y;
#X obj -7 351 ||;
#X obj -7 376 ||;
#X obj -7 402 ||;
#X obj -7 428 ||;
#X obj -7 454 ||;
#X obj -7 479 ||;
#X obj -7 505 ||;
#X obj -7 531 ||;
#X obj 156 303 ==;
#X obj 196 304 ==;
#X obj 156 334 &&;
#X obj 156 277 r c10x;
#X obj 196 277 r c10y;
#X obj 236 303 ==;
#X obj 276 304 ==;
#X obj 236 334 &&;
#X obj 236 277 r c11x;
#X obj 276 277 r c11y;
#X obj 316 303 ==;
#X obj 356 304 ==;
#X obj 316 334 &&;
#X obj 396 303 ==;
#X obj 436 304 ==;
#X obj 396 334 &&;
#X obj 356 277 r c12y;
#X obj 316 277 r c12x;
#X obj 396 277 r c13x;
#X obj 436 277 r c13y;
#X obj 476 303 ==;
#X obj 516 304 ==;
#X obj 476 334 &&;
#X obj 556 303 ==;
#X obj 596 304 ==;
#X obj 556 334 &&;
#X obj 636 303 ==;
#X obj 676 304 ==;
#X obj 636 334 &&;
#X obj 716 303 ==;
#X obj 756 304 ==;
#X obj 716 334 &&;
#X obj 476 277 r c14x;
#X obj 516 277 r c14y;
#X obj 556 277 r c15x;
#X obj 596 277 r c15y;
#X obj 636 277 r c16x;
#X obj 676 277 r c16y;
#X obj 716 277 r c17x;
#X obj 756 277 r c17y;
#X obj -7 556 ||;
#X obj -7 582 ||;
#X obj -7 608 ||;
#X obj 796 303 ==;
#X obj 836 304 ==;
#X obj 796 334 &&;
#X obj 876 303 ==;
#X obj 916 304 ==;
#X obj 876 334 &&;
#X obj 956 303 ==;
#X obj 996 304 ==;
#X obj 956 334 &&;
#X obj 996 277 r c20y;
#X obj 956 277 r c20x;
#X obj 916 277 r c19y;
#X obj 876 277 r c19x;
#X obj 836 277 r c18y;
#X obj 796 277 r c18x;
#X connect 0 0 4 1;
#X connect 0 0 12 1;
#X connect 0 0 18 1;
#X connect 0 0 24 1;
#X connect 0 0 30 1;
#X connect 0 0 40 1;
#X connect 0 0 43 1;
#X connect 0 0 46 1;
#X connect 0 0 49 1;
#X connect 0 0 68 1;
#X connect 0 0 73 1;
#X connect 0 0 78 1;
#X connect 0 0 81 1;
#X connect 0 0 88 1;
#X connect 0 0 91 1;
#X connect 0 0 94 1;
#X connect 0 0 97 1;
#X connect 0 0 111 1;
#X connect 0 0 114 1;
#X connect 0 0 117 1;
#X connect 1 0 5 1;
#X connect 1 0 13 1;
#X connect 1 0 19 1;
#X connect 1 0 25 1;
#X connect 1 0 31 1;
#X connect 1 0 41 1;
#X connect 1 0 44 1;
#X connect 1 0 47 1;
#X connect 1 0 50 1;
#X connect 1 0 69 1;
#X connect 1 0 74 1;
#X connect 1 0 79 1;
#X connect 1 0 82 1;
#X connect 1 0 89 1;
#X connect 1 0 92 1;
#X connect 1 0 95 1;
#X connect 1 0 98 1;
#X connect 1 0 112 1;
#X connect 1 0 115 1;
#X connect 1 0 118 1;
#X connect 4 0 11 0;
#X connect 5 0 11 1;
#X connect 7 0 4 0;
#X connect 8 0 5 0;
#X connect 9 0 10 0;
#X connect 11 0 15 0;
#X connect 12 0 14 0;
#X connect 13 0 14 1;
#X connect 14 0 15 1;
#X connect 15 0 23 0;
#X connect 16 0 12 0;
#X connect 17 0 13 0;
#X connect 18 0 20 0;
#X connect 19 0 20 1;
#X connect 20 0 23 1;
#X connect 21 0 18 0;
#X connect 22 0 19 0;
#X connect 23 0 29 0;
#X connect 24 0 26 0;
#X connect 25 0 26 1;
#X connect 26 0 29 1;
#X connect 27 0 24 0;
#X connect 28 0 25 0;
#X connect 29 0 35 0;
#X connect 30 0 32 0;
#X connect 31 0 32 1;
#X connect 32 0 35 1;
#X connect 33 0 30 0;
#X connect 34 0 31 0;
#X connect 35 0 36 0;
#X connect 36 0 37 0;
#X connect 37 0 38 0;
#X connect 38 0 39 0;
#X connect 39 0 60 0;
#X connect 40 0 42 0;
#X connect 41 0 42 1;
#X connect 42 0 36 1;
#X connect 43 0 45 0;
#X connect 44 0 45 1;
#X connect 45 0 37 1;
#X connect 46 0 48 0;
#X connect 47 0 48 1;
#X connect 48 0 38 1;
#X connect 49 0 51 0;
#X connect 50 0 51 1;
#X connect 51 0 39 1;
#X connect 52 0 40 0;
#X connect 53 0 41 0;
#X connect 54 0 43 0;
#X connect 55 0 44 0;
#X connect 56 0 46 0;
#X connect 57 0 47 0;
#X connect 58 0 49 0;
#X connect 59 0 50 0;
#X connect 60 0 61 0;
#X connect 61 0 62 0;
#X connect 62 0 63 0;
#X connect 63 0 64 0;
#X connect 64 0 65 0;
#X connect 65 0 66 0;
#X connect 66 0 67 0;
#X connect 67 0 108 0;
#X connect 68 0 70 0;
#X connect 69 0 70 1;
#X connect 70 0 60 1;
#X connect 71 0 68 0;
#X connect 72 0 69 0;
#X connect 73 0 75 0;
#X connect 74 0 75 1;
#X connect 75 0 61 1;
#X connect 76 0 73 0;
#X connect 77 0 74 0;
#X connect 78 0 80 0;
#X connect 79 0 80 1;
#X connect 80 0 62 1;
#X connect 81 0 83 0;
#X connect 82 0 83 1;
#X connect 83 0 63 1;
#X connect 84 0 79 0;
#X connect 85 0 78 0;
#X connect 86 0 81 0;
#X connect 87 0 82 0;
#X connect 88 0 90 0;
#X connect 89 0 90 1;
#X connect 90 0 64 1;
#X connect 91 0 93 0;
#X connect 92 0 93 1;
#X connect 93 0 65 1;
#X connect 94 0 96 0;
#X connect 95 0 96 1;
#X connect 96 0 66 1;
#X connect 97 0 99 0;
#X connect 98 0 99 1;
#X connect 99 0 67 1;
#X connect 100 0 88 0;
#X connect 101 0 89 0;
#X connect 102 0 91 0;
#X connect 103 0 92 0;
#X connect 104 0 94 0;
#X connect 105 0 95 0;
#X connect 106 0 97 0;
#X connect 107 0 98 0;
#X connect 108 0 109 0;
#X connect 109 0 110 0;
#X connect 110 0 9 0;
#X connect 111 0 113 0;
#X connect 112 0 113 1;
#X connect 113 0 108 1;
#X connect 114 0 116 0;
#X connect 115 0 116 1;
#X connect 116 0 109 1;
#X connect 117 0 119 0;
#X connect 118 0 119 1;
#X connect 119 0 110 1;
#X connect 120 0 118 0;
#X connect 121 0 117 0;
#X connect 122 0 115 0;
#X connect 123 0 114 0;
#X connect 124 0 112 0;
#X connect 125 0 111 0;
