#N canvas 0 0 450 300 10;
#X obj 8 28 inlet;
#X obj 152 28 inlet;
#X text 47 27 x coordinate;
#X text 192 27 y coordinate;
#X obj -7 85 ==;
#X obj 137 85 ==;
#X floatatom -61 81 5 0 0 0 - - -;
#X floatatom 71 85 5 0 0 0 - - -;
#X floatatom 18 56 5 0 0 0 - - -;
#X floatatom 187 60 5 0 0 0 - - -;
#X text -75 3 Filters the bang based on selected input;
#X obj -53 52 r c1x;
#X obj 90 52 r c1y;
#X obj 17 170 sel 1;
#X obj 17 198 outlet;
#X obj 17 144 &&;
#X floatatom -50 109 5 0 0 0 - - -;
#X floatatom 97 110 5 0 0 0 - - -;
#X text 56 144 Race condition \, might be a problem later on;
#X connect 0 0 4 1;
#X connect 0 0 8 0;
#X connect 1 0 5 1;
#X connect 1 0 9 0;
#X connect 4 0 16 0;
#X connect 5 0 17 0;
#X connect 11 0 4 0;
#X connect 11 0 6 0;
#X connect 12 0 5 0;
#X connect 12 0 7 0;
#X connect 13 0 14 0;
#X connect 15 0 13 0;
#X connect 16 0 15 0;
#X connect 17 0 15 1;
