#N canvas 0 0 1354 689 10;
#X obj 8 29 inlet;
#X obj 42 29 inlet;
#X text -69 28 x coordinate;
#X text 78 29 y coordinate;
#X obj -7 85 ==;
#X obj 27 86 ==;
#X text -75 3 Filters the bang based on selected input;
#X obj -7 59 r c1x;
#X obj 27 59 r c1y;
#X obj -7 425 sel 1;
#X obj -7 453 outlet;
#X obj -7 116 &&;
#X obj 61 85 ==;
#X obj 95 86 ==;
#X obj 61 116 &&;
#X obj -7 142 ||;
#X obj 61 59 r c2x;
#X obj 95 59 r c2y;
#X obj 129 85 ==;
#X obj 163 86 ==;
#X obj 129 116 &&;
#X obj 129 59 r c3x;
#X obj 163 59 r c3y;
#X obj -7 167 ||;
#X obj 197 85 ==;
#X obj 231 86 ==;
#X obj 197 116 &&;
#X obj 197 59 r c4x;
#X obj 231 59 r c4y;
#X obj -7 193 ||;
#X obj 265 85 ==;
#X obj 299 86 ==;
#X obj 265 116 &&;
#X obj 265 59 r c5x;
#X obj 299 59 r c5y;
#X obj -7 219 ||;
#X connect 0 0 4 1;
#X connect 0 0 12 1;
#X connect 0 0 18 1;
#X connect 0 0 24 1;
#X connect 0 0 30 1;
#X connect 1 0 5 1;
#X connect 1 0 13 1;
#X connect 1 0 19 1;
#X connect 1 0 25 1;
#X connect 1 0 31 1;
#X connect 4 0 11 0;
#X connect 5 0 11 1;
#X connect 7 0 4 0;
#X connect 8 0 5 0;
#X connect 9 0 10 0;
#X connect 11 0 15 0;
#X connect 12 0 14 0;
#X connect 13 0 14 1;
#X connect 14 0 15 1;
#X connect 15 0 23 0;
#X connect 16 0 12 0;
#X connect 17 0 13 0;
#X connect 18 0 20 0;
#X connect 19 0 20 1;
#X connect 20 0 23 1;
#X connect 21 0 18 0;
#X connect 22 0 19 0;
#X connect 23 0 29 0;
#X connect 24 0 26 0;
#X connect 25 0 26 1;
#X connect 26 0 29 1;
#X connect 27 0 24 0;
#X connect 28 0 25 0;
#X connect 29 0 35 0;
#X connect 30 0 32 0;
#X connect 31 0 32 1;
#X connect 32 0 35 1;
#X connect 33 0 30 0;
#X connect 34 0 31 0;
#X connect 35 0 9 0;
