#N canvas 263 30 1354 689 10;
#X obj 82 128 moses 1;
#X floatatom 141 320 5 0 0 0 - - -;
#X obj 139 229 \$1;
#X msg 51 217 1;
#X obj 183 389 moses 9;
#X obj 151 464 \$1;
#X msg 229 463 9;
#X obj 143 44 inlet;
#X obj 158 550 outlet;
#X connect 0 0 3 0;
#X connect 0 1 2 0;
#X connect 1 0 4 0;
#X connect 1 0 5 1;
#X connect 2 0 1 0;
#X connect 3 0 1 0;
#X connect 4 0 5 0;
#X connect 4 1 6 0;
#X connect 5 0 8 0;
#X connect 6 0 8 0;
#X connect 7 0 0 0;
#X connect 7 0 2 1;
