#N canvas 263 30 1354 689 10;
#X floatatom 141 320 5 0 0 0 - - -;
#X obj 139 229 \$1;
#X obj 151 464 \$1;
#X obj 143 44 inlet;
#X obj 158 550 outlet;
#X msg 51 217 0;
#X obj 82 128 moses 0;
#X obj 183 389 moses 10;
#X msg 227 463 10;
#X connect 0 0 2 1;
#X connect 0 0 7 0;
#X connect 1 0 0 0;
#X connect 2 0 4 0;
#X connect 3 0 1 1;
#X connect 3 0 6 0;
#X connect 5 0 0 0;
#X connect 6 0 5 0;
#X connect 6 1 1 0;
#X connect 7 0 2 0;
#X connect 7 1 8 0;
#X connect 8 0 4 0;
