#N canvas 0 0 1362 689 10;
#X obj 6 2 cnv 15 500 500 empty empty Maze 20 8 1 14 -4032 -66577 0
;
#X obj 511 2 cnv 15 100 500 empty empty Control 20 8 1 14 -257985 -66577
0;
#X obj 925 2 cnv 15 300 500 empty empty Communication_Logic 20 8 1
14 -4034 -66577 0;
#X obj 618 2 cnv 15 300 500 empty empty Play_Logic 20 8 1 14 -260097
-66577 0;
#X floatatom 518 41 8 0 0 0 - - -;
#X text 573 41 BPM;
#X obj 518 57 s bpm;
#X obj 17 287 bng 15 250 50 0 empty empty empty 17 7 0 10 -262144 -1
-1;
#X msg 952 357 1;
#X msg 986 357 1;
#X obj 952 332 bng 15 250 50 0 empty empty empty 17 7 0 10 -262144
-1 -1;
#X obj 954 427 r u1x;
#X obj 1099 427 r u1y;
#X floatatom 954 474 5 0 0 0 - - -;
#X floatatom 1099 474 5 0 0 0 - - -;
#X obj 17 209 loadbang;
#X msg 17 235 1;
#X msg 51 235 1;
#N canvas 908 0 450 300 filter 0;
#X obj -8 29 inlet;
#X obj 136 29 inlet;
#X obj -90 200 outlet;
#X obj 74 53 r u1y;
#X text 31 28 x coordinate;
#X text 176 28 y coordinate;
#X obj -69 53 r u1x;
#X obj -23 86 ==;
#X obj 121 86 ==;
#X obj -90 126 spigot;
#X obj -90 168 spigot;
#X obj -90 29 r beat;
#X floatatom -77 82 5 0 0 0 - - -;
#X floatatom 55 86 5 0 0 0 - - -;
#X floatatom 2 57 5 0 0 0 - - -;
#X floatatom 171 61 5 0 0 0 - - -;
#X text -91 4 Filters the bang based on selected input;
#X connect 0 0 7 1;
#X connect 0 0 14 0;
#X connect 1 0 8 1;
#X connect 1 0 15 0;
#X connect 3 0 8 0;
#X connect 3 0 13 0;
#X connect 6 0 7 0;
#X connect 6 0 12 0;
#X connect 7 0 9 1;
#X connect 8 0 10 1;
#X connect 9 0 10 0;
#X connect 10 0 2 0;
#X connect 11 0 9 0;
#X restore 17 261 pd filter;
#X obj 952 374 s u1x;
#X obj 986 374 s u1y;
#X obj 1027 333 bng 15 250 50 0 empty empty empty 17 7 0 10 -262144
-1 -1;
#X obj 1027 375 s u1x;
#X obj 1061 375 s u1y;
#X msg 952 287 1;
#X obj 952 262 bng 15 250 50 0 empty empty empty 17 7 0 10 -262144
-1 -1;
#X obj 952 304 s u1x;
#X obj 986 304 s u1y;
#X obj 1028 262 bng 15 250 50 0 empty empty empty 17 7 0 10 -262144
-1 -1;
#X obj 1028 304 s u1x;
#X obj 1062 304 s u1y;
#X msg 986 287 2;
#X msg 1028 287 2;
#X msg 1062 287 2;
#X msg 1027 358 2;
#X msg 1061 358 1;
#X obj 250 287 bng 15 250 50 0 empty empty empty 17 7 0 10 -262144
-1 -1;
#X obj 250 209 loadbang;
#X msg 284 235 1;
#N canvas 908 0 450 300 filter 0;
#X obj -8 29 inlet;
#X obj 136 29 inlet;
#X obj -90 200 outlet;
#X obj 74 53 r u1y;
#X text 31 28 x coordinate;
#X text 176 28 y coordinate;
#X obj -69 53 r u1x;
#X obj -23 86 ==;
#X obj 121 86 ==;
#X obj -90 126 spigot;
#X obj -90 168 spigot;
#X obj -90 29 r beat;
#X floatatom -77 82 5 0 0 0 - - -;
#X floatatom 55 86 5 0 0 0 - - -;
#X floatatom 2 57 5 0 0 0 - - -;
#X floatatom 171 61 5 0 0 0 - - -;
#X text -91 4 Filters the bang based on selected input;
#X connect 0 0 7 1;
#X connect 0 0 14 0;
#X connect 1 0 8 1;
#X connect 1 0 15 0;
#X connect 3 0 8 0;
#X connect 3 0 13 0;
#X connect 6 0 7 0;
#X connect 6 0 12 0;
#X connect 7 0 9 1;
#X connect 8 0 10 1;
#X connect 9 0 10 0;
#X connect 10 0 2 0;
#X connect 11 0 9 0;
#X restore 250 261 pd filter;
#X msg 250 235 2;
#X obj 17 340 readsf~;
#X obj 16 366 dac~;
#X obj 250 340 readsf~;
#X obj 249 366 dac~;
#X obj 18 108 bng 15 250 50 0 empty empty empty 17 7 0 10 -262144 -1
-1;
#X obj 18 30 loadbang;
#N canvas 908 0 450 300 filter 0;
#X obj -8 29 inlet;
#X obj 136 29 inlet;
#X obj -90 200 outlet;
#X obj 74 53 r u1y;
#X text 31 28 x coordinate;
#X text 176 28 y coordinate;
#X obj -69 53 r u1x;
#X obj -23 86 ==;
#X obj 121 86 ==;
#X obj -90 126 spigot;
#X obj -90 168 spigot;
#X obj -90 29 r beat;
#X floatatom -77 82 5 0 0 0 - - -;
#X floatatom 55 86 5 0 0 0 - - -;
#X floatatom 2 57 5 0 0 0 - - -;
#X floatatom 171 61 5 0 0 0 - - -;
#X text -91 4 Filters the bang based on selected input;
#X connect 0 0 7 1;
#X connect 0 0 14 0;
#X connect 1 0 8 1;
#X connect 1 0 15 0;
#X connect 3 0 8 0;
#X connect 3 0 13 0;
#X connect 6 0 7 0;
#X connect 6 0 12 0;
#X connect 7 0 9 1;
#X connect 8 0 10 1;
#X connect 9 0 10 0;
#X connect 10 0 2 0;
#X connect 11 0 9 0;
#X restore 18 82 pd filter;
#X obj 251 108 bng 15 250 50 0 empty empty empty 17 7 0 10 -262144
-1 -1;
#X obj 251 29 loadbang;
#N canvas 908 0 450 300 filter 0;
#X obj -8 29 inlet;
#X obj 136 29 inlet;
#X obj -90 200 outlet;
#X obj 74 53 r u1y;
#X text 31 28 x coordinate;
#X text 176 28 y coordinate;
#X obj -69 53 r u1x;
#X obj -23 86 ==;
#X obj 121 86 ==;
#X obj -90 126 spigot;
#X obj -90 168 spigot;
#X obj -90 29 r beat;
#X floatatom -77 82 5 0 0 0 - - -;
#X floatatom 55 86 5 0 0 0 - - -;
#X floatatom 2 57 5 0 0 0 - - -;
#X floatatom 171 61 5 0 0 0 - - -;
#X text -91 4 Filters the bang based on selected input;
#X connect 0 0 7 1;
#X connect 0 0 14 0;
#X connect 1 0 8 1;
#X connect 1 0 15 0;
#X connect 3 0 8 0;
#X connect 3 0 13 0;
#X connect 6 0 7 0;
#X connect 6 0 12 0;
#X connect 7 0 9 1;
#X connect 8 0 10 1;
#X connect 9 0 10 0;
#X connect 10 0 2 0;
#X connect 11 0 9 0;
#X restore 251 82 pd filter;
#X msg 251 56 2;
#X obj 18 161 readsf~;
#X obj 17 187 dac~;
#X obj 251 161 readsf~;
#X obj 250 187 dac~;
#N canvas 573 137 450 300 bpmtobeat 0;
#X obj 70 9 pow -1;
#X obj 70 -15 r bpm;
#X obj 70 26 * 60000;
#X floatatom 70 43 5 0 0 0 - - -;
#X text 121 25 Convert bpm to ms;
#X obj 13 76 bng 15 250 50 0 empty empty empty 17 7 0 10 -262144 -1
-1;
#X obj 13 26 loadbang;
#X obj 13 59 metro 1000;
#X text 83 60 Bang at appropriate bpm;
#X obj 13 91 s beat;
#X connect 0 0 2 0;
#X connect 1 0 0 0;
#X connect 2 0 3 0;
#X connect 3 0 7 1;
#X connect 5 0 9 0;
#X connect 6 0 7 0;
#X connect 7 0 5 0;
#X restore 518 81 pd bpmtobeat;
#X msg 285 56 2;
#X msg 18 56 1;
#X msg 52 56 2;
#X msg 17 313 open sounds/piano_g.wav \, 1;
#X msg 250 313 open sounds/piano_c.wav \, 1;
#X msg 18 134 open sounds/piano_d.wav \, 1;
#X msg 251 134 open sounds/piano_e.wav \, 1;
#X connect 4 0 6 0;
#X connect 7 0 60 0;
#X connect 8 0 19 0;
#X connect 9 0 20 0;
#X connect 10 0 8 0;
#X connect 10 0 9 0;
#X connect 11 0 13 0;
#X connect 12 0 14 0;
#X connect 15 0 16 0;
#X connect 15 0 17 0;
#X connect 16 0 18 0;
#X connect 17 0 18 1;
#X connect 18 0 7 0;
#X connect 21 0 34 0;
#X connect 21 0 35 0;
#X connect 24 0 26 0;
#X connect 25 0 24 0;
#X connect 25 0 31 0;
#X connect 28 0 33 0;
#X connect 28 0 32 0;
#X connect 31 0 27 0;
#X connect 32 0 29 0;
#X connect 33 0 30 0;
#X connect 34 0 22 0;
#X connect 35 0 23 0;
#X connect 36 0 61 0;
#X connect 37 0 40 0;
#X connect 37 0 38 0;
#X connect 38 0 39 1;
#X connect 39 0 36 0;
#X connect 40 0 39 0;
#X connect 41 0 42 0;
#X connect 41 0 42 1;
#X connect 43 0 44 0;
#X connect 43 0 44 1;
#X connect 45 0 62 0;
#X connect 46 0 58 0;
#X connect 46 0 59 0;
#X connect 47 0 45 0;
#X connect 48 0 63 0;
#X connect 49 0 51 0;
#X connect 49 0 57 0;
#X connect 50 0 48 0;
#X connect 51 0 50 0;
#X connect 52 0 53 0;
#X connect 52 0 53 1;
#X connect 54 0 55 0;
#X connect 54 0 55 1;
#X connect 57 0 50 1;
#X connect 58 0 47 0;
#X connect 59 0 47 1;
#X connect 60 0 41 0;
#X connect 61 0 43 0;
#X connect 62 0 52 0;
#X connect 63 0 54 0;
