#N canvas 0 0 1362 689 10;
#X obj -131 3 cnv 15 400 540 empty empty Maze 20 8 1 14 -4032 -66577
0;
#X obj 274 2 cnv 15 100 540 empty empty Control 20 8 1 14 -257985 -66577
0;
#X obj 688 2 cnv 15 400 540 empty empty Communication_Logic 20 8 1
14 -4034 -66577 0;
#X obj 381 2 cnv 15 300 540 empty empty Play_Logic 20 8 1 14 -260097
-66577 0;
#X floatatom 281 41 8 0 0 0 - - -;
#X obj 281 57 s bpm;
#N canvas 758 220 450 300 bpmtobeat 0;
#X obj 70 9 pow -1;
#X obj 70 -15 r bpm;
#X obj 70 26 * 60000;
#X floatatom 70 43 5 0 0 0 - - -;
#X text 121 25 Convert bpm to ms;
#X obj 13 76 bng 15 250 50 0 empty empty empty 17 7 0 10 -262144 -1
-1;
#X obj 13 26 loadbang;
#X obj 13 59 metro 1000;
#X text 83 60 Bang at appropriate bpm;
#X obj 13 91 s beat;
#X connect 0 0 2 0;
#X connect 1 0 0 0;
#X connect 2 0 3 0;
#X connect 3 0 7 1;
#X connect 5 0 9 0;
#X connect 6 0 7 0;
#X connect 7 0 5 0;
#X restore 281 81 pd bpmtobeat;
#N canvas 0 0 450 300 (subpatch) 0;
#X array client1_x 100 float 3;
#A 0 0 0 0 0 0 0 0 0 0 0 0 0 0 0 0 0 0 0 0 0 0 0 0 0 0 0 0 0 0 0 0
0 0 0 0 0 0 0 0 0 0 0 0 0 0 0 0 0 0 0 0 0 0 0 0 0 0 0 0 0 0 0 0 0 0
0 0 0 0 0 0 0 0 0 0 0 0 0 0 0 0 0 0 0 0 0 0 0 0 0 0 0 0 0 0 0 0 0 0
0;
#X coords 0 9 99 0 100 40 1 0 0;
#X restore -110 579 graph;
#X obj -131 546 cnv 15 1220 135 empty empty Client_Signals 20 8 1 14
-261234 -66577 0;
#N canvas 0 0 450 300 (subpatch) 0;
#X array client1_y 100 float 3;
#A 0 0 0 0 0 0 0 0 0 0 0 0 0 0 0 0 0 0 0 0 0 0 0 0 0 0 0 0 0 0 0 0
0 0 0 0 0 0 0 0 0 0 0 0 0 0 0 0 0 0 0 0 0 0 0 0 0 0 0 0 0 0 0 0 0 0
0 0 0 0 0 0 0 0 0 0 0 0 0 0 0 0 0 0 0 0 0 0 0 0 0 0 0 0 0 0 0 0 0 0
0;
#X coords 0 9 99 0 100 40 1 0 0;
#X restore -110 638 graph;
#N canvas 159 287 450 300 reset 0;
#X obj 91 18 loadbang;
#X obj 19 18 inlet;
#X msg 19 51 \; client1_x const 0 \; client1_y const 0 \;;
#X obj 162 76 s c1len;
#X msg 162 53 0;
#X connect 0 0 2 0;
#X connect 0 0 4 0;
#X connect 1 0 2 0;
#X connect 1 0 4 0;
#X connect 4 0 3 0;
#X restore 285 303 pd reset;
#X obj 285 288 bng 15 250 50 0 empty empty empty 17 7 0 10 -262144
-1 -1;
#X text 284 21 Monitor BPM;
#X obj 403 306 r beat;
#X obj 403 329 f;
#X obj 437 329 + 1;
#X text 470 329 Increment index on beat;
#X floatatom 403 383 5 0 0 0 - - -;
#X obj 403 366 % 10;
#X floatatom 437 350 5 0 0 0 - - -;
#X obj 403 426 tabread client1_x;
#X floatatom 403 449 5 0 0 0 - - -;
#X obj 403 477 s c1x;
#X text 456 367 Contrain to array bounds;
#X obj 522 426 tabread client1_y;
#X floatatom 522 449 5 0 0 0 - - -;
#X obj 522 477 s c1y;
#X obj 477 350 r c1len;
#X obj -112 40 bng 40 250 50 0 empty empty empty 17 7 0 10 -262144
-1 -1;
#X obj -72 40 bng 40 250 50 0 empty empty empty 17 7 0 10 -262144 -1
-1;
#X obj -32 40 bng 40 250 50 0 empty empty empty 17 7 0 10 -262144 -1
-1;
#X obj 8 40 bng 40 250 50 0 empty empty empty 17 7 0 10 -262144 -1
-1;
#X obj 48 40 bng 40 250 50 0 empty empty empty 17 7 0 10 -262144 -1
-1;
#X obj 88 40 bng 40 250 50 0 empty empty empty 17 7 0 10 -262144 -1
-1;
#X obj 128 40 bng 40 250 50 0 empty empty empty 17 7 0 10 -262144 -1
-1;
#X obj 168 40 bng 40 250 50 0 empty empty empty 17 7 0 10 -262144 -1
-1;
#X obj 208 40 bng 40 250 50 0 empty empty empty 17 7 0 10 -262144 -1
-1;
#X obj -112 97 bng 40 250 50 0 empty empty empty 17 7 0 10 -262144
-1 -1;
#X obj -72 97 bng 40 250 50 0 empty empty empty 17 7 0 10 -262144 -1
-1;
#X obj -32 97 bng 40 250 50 0 empty empty empty 17 7 0 10 -262144 -1
-1;
#X obj 8 97 bng 40 250 50 0 empty empty empty 17 7 0 10 -262144 -1
-1;
#X obj 48 97 bng 40 250 50 0 empty empty empty 17 7 0 10 -262144 -1
-1;
#X obj 88 97 bng 40 250 50 0 empty empty empty 17 7 0 10 -262144 -1
-1;
#X obj 128 97 bng 40 250 50 0 empty empty empty 17 7 0 10 -262144 -1
-1;
#X obj 168 97 bng 40 250 50 0 empty empty empty 17 7 0 10 -262144 -1
-1;
#X obj 208 97 bng 40 250 50 0 empty empty empty 17 7 0 10 -262144 -1
-1;
#X obj -112 154 bng 40 250 50 0 empty empty empty 17 7 0 10 -262144
-1 -1;
#X obj -72 154 bng 40 250 50 0 empty empty empty 17 7 0 10 -262144
-1 -1;
#X obj -32 154 bng 40 250 50 0 empty empty empty 17 7 0 10 -262144
-1 -1;
#X obj 8 154 bng 40 250 50 0 empty empty empty 17 7 0 10 -262144 -1
-1;
#X obj 48 154 bng 40 250 50 0 empty empty empty 17 7 0 10 -262144 -1
-1;
#X obj 88 154 bng 40 250 50 0 empty empty empty 17 7 0 10 -262144 -1
-1;
#X obj 128 154 bng 40 250 50 0 empty empty empty 17 7 0 10 -262144
-1 -1;
#X obj 168 154 bng 40 250 50 0 empty empty empty 17 7 0 10 -262144
-1 -1;
#X obj 208 154 bng 40 250 50 0 empty empty empty 17 7 0 10 -262144
-1 -1;
#X obj -112 211 bng 40 250 50 0 empty empty empty 17 7 0 10 -262144
-1 -1;
#X obj -72 211 bng 40 250 50 0 empty empty empty 17 7 0 10 -262144
-1 -1;
#X obj -32 211 bng 40 250 50 0 empty empty empty 17 7 0 10 -262144
-1 -1;
#X obj 8 211 bng 40 250 50 0 empty empty empty 17 7 0 10 -262144 -1
-1;
#X obj 48 211 bng 40 250 50 0 empty empty empty 17 7 0 10 -262144 -1
-1;
#X obj 88 211 bng 40 250 50 0 empty empty empty 17 7 0 10 -262144 -1
-1;
#X obj 128 211 bng 40 250 50 0 empty empty empty 17 7 0 10 -262144
-1 -1;
#X obj 168 211 bng 40 250 50 0 empty empty empty 17 7 0 10 -262144
-1 -1;
#X obj 208 211 bng 40 250 50 0 empty empty empty 17 7 0 10 -262144
-1 -1;
#X obj -112 268 bng 40 250 50 0 empty empty empty 17 7 0 10 -262144
-1 -1;
#X obj -32 268 bng 40 250 50 0 empty empty empty 17 7 0 10 -262144
-1 -1;
#X obj 8 268 bng 40 250 50 0 empty empty empty 17 7 0 10 -262144 -1
-1;
#X obj 48 268 bng 40 250 50 0 empty empty empty 17 7 0 10 -262144 -1
-1;
#X obj 88 268 bng 40 250 50 0 empty empty empty 17 7 0 10 -262144 -1
-1;
#X obj 128 268 bng 40 250 50 0 empty empty empty 17 7 0 10 -262144
-1 -1;
#X obj 168 268 bng 40 250 50 0 empty empty empty 17 7 0 10 -262144
-1 -1;
#X obj 208 268 bng 40 250 50 0 empty empty empty 17 7 0 10 -262144
-1 -1;
#X obj -112 325 bng 40 250 50 0 empty empty empty 17 7 0 10 -262144
-1 -1;
#X obj -112 308 r g1_6;
#X obj -72 325 bng 40 250 50 0 empty empty empty 17 7 0 10 -262144
-1 -1;
#X obj -72 308 r g2_6;
#X obj -32 325 bng 40 250 50 0 empty empty empty 17 7 0 10 -262144
-1 -1;
#X obj 8 325 bng 40 250 50 0 empty empty empty 17 7 0 10 -262144 -1
-1;
#X obj 48 325 bng 40 250 50 0 empty empty empty 17 7 0 10 -262144 -1
-1;
#X obj 88 325 bng 40 250 50 0 empty empty empty 17 7 0 10 -262144 -1
-1;
#X obj -32 308 r g3_6;
#X obj 8 308 r g4_6;
#X obj 48 308 r g5_6;
#X obj 88 308 r g6_6;
#X obj 128 325 bng 40 250 50 0 empty empty empty 17 7 0 10 -262144
-1 -1;
#X obj 168 325 bng 40 250 50 0 empty empty empty 17 7 0 10 -262144
-1 -1;
#X obj 208 325 bng 40 250 50 0 empty empty empty 17 7 0 10 -262144
-1 -1;
#X obj 128 308 r g7_6;
#X obj 168 308 r g8_6;
#X obj 208 308 r g9_6;
#X obj -112 382 bng 40 250 50 0 empty empty empty 17 7 0 10 -262144
-1 -1;
#X obj -72 382 bng 40 250 50 0 empty empty empty 17 7 0 10 -262144
-1 -1;
#X obj -32 382 bng 40 250 50 0 empty empty empty 17 7 0 10 -262144
-1 -1;
#X obj 8 382 bng 40 250 50 0 empty empty empty 17 7 0 10 -262144 -1
-1;
#X obj 48 382 bng 40 250 50 0 empty empty empty 17 7 0 10 -262144 -1
-1;
#X obj 88 382 bng 40 250 50 0 empty empty empty 17 7 0 10 -262144 -1
-1;
#X obj 128 382 bng 40 250 50 0 empty empty empty 17 7 0 10 -262144
-1 -1;
#X obj 168 382 bng 40 250 50 0 empty empty empty 17 7 0 10 -262144
-1 -1;
#X obj 208 382 bng 40 250 50 0 empty empty empty 17 7 0 10 -262144
-1 -1;
#X obj -112 439 bng 40 250 50 0 empty empty empty 17 7 0 10 -262144
-1 -1;
#X obj -72 439 bng 40 250 50 0 empty empty empty 17 7 0 10 -262144
-1 -1;
#X obj -32 439 bng 40 250 50 0 empty empty empty 17 7 0 10 -262144
-1 -1;
#X obj 8 439 bng 40 250 50 0 empty empty empty 17 7 0 10 -262144 -1
-1;
#X obj 48 439 bng 40 250 50 0 empty empty empty 17 7 0 10 -262144 -1
-1;
#X obj 88 439 bng 40 250 50 0 empty empty empty 17 7 0 10 -262144 -1
-1;
#X obj 128 439 bng 40 250 50 0 empty empty empty 17 7 0 10 -262144
-1 -1;
#X obj 168 439 bng 40 250 50 0 empty empty empty 17 7 0 10 -262144
-1 -1;
#X obj 208 439 bng 40 250 50 0 empty empty empty 17 7 0 10 -262144
-1 -1;
#X obj -112 496 bng 40 250 50 0 empty empty empty 17 7 0 10 -262144
-1 -1;
#X obj -72 496 bng 40 250 50 0 empty empty empty 17 7 0 10 -262144
-1 -1;
#X obj -32 496 bng 40 250 50 0 empty empty empty 17 7 0 10 -262144
-1 -1;
#X obj 8 496 bng 40 250 50 0 empty empty empty 17 7 0 10 -262144 -1
-1;
#X obj 48 496 bng 40 250 50 0 empty empty empty 17 7 0 10 -262144 -1
-1;
#X obj 88 496 bng 40 250 50 0 empty empty empty 17 7 0 10 -262144 -1
-1;
#X obj 128 496 bng 40 250 50 0 empty empty empty 17 7 0 10 -262144
-1 -1;
#X obj 168 496 bng 40 250 50 0 empty empty empty 17 7 0 10 -262144
-1 -1;
#X obj 208 496 bng 40 250 50 0 empty empty empty 17 7 0 10 -262144
-1 -1;
#X obj -112 23 r g1_1;
#X obj -72 23 r g2_1;
#X obj -32 23 r g3_1;
#X obj 8 23 r g4_1;
#X obj 48 23 r g5_1;
#X obj 88 23 r g6_1;
#X obj 128 23 r g7_1;
#X obj 168 23 r g8_1;
#X obj 208 23 r g9_1;
#X obj -112 80 r g1_2;
#X obj -72 80 r g2_2;
#X obj -32 80 r g3_2;
#X obj 8 80 r g4_2;
#X obj 48 80 r g5_2;
#X obj 88 80 r g6_2;
#X obj 128 80 r g7_2;
#X obj 168 80 r g8_2;
#X obj 208 80 r g9_2;
#X obj -112 137 r g1_3;
#X obj -72 137 r g2_3;
#X obj -32 137 r g3_3;
#X obj 8 137 r g4_3;
#X obj 48 137 r g5_3;
#X obj 88 137 r g6_3;
#X obj 128 137 r g7_3;
#X obj 168 137 r g8_3;
#X obj 208 137 r g9_3;
#X obj -112 194 r g1_4;
#X obj -72 194 r g2_4;
#X obj -32 194 r g3_4;
#X obj 8 194 r g4_4;
#X obj 48 194 r g5_4;
#X obj 88 194 r g6_4;
#X obj 128 194 r g7_4;
#X obj 168 194 r g8_4;
#X obj 208 194 r g9_4;
#X obj 208 251 r g9_5;
#X obj 168 251 r g8_5;
#X obj 128 251 r g7_5;
#X obj 88 251 r g6_5;
#X obj 8 251 r g4_5;
#X obj -32 251 r g3_5;
#X obj -72 268 bng 40 250 50 0 empty empty empty 17 7 0 10 -262144
-1 -1;
#X obj -72 251 r g2_5;
#X obj -112 251 r g1_5;
#X obj -112 365 r g1_7;
#X obj -72 365 r g2_7;
#X obj -32 365 r g3_7;
#X obj 8 365 r g4_7;
#X obj 48 365 r g5_7;
#X obj 88 365 r g6_7;
#X obj 128 365 r g7_7;
#X obj 168 365 r g8_7;
#X obj 208 365 r g9_7;
#X obj -112 422 r g1_8;
#X obj -72 422 r g2_8;
#X obj -32 422 r g3_8;
#X obj 8 422 r g4_8;
#X obj 48 422 r g5_8;
#X obj 88 422 r g6_8;
#X obj 128 422 r g7_8;
#X obj 168 422 r g8_8;
#X obj 208 422 r g9_8;
#X obj -112 479 r g1_9;
#X obj -72 479 r g2_9;
#X obj -32 479 r g3_9;
#X obj 8 479 r g4_9;
#X obj 48 479 r g5_9;
#X obj 88 479 r g6_9;
#X obj 128 479 r g7_9;
#X obj 168 479 r g8_9;
#X obj 208 479 r g9_9;
#X obj 48 251 r g5_5;
#X obj 284 125 vsl 15 128 0 1 0 0 vol empty Volume 0 -9 1 10 -262144
-1 -1 0 1;
#X text 283 269 Reset signals;
#X text 401 283 Play the sound on beats;
#X obj 508 157 r c1len;
#X text 401 73 Write signals to corresponding arrays;
#X obj 403 157 r u1y;
#X obj 403 252 tabwrite client1_y;
#X obj 403 97 r u1x;
#X obj 403 127 tabwrite client1_x;
#X text 519 127 write x value;
#X text 520 250 write y value;
#X obj 508 97 r c1len;
#X obj 446 218 + 1;
#X text 497 234 Update array length;
#X msg 446 201 1;
#X obj 446 235 s c1len;
#X obj 421 179 delay 1;
#X text 400 26 Read in signal from clients 1-20;
#N canvas 0 0 1362 689 client 0;
#X floatatom -278 -1795 5 0 0 0 - - -;
#X obj -278 -1772 s u1x;
#X floatatom -240 -1794 5 0 0 0 - - -;
#X obj -278 -1820 r ux;
#X obj -240 -1820 r uy;
#X text -281 -1854 This is where all the inputs come in. Coordinates
are then sent out to server;
#X obj -278 -1740 r c1_1;
#X msg -278 -1713 1;
#X msg -250 -1713 1;
#X obj -278 -1690 s ux;
#X obj -250 -1690 s uy;
#X msg -278 -1641 1;
#X obj -278 -1618 s ux;
#X obj -250 -1618 s uy;
#X obj -278 -1668 r c1_2;
#X msg -250 -1641 2;
#X msg -278 -1569 1;
#X obj -278 -1546 s ux;
#X obj -250 -1546 s uy;
#X msg -278 -1497 1;
#X obj -278 -1474 s ux;
#X obj -250 -1474 s uy;
#X obj -278 -1596 r c1_3;
#X msg -250 -1569 3;
#X obj -278 -1524 r c1_4;
#X msg -250 -1497 4;
#X msg -278 -1425 1;
#X obj -278 -1402 s ux;
#X obj -250 -1402 s uy;
#X msg -278 -1353 1;
#X obj -278 -1330 s ux;
#X obj -250 -1330 s uy;
#X msg -278 -1281 1;
#X obj -278 -1258 s ux;
#X obj -250 -1258 s uy;
#X msg -278 -1209 1;
#X obj -278 -1186 s ux;
#X obj -250 -1186 s uy;
#X obj -278 -1452 r c1_5;
#X msg -250 -1425 5;
#X obj -278 -1380 r c1_6;
#X msg -250 -1353 6;
#X obj -278 -1308 r c1_7;
#X msg -250 -1281 7;
#X obj -278 -1236 r c1_8;
#X msg -250 -1209 8;
#X msg -278 -1137 1;
#X obj -278 -1114 s ux;
#X obj -250 -1114 s uy;
#X obj -278 -1164 r c1_9;
#X msg -250 -1137 9;
#X msg -191 -1713 1;
#X obj -219 -1690 s ux;
#X obj -191 -1690 s uy;
#X obj -219 -1618 s ux;
#X obj -191 -1618 s uy;
#X msg -191 -1641 2;
#X obj -219 -1546 s ux;
#X obj -191 -1546 s uy;
#X obj -219 -1474 s ux;
#X obj -191 -1474 s uy;
#X msg -191 -1569 3;
#X msg -191 -1497 4;
#X obj -219 -1402 s ux;
#X obj -191 -1402 s uy;
#X obj -219 -1330 s ux;
#X obj -191 -1330 s uy;
#X obj -219 -1258 s ux;
#X obj -191 -1258 s uy;
#X obj -219 -1186 s ux;
#X obj -191 -1186 s uy;
#X msg -191 -1425 5;
#X msg -191 -1353 6;
#X msg -191 -1281 7;
#X msg -191 -1209 8;
#X obj -219 -1114 s ux;
#X obj -191 -1114 s uy;
#X msg -191 -1137 9;
#X obj -219 -1740 r c2_1;
#X msg -219 -1713 2;
#X msg -219 -1641 2;
#X msg -219 -1569 2;
#X msg -219 -1496 2;
#X msg -219 -1425 2;
#X msg -219 -1353 2;
#X msg -219 -1281 2;
#X msg -219 -1209 2;
#X msg -219 -1137 2;
#X obj -219 -1164 r c2_9;
#X obj -219 -1236 r c2_8;
#X obj -219 -1308 r c2_7;
#X obj -219 -1380 r c2_6;
#X obj -219 -1452 r c2_5;
#X obj -219 -1524 r c2_4;
#X obj -219 -1596 r c2_3;
#X obj -219 -1668 r c2_2;
#X msg -133 -1713 1;
#X obj -161 -1690 s ux;
#X obj -133 -1690 s uy;
#X obj -161 -1618 s ux;
#X obj -133 -1618 s uy;
#X msg -133 -1641 2;
#X obj -161 -1546 s ux;
#X obj -133 -1546 s uy;
#X obj -161 -1474 s ux;
#X obj -133 -1474 s uy;
#X msg -133 -1569 3;
#X msg -133 -1497 4;
#X obj -161 -1402 s ux;
#X obj -133 -1402 s uy;
#X obj -161 -1330 s ux;
#X obj -133 -1330 s uy;
#X obj -161 -1258 s ux;
#X obj -133 -1258 s uy;
#X obj -161 -1186 s ux;
#X obj -133 -1186 s uy;
#X msg -133 -1425 5;
#X msg -133 -1353 6;
#X msg -133 -1281 7;
#X msg -133 -1209 8;
#X obj -161 -1114 s ux;
#X obj -133 -1114 s uy;
#X msg -133 -1137 9;
#X msg -74 -1713 1;
#X obj -102 -1690 s ux;
#X obj -74 -1690 s uy;
#X obj -102 -1618 s ux;
#X obj -74 -1618 s uy;
#X msg -74 -1641 2;
#X obj -102 -1546 s ux;
#X obj -74 -1546 s uy;
#X obj -102 -1474 s ux;
#X obj -74 -1474 s uy;
#X msg -74 -1569 3;
#X msg -74 -1497 4;
#X obj -102 -1402 s ux;
#X obj -74 -1402 s uy;
#X obj -102 -1330 s ux;
#X obj -74 -1330 s uy;
#X obj -102 -1258 s ux;
#X obj -74 -1258 s uy;
#X obj -102 -1186 s ux;
#X obj -74 -1186 s uy;
#X msg -74 -1425 5;
#X msg -74 -1353 6;
#X msg -74 -1281 7;
#X msg -74 -1209 8;
#X obj -102 -1114 s ux;
#X obj -74 -1114 s uy;
#X obj -161 -1740 r c3_1;
#X obj -102 -1740 r c4_1;
#X msg -161 -1713 3;
#X msg -102 -1713 4;
#X msg -161 -1641 3;
#X msg -102 -1641 4;
#X msg -161 -1569 3;
#X msg -102 -1569 4;
#X msg -161 -1497 3;
#X msg -102 -1496 4;
#X msg -161 -1425 3;
#X msg -102 -1425 4;
#X msg -161 -1353 3;
#X msg -102 -1353 4;
#X msg -161 -1281 3;
#X msg -102 -1281 4;
#X msg -161 -1209 3;
#X msg -102 -1209 4;
#X msg -161 -1137 3;
#X obj -161 -1668 r c3_2;
#X obj -102 -1668 r c4_2;
#X obj -161 -1596 r c3_3;
#X obj -102 -1596 r c4_3;
#X obj -161 -1524 r c3_4;
#X obj -102 -1524 r c4_4;
#X obj -161 -1452 r c3_5;
#X obj -102 -1452 r c4_5;
#X obj -161 -1380 r c3_6;
#X obj -102 -1380 r c4_6;
#X obj -161 -1308 r c3_7;
#X obj -102 -1308 r c4_7;
#X obj -161 -1236 r c3_8;
#X obj -102 -1236 r c4_8;
#X obj -161 -1164 r c3_9;
#X obj -102 -1164 r c4_9;
#X msg -74 -1137 9;
#X msg -102 -1137 9;
#X msg -15 -1713 1;
#X obj -43 -1690 s ux;
#X obj -15 -1690 s uy;
#X obj -43 -1618 s ux;
#X obj -15 -1618 s uy;
#X msg -15 -1641 2;
#X obj -43 -1546 s ux;
#X obj -15 -1546 s uy;
#X obj -43 -1474 s ux;
#X obj -15 -1474 s uy;
#X msg -15 -1569 3;
#X msg -15 -1497 4;
#X obj -43 -1402 s ux;
#X obj -15 -1402 s uy;
#X obj -43 -1330 s ux;
#X obj -15 -1330 s uy;
#X obj -43 -1258 s ux;
#X obj -15 -1258 s uy;
#X obj -43 -1186 s ux;
#X obj -15 -1186 s uy;
#X msg -15 -1425 5;
#X msg -15 -1353 6;
#X msg -15 -1281 7;
#X msg -15 -1209 8;
#X obj -43 -1114 s ux;
#X obj -15 -1114 s uy;
#X msg -15 -1137 9;
#X msg 44 -1713 1;
#X obj 16 -1690 s ux;
#X obj 44 -1690 s uy;
#X obj 16 -1618 s ux;
#X obj 44 -1618 s uy;
#X msg 44 -1641 2;
#X obj 16 -1546 s ux;
#X obj 44 -1546 s uy;
#X obj 16 -1474 s ux;
#X obj 44 -1474 s uy;
#X msg 44 -1569 3;
#X msg 44 -1497 4;
#X obj 16 -1402 s ux;
#X obj 44 -1402 s uy;
#X obj 16 -1330 s ux;
#X obj 44 -1330 s uy;
#X obj 16 -1258 s ux;
#X obj 44 -1258 s uy;
#X obj 16 -1186 s ux;
#X obj 44 -1186 s uy;
#X msg 44 -1425 5;
#X msg 44 -1353 6;
#X msg 44 -1281 7;
#X msg 44 -1209 8;
#X obj 16 -1114 s ux;
#X obj 44 -1114 s uy;
#X msg 44 -1137 9;
#X msg 102 -1713 1;
#X obj 74 -1690 s ux;
#X obj 102 -1690 s uy;
#X obj 74 -1618 s ux;
#X obj 102 -1618 s uy;
#X msg 102 -1641 2;
#X obj 74 -1546 s ux;
#X obj 102 -1546 s uy;
#X obj 74 -1474 s ux;
#X obj 102 -1474 s uy;
#X msg 102 -1569 3;
#X msg 102 -1497 4;
#X obj 74 -1402 s ux;
#X obj 102 -1402 s uy;
#X obj 74 -1330 s ux;
#X obj 102 -1330 s uy;
#X obj 74 -1258 s ux;
#X obj 102 -1258 s uy;
#X obj 74 -1186 s ux;
#X obj 102 -1186 s uy;
#X msg 102 -1425 5;
#X msg 102 -1353 6;
#X msg 102 -1281 7;
#X msg 102 -1209 8;
#X obj 74 -1114 s ux;
#X obj 102 -1114 s uy;
#X msg 102 -1137 9;
#X msg 161 -1713 1;
#X obj 133 -1690 s ux;
#X obj 161 -1690 s uy;
#X obj 133 -1618 s ux;
#X obj 161 -1618 s uy;
#X msg 161 -1641 2;
#X obj 133 -1546 s ux;
#X obj 161 -1546 s uy;
#X obj 133 -1474 s ux;
#X obj 161 -1474 s uy;
#X msg 161 -1569 3;
#X msg 161 -1497 4;
#X obj 133 -1402 s ux;
#X obj 161 -1402 s uy;
#X obj 133 -1330 s ux;
#X obj 161 -1330 s uy;
#X obj 133 -1258 s ux;
#X obj 161 -1258 s uy;
#X obj 133 -1186 s ux;
#X obj 161 -1186 s uy;
#X msg 161 -1425 5;
#X msg 161 -1353 6;
#X msg 161 -1281 7;
#X msg 161 -1209 8;
#X obj 133 -1114 s ux;
#X obj 161 -1114 s uy;
#X msg 161 -1137 9;
#X obj -43 -1740 r c5_1;
#X obj 16 -1740 r c6_1;
#X obj 74 -1740 r c7_1;
#X obj 133 -1740 r c8_1;
#X obj -43 -1668 r c5_2;
#X obj 16 -1668 r c6_2;
#X obj 74 -1668 r c7_2;
#X obj 133 -1668 r c8_2;
#X obj -43 -1596 r c5_3;
#X obj 16 -1596 r c6_3;
#X obj 74 -1596 r c7_3;
#X obj 133 -1596 r c8_3;
#X obj -43 -1524 r c5_4;
#X obj 16 -1524 r c6_4;
#X obj 74 -1524 r c7_4;
#X obj 133 -1524 r c8_4;
#X obj -43 -1452 r c5_5;
#X obj 16 -1452 r c6_5;
#X obj 74 -1452 r c7_5;
#X obj 133 -1452 r c8_5;
#X obj -43 -1380 r c5_6;
#X obj 16 -1380 r c6_6;
#X obj 74 -1380 r c7_6;
#X obj 133 -1380 r c8_6;
#X obj -43 -1308 r c5_7;
#X obj 16 -1308 r c6_7;
#X obj 74 -1308 r c7_7;
#X obj 133 -1308 r c8_7;
#X obj -43 -1236 r c5_8;
#X obj 16 -1236 r c6_8;
#X obj 74 -1236 r c7_8;
#X obj 133 -1236 r c8_8;
#X obj -43 -1164 r c5_9;
#X obj 16 -1164 r c6_9;
#X obj 74 -1164 r c7_9;
#X obj 133 -1164 r c8_9;
#X msg -43 -1713 5;
#X msg 16 -1713 6;
#X msg 74 -1713 7;
#X msg 133 -1713 8;
#X msg -43 -1641 5;
#X msg -43 -1569 5;
#X msg -43 -1497 5;
#X msg -43 -1425 5;
#X msg -43 -1353 5;
#X msg -43 -1281 5;
#X msg -43 -1209 5;
#X msg -43 -1137 5;
#X msg 16 -1641 6;
#X msg 16 -1569 6;
#X msg 16 -1496 6;
#X msg 16 -1425 6;
#X msg 16 -1353 6;
#X msg 16 -1281 6;
#X msg 16 -1209 6;
#X msg 16 -1137 6;
#X msg 74 -1641 7;
#X msg 74 -1568 7;
#X msg 74 -1497 7;
#X msg 74 -1425 7;
#X msg 74 -1353 7;
#X msg 73 -1281 7;
#X msg 74 -1209 7;
#X msg 74 -1137 7;
#X msg 133 -1641 8;
#X msg 133 -1568 8;
#X msg 133 -1496 8;
#X msg 133 -1425 8;
#X msg 133 -1353 8;
#X msg 133 -1280 8;
#X msg 133 -1209 8;
#X msg 133 -1137 8;
#X msg 220 -1713 1;
#X obj 192 -1690 s ux;
#X obj 220 -1690 s uy;
#X obj 192 -1618 s ux;
#X obj 220 -1618 s uy;
#X msg 220 -1641 2;
#X obj 192 -1546 s ux;
#X obj 220 -1546 s uy;
#X obj 192 -1474 s ux;
#X obj 220 -1474 s uy;
#X msg 220 -1569 3;
#X msg 220 -1497 4;
#X obj 192 -1402 s ux;
#X obj 220 -1402 s uy;
#X obj 192 -1330 s ux;
#X obj 220 -1330 s uy;
#X obj 192 -1258 s ux;
#X obj 220 -1258 s uy;
#X obj 192 -1186 s ux;
#X obj 220 -1186 s uy;
#X msg 220 -1425 5;
#X msg 220 -1353 6;
#X msg 220 -1281 7;
#X msg 220 -1209 8;
#X obj 192 -1114 s ux;
#X obj 220 -1114 s uy;
#X msg 220 -1137 9;
#X obj 192 -1740 r c9_1;
#X obj 192 -1668 r c9_2;
#X obj 192 -1596 r c9_3;
#X obj 192 -1524 r c9_4;
#X obj 192 -1452 r c9_5;
#X obj 192 -1380 r c9_6;
#X obj 192 -1308 r c9_7;
#X obj 192 -1236 r c9_8;
#X obj 192 -1164 r c9_9;
#X msg 192 -1137 9;
#X msg 192 -1209 9;
#X msg 192 -1280 9;
#X msg 192 -1353 9;
#X msg 192 -1425 9;
#X msg 192 -1496 9;
#X msg 192 -1568 9;
#X msg 192 -1641 9;
#X msg 192 -1713 9;
#X obj -240 -1772 s u1y;
#X connect 0 0 1 0;
#X connect 2 0 411 0;
#X connect 3 0 0 0;
#X connect 4 0 2 0;
#X connect 6 0 7 0;
#X connect 6 0 8 0;
#X connect 7 0 9 0;
#X connect 8 0 10 0;
#X connect 11 0 12 0;
#X connect 14 0 11 0;
#X connect 14 0 15 0;
#X connect 15 0 13 0;
#X connect 16 0 17 0;
#X connect 19 0 20 0;
#X connect 22 0 16 0;
#X connect 22 0 23 0;
#X connect 23 0 18 0;
#X connect 24 0 19 0;
#X connect 24 0 25 0;
#X connect 25 0 21 0;
#X connect 26 0 27 0;
#X connect 29 0 30 0;
#X connect 32 0 33 0;
#X connect 35 0 36 0;
#X connect 38 0 26 0;
#X connect 38 0 39 0;
#X connect 39 0 28 0;
#X connect 40 0 29 0;
#X connect 40 0 41 0;
#X connect 41 0 31 0;
#X connect 42 0 32 0;
#X connect 42 0 43 0;
#X connect 43 0 34 0;
#X connect 44 0 35 0;
#X connect 44 0 45 0;
#X connect 45 0 37 0;
#X connect 46 0 47 0;
#X connect 49 0 46 0;
#X connect 49 0 50 0;
#X connect 50 0 48 0;
#X connect 51 0 53 0;
#X connect 56 0 55 0;
#X connect 61 0 58 0;
#X connect 62 0 60 0;
#X connect 71 0 64 0;
#X connect 72 0 66 0;
#X connect 73 0 68 0;
#X connect 74 0 70 0;
#X connect 77 0 76 0;
#X connect 78 0 79 0;
#X connect 78 0 51 0;
#X connect 79 0 52 0;
#X connect 80 0 54 0;
#X connect 81 0 57 0;
#X connect 82 0 59 0;
#X connect 83 0 63 0;
#X connect 84 0 65 0;
#X connect 85 0 67 0;
#X connect 86 0 69 0;
#X connect 87 0 75 0;
#X connect 88 0 87 0;
#X connect 88 0 77 0;
#X connect 89 0 86 0;
#X connect 89 0 74 0;
#X connect 90 0 85 0;
#X connect 90 0 73 0;
#X connect 91 0 84 0;
#X connect 91 0 72 0;
#X connect 92 0 83 0;
#X connect 92 0 71 0;
#X connect 93 0 82 0;
#X connect 93 0 62 0;
#X connect 94 0 81 0;
#X connect 94 0 61 0;
#X connect 95 0 80 0;
#X connect 95 0 56 0;
#X connect 96 0 98 0;
#X connect 101 0 100 0;
#X connect 106 0 103 0;
#X connect 107 0 105 0;
#X connect 116 0 109 0;
#X connect 117 0 111 0;
#X connect 118 0 113 0;
#X connect 119 0 115 0;
#X connect 122 0 121 0;
#X connect 123 0 125 0;
#X connect 128 0 127 0;
#X connect 133 0 130 0;
#X connect 134 0 132 0;
#X connect 143 0 136 0;
#X connect 144 0 138 0;
#X connect 145 0 140 0;
#X connect 146 0 142 0;
#X connect 149 0 151 0;
#X connect 149 0 96 0;
#X connect 150 0 152 0;
#X connect 150 0 123 0;
#X connect 151 0 97 0;
#X connect 152 0 124 0;
#X connect 153 0 99 0;
#X connect 154 0 126 0;
#X connect 155 0 102 0;
#X connect 156 0 129 0;
#X connect 157 0 104 0;
#X connect 158 0 131 0;
#X connect 159 0 108 0;
#X connect 160 0 135 0;
#X connect 161 0 110 0;
#X connect 162 0 137 0;
#X connect 163 0 112 0;
#X connect 164 0 139 0;
#X connect 165 0 114 0;
#X connect 166 0 141 0;
#X connect 167 0 120 0;
#X connect 168 0 153 0;
#X connect 168 0 101 0;
#X connect 169 0 154 0;
#X connect 169 0 128 0;
#X connect 170 0 155 0;
#X connect 170 0 106 0;
#X connect 171 0 156 0;
#X connect 171 0 133 0;
#X connect 172 0 157 0;
#X connect 172 0 107 0;
#X connect 173 0 158 0;
#X connect 173 0 134 0;
#X connect 174 0 159 0;
#X connect 174 0 116 0;
#X connect 175 0 160 0;
#X connect 175 0 143 0;
#X connect 176 0 161 0;
#X connect 176 0 117 0;
#X connect 177 0 162 0;
#X connect 177 0 144 0;
#X connect 178 0 163 0;
#X connect 178 0 118 0;
#X connect 179 0 164 0;
#X connect 179 0 145 0;
#X connect 180 0 165 0;
#X connect 180 0 119 0;
#X connect 181 0 166 0;
#X connect 181 0 146 0;
#X connect 182 0 167 0;
#X connect 182 0 122 0;
#X connect 183 0 184 0;
#X connect 183 0 185 0;
#X connect 184 0 148 0;
#X connect 185 0 147 0;
#X connect 186 0 188 0;
#X connect 191 0 190 0;
#X connect 196 0 193 0;
#X connect 197 0 195 0;
#X connect 206 0 199 0;
#X connect 207 0 201 0;
#X connect 208 0 203 0;
#X connect 209 0 205 0;
#X connect 212 0 211 0;
#X connect 213 0 215 0;
#X connect 218 0 217 0;
#X connect 223 0 220 0;
#X connect 224 0 222 0;
#X connect 233 0 226 0;
#X connect 234 0 228 0;
#X connect 235 0 230 0;
#X connect 236 0 232 0;
#X connect 239 0 238 0;
#X connect 240 0 242 0;
#X connect 245 0 244 0;
#X connect 250 0 247 0;
#X connect 251 0 249 0;
#X connect 260 0 253 0;
#X connect 261 0 255 0;
#X connect 262 0 257 0;
#X connect 263 0 259 0;
#X connect 266 0 265 0;
#X connect 267 0 269 0;
#X connect 272 0 271 0;
#X connect 277 0 274 0;
#X connect 278 0 276 0;
#X connect 287 0 280 0;
#X connect 288 0 282 0;
#X connect 289 0 284 0;
#X connect 290 0 286 0;
#X connect 293 0 292 0;
#X connect 294 0 330 0;
#X connect 294 0 186 0;
#X connect 295 0 331 0;
#X connect 295 0 213 0;
#X connect 296 0 332 0;
#X connect 296 0 240 0;
#X connect 297 0 333 0;
#X connect 297 0 267 0;
#X connect 298 0 334 0;
#X connect 298 0 191 0;
#X connect 299 0 342 0;
#X connect 299 0 218 0;
#X connect 300 0 350 0;
#X connect 300 0 245 0;
#X connect 301 0 358 0;
#X connect 301 0 272 0;
#X connect 302 0 335 0;
#X connect 302 0 196 0;
#X connect 303 0 343 0;
#X connect 303 0 223 0;
#X connect 304 0 351 0;
#X connect 304 0 250 0;
#X connect 305 0 359 0;
#X connect 305 0 277 0;
#X connect 306 0 336 0;
#X connect 306 0 197 0;
#X connect 307 0 344 0;
#X connect 307 0 224 0;
#X connect 308 0 352 0;
#X connect 308 0 251 0;
#X connect 309 0 360 0;
#X connect 309 0 278 0;
#X connect 310 0 337 0;
#X connect 310 0 206 0;
#X connect 311 0 345 0;
#X connect 311 0 233 0;
#X connect 312 0 353 0;
#X connect 312 0 260 0;
#X connect 313 0 361 0;
#X connect 313 0 287 0;
#X connect 314 0 338 0;
#X connect 314 0 207 0;
#X connect 315 0 346 0;
#X connect 315 0 234 0;
#X connect 316 0 354 0;
#X connect 316 0 261 0;
#X connect 317 0 362 0;
#X connect 317 0 288 0;
#X connect 318 0 339 0;
#X connect 318 0 208 0;
#X connect 319 0 347 0;
#X connect 319 0 235 0;
#X connect 320 0 355 0;
#X connect 320 0 262 0;
#X connect 321 0 363 0;
#X connect 321 0 289 0;
#X connect 322 0 340 0;
#X connect 322 0 209 0;
#X connect 323 0 348 0;
#X connect 323 0 236 0;
#X connect 324 0 356 0;
#X connect 324 0 263 0;
#X connect 325 0 364 0;
#X connect 325 0 290 0;
#X connect 326 0 341 0;
#X connect 326 0 212 0;
#X connect 327 0 349 0;
#X connect 327 0 239 0;
#X connect 328 0 357 0;
#X connect 328 0 266 0;
#X connect 329 0 293 0;
#X connect 329 0 365 0;
#X connect 330 0 187 0;
#X connect 331 0 214 0;
#X connect 332 0 241 0;
#X connect 333 0 268 0;
#X connect 334 0 189 0;
#X connect 335 0 192 0;
#X connect 336 0 194 0;
#X connect 337 0 198 0;
#X connect 338 0 200 0;
#X connect 339 0 202 0;
#X connect 340 0 204 0;
#X connect 341 0 210 0;
#X connect 342 0 216 0;
#X connect 343 0 219 0;
#X connect 344 0 221 0;
#X connect 345 0 225 0;
#X connect 346 0 227 0;
#X connect 347 0 229 0;
#X connect 348 0 231 0;
#X connect 349 0 237 0;
#X connect 350 0 243 0;
#X connect 351 0 246 0;
#X connect 352 0 248 0;
#X connect 353 0 252 0;
#X connect 354 0 254 0;
#X connect 355 0 256 0;
#X connect 356 0 258 0;
#X connect 357 0 264 0;
#X connect 358 0 270 0;
#X connect 359 0 273 0;
#X connect 360 0 275 0;
#X connect 361 0 279 0;
#X connect 362 0 281 0;
#X connect 363 0 283 0;
#X connect 364 0 285 0;
#X connect 365 0 291 0;
#X connect 366 0 368 0;
#X connect 371 0 370 0;
#X connect 376 0 373 0;
#X connect 377 0 375 0;
#X connect 386 0 379 0;
#X connect 387 0 381 0;
#X connect 388 0 383 0;
#X connect 389 0 385 0;
#X connect 392 0 391 0;
#X connect 393 0 410 0;
#X connect 393 0 366 0;
#X connect 394 0 409 0;
#X connect 394 0 371 0;
#X connect 395 0 408 0;
#X connect 395 0 376 0;
#X connect 396 0 407 0;
#X connect 396 0 377 0;
#X connect 397 0 406 0;
#X connect 397 0 386 0;
#X connect 398 0 405 0;
#X connect 398 0 387 0;
#X connect 399 0 404 0;
#X connect 399 0 388 0;
#X connect 400 0 403 0;
#X connect 400 0 389 0;
#X connect 401 0 392 0;
#X connect 401 0 402 0;
#X connect 402 0 390 0;
#X connect 403 0 384 0;
#X connect 404 0 382 0;
#X connect 405 0 380 0;
#X connect 406 0 378 0;
#X connect 407 0 374 0;
#X connect 408 0 372 0;
#X connect 409 0 369 0;
#X connect 410 0 367 0;
#X restore 403 49 pd client;
#X obj 708 68 s c1_1;
#X obj 708 29 bng 40 250 50 0 empty empty empty 17 7 0 10 -262144 -1
-1;
#X obj 748 29 bng 40 250 50 0 empty empty empty 17 7 0 10 -262144 -1
-1;
#X obj 788 29 bng 40 250 50 0 empty empty empty 17 7 0 10 -262144 -1
-1;
#X obj 828 29 bng 40 250 50 0 empty empty empty 17 7 0 10 -262144 -1
-1;
#X obj 868 29 bng 40 250 50 0 empty empty empty 17 7 0 10 -262144 -1
-1;
#X obj 908 29 bng 40 250 50 0 empty empty empty 17 7 0 10 -262144 -1
-1;
#X obj 948 29 bng 40 250 50 0 empty empty empty 17 7 0 10 -262144 -1
-1;
#X obj 988 29 bng 40 250 50 0 empty empty empty 17 7 0 10 -262144 -1
-1;
#X obj 1028 29 bng 40 250 50 0 empty empty empty 17 7 0 10 -262144
-1 -1;
#X obj 708 85 bng 40 250 50 0 empty empty empty 17 7 0 10 -262144 -1
-1;
#X obj 748 85 bng 40 250 50 0 empty empty empty 17 7 0 10 -262144 -1
-1;
#X obj 788 85 bng 40 250 50 0 empty empty empty 17 7 0 10 -262144 -1
-1;
#X obj 828 85 bng 40 250 50 0 empty empty empty 17 7 0 10 -262144 -1
-1;
#X obj 868 85 bng 40 250 50 0 empty empty empty 17 7 0 10 -262144 -1
-1;
#X obj 908 85 bng 40 250 50 0 empty empty empty 17 7 0 10 -262144 -1
-1;
#X obj 948 85 bng 40 250 50 0 empty empty empty 17 7 0 10 -262144 -1
-1;
#X obj 988 85 bng 40 250 50 0 empty empty empty 17 7 0 10 -262144 -1
-1;
#X obj 1028 85 bng 40 250 50 0 empty empty empty 17 7 0 10 -262144
-1 -1;
#X obj 708 124 s c1_2;
#X obj 748 68 s c2_1;
#X obj 748 124 s c2_2;
#X obj 788 68 s c3_1;
#X obj 788 124 s c3_2;
#X obj 828 68 s c4_1;
#X obj 868 68 s c5_1;
#X obj 908 68 s c6_1;
#X obj 948 68 s c7_1;
#X obj 988 68 s c8_1;
#X obj 1028 68 s c9_1;
#X obj 828 124 s c4_2;
#X obj 868 124 s c5_2;
#X obj 908 124 s c6_2;
#X obj 948 124 s c7_2;
#X obj 988 124 s c8_2;
#X obj 1028 124 s c9_2;
#X obj 708 140 bng 40 250 50 0 empty empty empty 17 7 0 10 -262144
-1 -1;
#X obj 748 140 bng 40 250 50 0 empty empty empty 17 7 0 10 -262144
-1 -1;
#X obj 788 140 bng 40 250 50 0 empty empty empty 17 7 0 10 -262144
-1 -1;
#X obj 828 140 bng 40 250 50 0 empty empty empty 17 7 0 10 -262144
-1 -1;
#X obj 868 140 bng 40 250 50 0 empty empty empty 17 7 0 10 -262144
-1 -1;
#X obj 908 140 bng 40 250 50 0 empty empty empty 17 7 0 10 -262144
-1 -1;
#X obj 948 140 bng 40 250 50 0 empty empty empty 17 7 0 10 -262144
-1 -1;
#X obj 988 140 bng 40 250 50 0 empty empty empty 17 7 0 10 -262144
-1 -1;
#X obj 1028 140 bng 40 250 50 0 empty empty empty 17 7 0 10 -262144
-1 -1;
#X obj 708 196 bng 40 250 50 0 empty empty empty 17 7 0 10 -262144
-1 -1;
#X obj 748 196 bng 40 250 50 0 empty empty empty 17 7 0 10 -262144
-1 -1;
#X obj 788 196 bng 40 250 50 0 empty empty empty 17 7 0 10 -262144
-1 -1;
#X obj 828 196 bng 40 250 50 0 empty empty empty 17 7 0 10 -262144
-1 -1;
#X obj 868 196 bng 40 250 50 0 empty empty empty 17 7 0 10 -262144
-1 -1;
#X obj 908 196 bng 40 250 50 0 empty empty empty 17 7 0 10 -262144
-1 -1;
#X obj 948 196 bng 40 250 50 0 empty empty empty 17 7 0 10 -262144
-1 -1;
#X obj 988 196 bng 40 250 50 0 empty empty empty 17 7 0 10 -262144
-1 -1;
#X obj 1028 196 bng 40 250 50 0 empty empty empty 17 7 0 10 -262144
-1 -1;
#X obj 708 179 s c1_3;
#X obj 748 179 s c2_3;
#X obj 788 179 s c3_3;
#X obj 828 179 s c4_3;
#X obj 868 179 s c5_3;
#X obj 908 179 s c6_3;
#X obj 948 179 s c7_3;
#X obj 988 179 s c8_3;
#X obj 1028 179 s c9_3;
#X obj 708 235 s c1_4;
#X obj 748 235 s c2_4;
#X obj 788 235 s c3_4;
#X obj 828 235 s c4_4;
#X obj 868 235 s c5_4;
#X obj 908 235 s c6_4;
#X obj 948 235 s c7_4;
#X obj 988 235 s c8_4;
#X obj 1028 235 s c9_4;
#X obj 708 252 bng 40 250 50 0 empty empty empty 17 7 0 10 -262144
-1 -1;
#X obj 748 252 bng 40 250 50 0 empty empty empty 17 7 0 10 -262144
-1 -1;
#X obj 788 252 bng 40 250 50 0 empty empty empty 17 7 0 10 -262144
-1 -1;
#X obj 828 252 bng 40 250 50 0 empty empty empty 17 7 0 10 -262144
-1 -1;
#X obj 868 252 bng 40 250 50 0 empty empty empty 17 7 0 10 -262144
-1 -1;
#X obj 908 252 bng 40 250 50 0 empty empty empty 17 7 0 10 -262144
-1 -1;
#X obj 948 252 bng 40 250 50 0 empty empty empty 17 7 0 10 -262144
-1 -1;
#X obj 988 252 bng 40 250 50 0 empty empty empty 17 7 0 10 -262144
-1 -1;
#X obj 1028 252 bng 40 250 50 0 empty empty empty 17 7 0 10 -262144
-1 -1;
#X obj 708 308 bng 40 250 50 0 empty empty empty 17 7 0 10 -262144
-1 -1;
#X obj 748 308 bng 40 250 50 0 empty empty empty 17 7 0 10 -262144
-1 -1;
#X obj 788 308 bng 40 250 50 0 empty empty empty 17 7 0 10 -262144
-1 -1;
#X obj 828 308 bng 40 250 50 0 empty empty empty 17 7 0 10 -262144
-1 -1;
#X obj 868 308 bng 40 250 50 0 empty empty empty 17 7 0 10 -262144
-1 -1;
#X obj 908 308 bng 40 250 50 0 empty empty empty 17 7 0 10 -262144
-1 -1;
#X obj 948 308 bng 40 250 50 0 empty empty empty 17 7 0 10 -262144
-1 -1;
#X obj 988 308 bng 40 250 50 0 empty empty empty 17 7 0 10 -262144
-1 -1;
#X obj 1028 308 bng 40 250 50 0 empty empty empty 17 7 0 10 -262144
-1 -1;
#X obj 708 363 bng 40 250 50 0 empty empty empty 17 7 0 10 -262144
-1 -1;
#X obj 748 363 bng 40 250 50 0 empty empty empty 17 7 0 10 -262144
-1 -1;
#X obj 788 363 bng 40 250 50 0 empty empty empty 17 7 0 10 -262144
-1 -1;
#X obj 828 363 bng 40 250 50 0 empty empty empty 17 7 0 10 -262144
-1 -1;
#X obj 868 363 bng 40 250 50 0 empty empty empty 17 7 0 10 -262144
-1 -1;
#X obj 908 363 bng 40 250 50 0 empty empty empty 17 7 0 10 -262144
-1 -1;
#X obj 948 363 bng 40 250 50 0 empty empty empty 17 7 0 10 -262144
-1 -1;
#X obj 988 363 bng 40 250 50 0 empty empty empty 17 7 0 10 -262144
-1 -1;
#X obj 1028 363 bng 40 250 50 0 empty empty empty 17 7 0 10 -262144
-1 -1;
#X obj 708 419 bng 40 250 50 0 empty empty empty 17 7 0 10 -262144
-1 -1;
#X obj 748 419 bng 40 250 50 0 empty empty empty 17 7 0 10 -262144
-1 -1;
#X obj 788 419 bng 40 250 50 0 empty empty empty 17 7 0 10 -262144
-1 -1;
#X obj 828 419 bng 40 250 50 0 empty empty empty 17 7 0 10 -262144
-1 -1;
#X obj 868 419 bng 40 250 50 0 empty empty empty 17 7 0 10 -262144
-1 -1;
#X obj 908 419 bng 40 250 50 0 empty empty empty 17 7 0 10 -262144
-1 -1;
#X obj 948 419 bng 40 250 50 0 empty empty empty 17 7 0 10 -262144
-1 -1;
#X obj 988 419 bng 40 250 50 0 empty empty empty 17 7 0 10 -262144
-1 -1;
#X obj 1028 419 bng 40 250 50 0 empty empty empty 17 7 0 10 -262144
-1 -1;
#X obj 708 291 s c1_5;
#X obj 748 291 s c2_5;
#X obj 788 291 s c3_5;
#X obj 828 291 s c4_5;
#X obj 868 291 s c5_5;
#X obj 908 291 s c6_5;
#X obj 948 291 s c7_5;
#X obj 988 291 s c8_5;
#X obj 1028 291 s c9_5;
#X obj 1027 347 s c9_6;
#X obj 988 347 s c8_6;
#X obj 948 347 s c7_6;
#X obj 908 347 s c6_6;
#X obj 868 347 s c5_6;
#X obj 828 347 s c4_6;
#X obj 788 347 s c3_6;
#X obj 748 347 s c2_6;
#X obj 708 347 s c1_6;
#X obj 708 402 s c1_7;
#X obj 748 402 s c2_7;
#X obj 788 402 s c3_7;
#X obj 828 402 s c4_7;
#X obj 868 402 s c5_7;
#X obj 908 402 s c6_7;
#X obj 948 402 s c7_7;
#X obj 988 402 s c8_7;
#X obj 1028 402 s c9_7;
#X obj 708 458 s c1_8;
#X obj 748 458 s c2_8;
#X obj 788 458 s c3_8;
#X obj 828 458 s c4_8;
#X obj 868 458 s c5_8;
#X obj 908 458 s c6_8;
#X obj 948 458 s c7_8;
#X obj 988 458 s c8_8;
#X obj 1028 458 s c9_8;
#X obj 708 476 bng 40 250 50 0 empty empty empty 17 7 0 10 -262144
-1 -1;
#X obj 748 476 bng 40 250 50 0 empty empty empty 17 7 0 10 -262144
-1 -1;
#X obj 788 476 bng 40 250 50 0 empty empty empty 17 7 0 10 -262144
-1 -1;
#X obj 828 476 bng 40 250 50 0 empty empty empty 17 7 0 10 -262144
-1 -1;
#X obj 868 476 bng 40 250 50 0 empty empty empty 17 7 0 10 -262144
-1 -1;
#X obj 908 476 bng 40 250 50 0 empty empty empty 17 7 0 10 -262144
-1 -1;
#X obj 948 476 bng 40 250 50 0 empty empty empty 17 7 0 10 -262144
-1 -1;
#X obj 988 476 bng 40 250 50 0 empty empty empty 17 7 0 10 -262144
-1 -1;
#X obj 1028 476 bng 40 250 50 0 empty empty empty 17 7 0 10 -262144
-1 -1;
#X obj 708 515 s c1_9;
#X obj 748 515 s c2_9;
#X obj 788 515 s c3_9;
#X obj 828 515 s c4_9;
#X obj 868 515 s c5_9;
#X obj 908 515 s c6_9;
#X obj 948 515 s c7_9;
#X obj 988 515 s c8_9;
#X obj 1028 515 s c9_9;
#X obj 403 403 t f f;
#X obj 403 512 server;
#X connect 4 0 5 0;
#X connect 11 0 10 0;
#X connect 13 0 14 0;
#X connect 14 0 15 0;
#X connect 14 0 18 0;
#X connect 15 0 14 1;
#X connect 17 0 371 0;
#X connect 18 0 17 0;
#X connect 19 0 18 1;
#X connect 20 0 21 0;
#X connect 21 0 22 0;
#X connect 24 0 25 0;
#X connect 25 0 26 0;
#X connect 27 0 19 0;
#X connect 73 0 72 0;
#X connect 75 0 74 0;
#X connect 80 0 76 0;
#X connect 81 0 77 0;
#X connect 82 0 78 0;
#X connect 83 0 79 0;
#X connect 87 0 84 0;
#X connect 88 0 85 0;
#X connect 89 0 86 0;
#X connect 117 0 28 0;
#X connect 118 0 29 0;
#X connect 119 0 30 0;
#X connect 120 0 31 0;
#X connect 121 0 32 0;
#X connect 122 0 33 0;
#X connect 123 0 34 0;
#X connect 124 0 35 0;
#X connect 125 0 36 0;
#X connect 126 0 37 0;
#X connect 127 0 38 0;
#X connect 128 0 39 0;
#X connect 129 0 40 0;
#X connect 130 0 41 0;
#X connect 131 0 42 0;
#X connect 132 0 43 0;
#X connect 133 0 44 0;
#X connect 134 0 45 0;
#X connect 135 0 46 0;
#X connect 136 0 47 0;
#X connect 137 0 48 0;
#X connect 138 0 49 0;
#X connect 139 0 50 0;
#X connect 140 0 51 0;
#X connect 141 0 52 0;
#X connect 142 0 53 0;
#X connect 143 0 54 0;
#X connect 144 0 55 0;
#X connect 145 0 56 0;
#X connect 146 0 57 0;
#X connect 147 0 58 0;
#X connect 148 0 59 0;
#X connect 149 0 60 0;
#X connect 150 0 61 0;
#X connect 151 0 62 0;
#X connect 152 0 63 0;
#X connect 153 0 71 0;
#X connect 154 0 70 0;
#X connect 155 0 69 0;
#X connect 156 0 68 0;
#X connect 157 0 66 0;
#X connect 158 0 65 0;
#X connect 160 0 159 0;
#X connect 161 0 64 0;
#X connect 162 0 90 0;
#X connect 163 0 91 0;
#X connect 164 0 92 0;
#X connect 165 0 93 0;
#X connect 166 0 94 0;
#X connect 167 0 95 0;
#X connect 168 0 96 0;
#X connect 169 0 97 0;
#X connect 170 0 98 0;
#X connect 171 0 99 0;
#X connect 172 0 100 0;
#X connect 173 0 101 0;
#X connect 174 0 102 0;
#X connect 175 0 103 0;
#X connect 176 0 104 0;
#X connect 177 0 105 0;
#X connect 178 0 106 0;
#X connect 179 0 107 0;
#X connect 180 0 108 0;
#X connect 181 0 109 0;
#X connect 182 0 110 0;
#X connect 183 0 111 0;
#X connect 184 0 112 0;
#X connect 185 0 113 0;
#X connect 186 0 114 0;
#X connect 187 0 115 0;
#X connect 188 0 116 0;
#X connect 189 0 67 0;
#X connect 193 0 196 1;
#X connect 193 0 202 1;
#X connect 195 0 196 0;
#X connect 195 0 206 0;
#X connect 197 0 198 0;
#X connect 201 0 198 1;
#X connect 202 0 205 0;
#X connect 204 0 202 0;
#X connect 206 0 204 0;
#X connect 210 0 209 0;
#X connect 211 0 229 0;
#X connect 212 0 231 0;
#X connect 213 0 233 0;
#X connect 214 0 234 0;
#X connect 215 0 235 0;
#X connect 216 0 236 0;
#X connect 217 0 237 0;
#X connect 218 0 238 0;
#X connect 219 0 228 0;
#X connect 220 0 230 0;
#X connect 221 0 232 0;
#X connect 222 0 239 0;
#X connect 223 0 240 0;
#X connect 224 0 241 0;
#X connect 225 0 242 0;
#X connect 226 0 243 0;
#X connect 227 0 244 0;
#X connect 245 0 263 0;
#X connect 246 0 264 0;
#X connect 247 0 265 0;
#X connect 248 0 266 0;
#X connect 249 0 267 0;
#X connect 250 0 268 0;
#X connect 251 0 269 0;
#X connect 252 0 270 0;
#X connect 253 0 271 0;
#X connect 254 0 272 0;
#X connect 255 0 273 0;
#X connect 256 0 274 0;
#X connect 257 0 275 0;
#X connect 258 0 276 0;
#X connect 259 0 277 0;
#X connect 260 0 278 0;
#X connect 261 0 279 0;
#X connect 262 0 280 0;
#X connect 281 0 317 0;
#X connect 282 0 318 0;
#X connect 283 0 319 0;
#X connect 284 0 320 0;
#X connect 285 0 321 0;
#X connect 286 0 322 0;
#X connect 287 0 323 0;
#X connect 288 0 324 0;
#X connect 289 0 325 0;
#X connect 290 0 334 0;
#X connect 291 0 333 0;
#X connect 292 0 332 0;
#X connect 293 0 331 0;
#X connect 294 0 330 0;
#X connect 295 0 329 0;
#X connect 296 0 328 0;
#X connect 297 0 327 0;
#X connect 298 0 326 0;
#X connect 299 0 335 0;
#X connect 300 0 336 0;
#X connect 301 0 337 0;
#X connect 302 0 338 0;
#X connect 303 0 339 0;
#X connect 304 0 340 0;
#X connect 305 0 341 0;
#X connect 306 0 342 0;
#X connect 307 0 343 0;
#X connect 308 0 344 0;
#X connect 309 0 345 0;
#X connect 310 0 346 0;
#X connect 311 0 347 0;
#X connect 312 0 348 0;
#X connect 313 0 349 0;
#X connect 314 0 350 0;
#X connect 315 0 351 0;
#X connect 316 0 352 0;
#X connect 353 0 362 0;
#X connect 354 0 363 0;
#X connect 355 0 364 0;
#X connect 356 0 365 0;
#X connect 357 0 366 0;
#X connect 358 0 367 0;
#X connect 359 0 368 0;
#X connect 360 0 369 0;
#X connect 361 0 370 0;
#X connect 371 0 20 0;
#X connect 371 1 24 0;
