#N canvas 0 0 1362 689 10;
#X obj -131 3 cnv 15 500 500 empty empty Maze 20 8 1 14 -4032 -66577
0;
#X obj 374 3 cnv 15 100 500 empty empty Control 20 8 1 14 -257985 -66577
0;
#X obj 788 3 cnv 15 300 500 empty empty Communication_Logic 20 8 1
14 -4034 -66577 0;
#X obj 481 3 cnv 15 300 500 empty empty Play_Logic 20 8 1 14 -260097
-66577 0;
#X floatatom 381 42 8 0 0 0 - - -;
#X obj 381 58 s bpm;
#X obj -120 288 bng 15 250 50 0 empty empty empty 17 7 0 10 -262144
-1 -1;
#X obj -120 210 loadbang;
#X msg -120 236 1;
#X msg -86 236 1;
#X obj 113 288 bng 15 250 50 0 empty empty empty 17 7 0 10 -262144
-1 -1;
#X obj 113 210 loadbang;
#X msg 147 236 1;
#X msg 113 236 2;
#X obj -120 341 readsf~;
#X obj -121 367 dac~;
#X obj 113 341 readsf~;
#X obj 112 367 dac~;
#X obj -119 109 bng 15 250 50 0 empty empty empty 17 7 0 10 -262144
-1 -1;
#X obj -119 31 loadbang;
#X obj 114 109 bng 15 250 50 0 empty empty empty 17 7 0 10 -262144
-1 -1;
#X obj 114 30 loadbang;
#X msg 114 57 2;
#X obj -119 162 readsf~;
#X obj -120 188 dac~;
#X obj 114 162 readsf~;
#X obj 113 188 dac~;
#N canvas 758 220 450 300 bpmtobeat 0;
#X obj 70 9 pow -1;
#X obj 70 -15 r bpm;
#X obj 70 26 * 60000;
#X floatatom 70 43 5 0 0 0 - - -;
#X text 121 25 Convert bpm to ms;
#X obj 13 76 bng 15 250 50 0 empty empty empty 17 7 0 10 -262144 -1
-1;
#X obj 13 26 loadbang;
#X obj 13 59 metro 1000;
#X text 83 60 Bang at appropriate bpm;
#X obj 13 91 s beat;
#X connect 0 0 2 0;
#X connect 1 0 0 0;
#X connect 2 0 3 0;
#X connect 3 0 7 1;
#X connect 5 0 9 0;
#X connect 6 0 7 0;
#X connect 7 0 5 0;
#X restore 381 82 pd bpmtobeat;
#X msg 148 57 2;
#X msg -119 57 1;
#X msg -85 57 2;
#X msg -120 314 open sounds/piano_g.wav \, 1;
#X msg 113 314 open sounds/piano_c.wav \, 1;
#X msg -119 135 open sounds/piano_d.wav \, 1;
#X msg 114 135 open sounds/piano_e.wav \, 1;
#X text 794 31 > Read in signal from clients 1-20;
#N canvas 538 319 450 300 client1 0;
#X msg -259 -1977 1;
#X msg -225 -1977 1;
#X obj -259 -2002 bng 15 250 50 0 empty empty empty 17 7 0 10 -262144
-1 -1;
#X obj -257 -1907 r u1x;
#X obj -112 -1907 r u1y;
#X floatatom -257 -1860 5 0 0 0 - - -;
#X floatatom -112 -1860 5 0 0 0 - - -;
#X obj -259 -1960 s u1x;
#X obj -225 -1960 s u1y;
#X obj -184 -2001 bng 15 250 50 0 empty empty empty 17 7 0 10 -262144
-1 -1;
#X obj -184 -1959 s u1x;
#X obj -150 -1959 s u1y;
#X msg -259 -2047 1;
#X obj -259 -2072 bng 15 250 50 0 empty empty empty 17 7 0 10 -262144
-1 -1;
#X obj -259 -2030 s u1x;
#X obj -225 -2030 s u1y;
#X obj -183 -2072 bng 15 250 50 0 empty empty empty 17 7 0 10 -262144
-1 -1;
#X obj -183 -2030 s u1x;
#X obj -149 -2030 s u1y;
#X msg -225 -2047 2;
#X msg -183 -2047 2;
#X msg -149 -2047 2;
#X msg -184 -1976 2;
#X msg -150 -1976 1;
#X connect 0 0 7 0;
#X connect 1 0 8 0;
#X connect 2 0 0 0;
#X connect 2 0 1 0;
#X connect 3 0 5 0;
#X connect 4 0 6 0;
#X connect 9 0 22 0;
#X connect 9 0 23 0;
#X connect 12 0 14 0;
#X connect 13 0 12 0;
#X connect 13 0 19 0;
#X connect 16 0 21 0;
#X connect 16 0 20 0;
#X connect 19 0 15 0;
#X connect 20 0 17 0;
#X connect 21 0 18 0;
#X connect 22 0 10 0;
#X connect 23 0 11 0;
#X restore 808 58 pd client1;
#N canvas 0 0 450 300 (subpatch) 0;
#X array client1_x 100 float 3;
#A 0 1 2 1 0 0 0 0 0 0 0 0 0 0 0 0 0 0 0 0 0 0 0 0 0 0 0 0 0 0 0 0
0 0 0 0 0 0 0 0 0 0 0 0 0 0 0 0 0 0 0 0 0 0 0 0 0 0 0 0 0 0 0 0 0 0
0 0 0 0 0 0 0 0 0 0 0 0 0 0 0 0 0 0 0 0 0 0 0 0 0 0 0 0 0 0 0 0 0 0
0;
#X coords 0 17 99 0 100 40 1 0 0;
#X restore -110 548 graph;
#X obj -131 510 cnv 15 1220 150 empty empty Client_Signals 20 8 1 14
-261234 -66577 0;
#N canvas 0 0 450 300 (subpatch) 0;
#X array client1_y 100 float 3;
#A 0 2 2 1 0 0 0 0 0 0 0 0 0 0 0 0 0 0 0 0 0 0 0 0 0 0 0 0 0 0 0 0
0 0 0 0 0 0 0 0 0 0 0 0 0 0 0 0 0 0 0 0 0 0 0 0 0 0 0 0 0 0 0 0 0 0
0 0 0 0 0 0 0 0 0 0 0 0 0 0 0 0 0 0 0 0 0 0 0 0 0 0 0 0 0 0 0 0 0 0
0;
#X coords 0 17 99 0 100 40 1 0 0;
#X restore -110 611 graph;
#N canvas 159 287 450 300 reset 0;
#X obj 91 18 loadbang;
#X obj 19 18 inlet;
#X msg 19 51 \; client1_x const 0 \; client1_y const 0 \;;
#X obj 162 76 s c1len;
#X msg 162 53 0;
#X connect 0 0 2 0;
#X connect 0 0 4 0;
#X connect 1 0 2 0;
#X connect 1 0 4 0;
#X connect 4 0 3 0;
#X restore 385 152 pd reset;
#X obj 385 137 bng 15 250 50 0 empty empty empty 17 7 0 10 -262144
-1 -1;
#X text 384 22 Monitor BPM;
#X obj 501 34 r beat;
#X obj 501 57 f;
#X obj 535 57 + 1;
#X text 568 57 Increment index on beat;
#X floatatom 501 123 5 0 0 0 - - -;
#X obj 501 94 % 10;
#X floatatom 535 78 5 0 0 0 - - -;
#X obj 501 148 tabread client1_x;
#X floatatom 501 177 5 0 0 0 - - -;
#X obj 501 205 s c1x;
#X text 554 95 Contrain to array bounds;
#X obj 620 148 tabread client1_y;
#X floatatom 620 177 5 0 0 0 - - -;
#X obj 620 205 s c1y;
#X text 383 106 Reset client signals;
#X obj 575 78 r c1len;
#X obj 909 183 r c1len;
#X text 802 99 Write signals to corresponding arrays;
#X obj 804 183 r u1y;
#X obj 804 310 tabwrite client1_y;
#X obj 804 123 r u1x;
#X obj 804 153 tabwrite client1_x;
#X text 920 153 write x value;
#X text 921 308 write y value;
#X obj 909 123 r c1len;
#X obj 847 262 + 1;
#X text 898 284 Update array length;
#X msg 847 239 1;
#X obj 847 285 s c1len;
#X obj 822 210 delay 1;
#N canvas 908 0 450 300 filter 0;
#X obj -8 29 inlet;
#X obj 136 29 inlet;
#X text 31 28 x coordinate;
#X text 176 28 y coordinate;
#X obj -23 86 ==;
#X obj 121 86 ==;
#X floatatom -77 82 5 0 0 0 - - -;
#X floatatom 55 86 5 0 0 0 - - -;
#X floatatom 2 57 5 0 0 0 - - -;
#X floatatom 171 61 5 0 0 0 - - -;
#X text -91 4 Filters the bang based on selected input;
#X obj -69 53 r c1x;
#X obj 74 53 r c1y;
#X obj 1 171 sel 1;
#X obj 1 199 outlet;
#X obj 1 145 &&;
#X floatatom -66 110 5 0 0 0 - - -;
#X floatatom 81 111 5 0 0 0 - - -;
#X text 40 145 Race condition \, might be a problem later on;
#X connect 0 0 4 1;
#X connect 0 0 8 0;
#X connect 1 0 5 1;
#X connect 1 0 9 0;
#X connect 4 0 16 0;
#X connect 5 0 17 0;
#X connect 11 0 4 0;
#X connect 11 0 6 0;
#X connect 12 0 5 0;
#X connect 12 0 7 0;
#X connect 13 0 14 0;
#X connect 15 0 13 0;
#X connect 16 0 15 1;
#X connect 17 0 15 0;
#X restore -119 83 pd filter;
#N canvas 908 0 450 300 filter 0;
#X obj -8 29 inlet;
#X obj 136 29 inlet;
#X text 31 28 x coordinate;
#X text 176 28 y coordinate;
#X obj -23 86 ==;
#X obj 121 86 ==;
#X floatatom -77 82 5 0 0 0 - - -;
#X floatatom 55 86 5 0 0 0 - - -;
#X floatatom 2 57 5 0 0 0 - - -;
#X floatatom 171 61 5 0 0 0 - - -;
#X text -91 4 Filters the bang based on selected input;
#X obj -69 53 r c1x;
#X obj 74 53 r c1y;
#X obj 1 171 sel 1;
#X obj 1 199 outlet;
#X obj 1 145 &&;
#X floatatom -66 110 5 0 0 0 - - -;
#X floatatom 81 111 5 0 0 0 - - -;
#X text 40 145 Race condition \, might be a problem later on;
#X connect 0 0 4 1;
#X connect 0 0 8 0;
#X connect 1 0 5 1;
#X connect 1 0 9 0;
#X connect 4 0 16 0;
#X connect 5 0 17 0;
#X connect 11 0 4 0;
#X connect 11 0 6 0;
#X connect 12 0 5 0;
#X connect 12 0 7 0;
#X connect 13 0 14 0;
#X connect 15 0 13 0;
#X connect 16 0 15 1;
#X connect 17 0 15 0;
#X restore 114 82 pd filter;
#N canvas 908 0 450 300 filter 0;
#X obj -8 29 inlet;
#X obj 136 29 inlet;
#X text 31 28 x coordinate;
#X text 176 28 y coordinate;
#X obj -23 86 ==;
#X obj 121 86 ==;
#X floatatom -77 82 5 0 0 0 - - -;
#X floatatom 55 86 5 0 0 0 - - -;
#X floatatom 2 57 5 0 0 0 - - -;
#X floatatom 171 61 5 0 0 0 - - -;
#X text -91 4 Filters the bang based on selected input;
#X obj -69 53 r c1x;
#X obj 74 53 r c1y;
#X obj 1 171 sel 1;
#X obj 1 199 outlet;
#X obj 1 145 &&;
#X floatatom -66 110 5 0 0 0 - - -;
#X floatatom 81 111 5 0 0 0 - - -;
#X text 40 145 Race condition \, might be a problem later on;
#X connect 0 0 4 1;
#X connect 0 0 8 0;
#X connect 1 0 5 1;
#X connect 1 0 9 0;
#X connect 4 0 16 0;
#X connect 5 0 17 0;
#X connect 11 0 4 0;
#X connect 11 0 6 0;
#X connect 12 0 5 0;
#X connect 12 0 7 0;
#X connect 13 0 14 0;
#X connect 15 0 13 0;
#X connect 16 0 15 1;
#X connect 17 0 15 0;
#X restore -120 262 pd filter;
#N canvas 908 0 450 300 filter 0;
#X obj -8 29 inlet;
#X obj 136 29 inlet;
#X text 31 28 x coordinate;
#X text 176 28 y coordinate;
#X obj -23 86 ==;
#X obj 121 86 ==;
#X floatatom -77 82 5 0 0 0 - - -;
#X floatatom 55 86 5 0 0 0 - - -;
#X floatatom 2 57 5 0 0 0 - - -;
#X floatatom 171 61 5 0 0 0 - - -;
#X text -91 4 Filters the bang based on selected input;
#X obj -69 53 r c1x;
#X obj 74 53 r c1y;
#X obj 1 171 sel 1;
#X obj 1 199 outlet;
#X obj 1 145 &&;
#X floatatom -66 110 5 0 0 0 - - -;
#X floatatom 81 111 5 0 0 0 - - -;
#X text 40 145 Race condition \, might be a problem later on;
#X connect 0 0 4 1;
#X connect 0 0 8 0;
#X connect 1 0 5 1;
#X connect 1 0 9 0;
#X connect 4 0 16 0;
#X connect 5 0 17 0;
#X connect 11 0 4 0;
#X connect 11 0 6 0;
#X connect 12 0 5 0;
#X connect 12 0 7 0;
#X connect 13 0 14 0;
#X connect 15 0 13 0;
#X connect 16 0 15 1;
#X connect 17 0 15 0;
#X restore 113 263 pd filter;
#X connect 4 0 5 0;
#X connect 6 0 31 0;
#X connect 7 0 8 0;
#X connect 7 0 9 0;
#X connect 8 0 75 0;
#X connect 9 0 75 1;
#X connect 10 0 32 0;
#X connect 11 0 13 0;
#X connect 11 0 12 0;
#X connect 12 0 76 1;
#X connect 13 0 76 0;
#X connect 14 0 15 0;
#X connect 14 0 15 1;
#X connect 16 0 17 0;
#X connect 16 0 17 1;
#X connect 18 0 33 0;
#X connect 19 0 29 0;
#X connect 19 0 30 0;
#X connect 20 0 34 0;
#X connect 21 0 22 0;
#X connect 21 0 28 0;
#X connect 22 0 74 0;
#X connect 23 0 24 0;
#X connect 23 0 24 1;
#X connect 25 0 26 0;
#X connect 25 0 26 1;
#X connect 28 0 74 1;
#X connect 29 0 73 0;
#X connect 30 0 73 1;
#X connect 31 0 14 0;
#X connect 32 0 16 0;
#X connect 33 0 23 0;
#X connect 34 0 25 0;
#X connect 41 0 40 0;
#X connect 43 0 44 0;
#X connect 44 0 45 0;
#X connect 44 0 48 0;
#X connect 45 0 44 1;
#X connect 47 0 50 0;
#X connect 47 0 54 0;
#X connect 48 0 47 0;
#X connect 49 0 48 1;
#X connect 50 0 51 0;
#X connect 51 0 52 0;
#X connect 54 0 55 0;
#X connect 55 0 56 0;
#X connect 58 0 49 0;
#X connect 59 0 62 1;
#X connect 59 0 68 1;
#X connect 61 0 62 0;
#X connect 61 0 72 0;
#X connect 63 0 64 0;
#X connect 67 0 64 1;
#X connect 68 0 71 0;
#X connect 70 0 68 0;
#X connect 72 0 70 0;
#X connect 73 0 18 0;
#X connect 74 0 20 0;
#X connect 75 0 6 0;
#X connect 76 0 10 0;
