#N canvas 0 0 1354 689 10;
#X obj -138 -34 cnv 15 400 540 empty empty Maze 20 8 1 14 -4032 -66577
0;
#X obj 267 -35 cnv 15 100 540 empty empty Control 20 8 1 14 -257985
-66577 0;
#X floatatom 274 4 8 0 0 0 - - -;
#X obj 274 20 s bpm;
#N canvas 249 161 450 285 bpmtobeat 0;
#X obj 70 9 pow -1;
#X obj 70 -15 r bpm;
#X obj 70 26 * 60000;
#X floatatom 70 44 5 0 0 0 - - -;
#X text 121 25 Convert bpm to ms;
#X obj 13 76 bng 15 250 50 0 empty empty empty 17 7 0 10 -262144 -1
-1;
#X obj 13 26 loadbang;
#X text 83 60 Bang at appropriate bpm;
#X obj 13 91 s beat;
#X obj 13 59 metro 1000;
#X connect 0 0 2 0;
#X connect 1 0 0 0;
#X connect 2 0 3 0;
#X connect 3 0 9 1;
#X connect 5 0 8 0;
#X connect 6 0 9 0;
#X connect 9 0 5 0;
#X restore 274 44 pd bpmtobeat;
#X text 277 -16 Monitor BPM;
#X obj -119 3 bng 40 250 50 0 empty empty empty 17 7 0 10 -262144 -1
-1;
#X obj -79 3 bng 40 250 50 0 empty empty empty 17 7 0 10 -262144 -1
-1;
#X obj -39 3 bng 40 250 50 0 empty empty empty 17 7 0 10 -262144 -1
-1;
#X obj 1 3 bng 40 250 50 0 empty empty empty 17 7 0 10 -262144 -1 -1
;
#X obj 41 3 bng 40 250 50 0 empty empty empty 17 7 0 10 -262144 -1
-1;
#X obj 81 3 bng 40 250 50 0 empty empty empty 17 7 0 10 -262144 -1
-1;
#X obj 121 3 bng 40 250 50 0 empty empty empty 17 7 0 10 -262144 -1
-1;
#X obj 161 3 bng 40 250 50 0 empty empty empty 17 7 0 10 -262144 -1
-1;
#X obj 201 3 bng 40 250 50 0 empty empty empty 17 7 0 10 -262144 -1
-1;
#X obj -119 60 bng 40 250 50 0 empty empty empty 17 7 0 10 -262144
-1 -1;
#X obj -79 60 bng 40 250 50 0 empty empty empty 17 7 0 10 -262144 -1
-1;
#X obj -39 60 bng 40 250 50 0 empty empty empty 17 7 0 10 -262144 -1
-1;
#X obj 1 60 bng 40 250 50 0 empty empty empty 17 7 0 10 -262144 -1
-1;
#X obj 41 60 bng 40 250 50 0 empty empty empty 17 7 0 10 -262144 -1
-1;
#X obj 81 60 bng 40 250 50 0 empty empty empty 17 7 0 10 -262144 -1
-1;
#X obj 121 60 bng 40 250 50 0 empty empty empty 17 7 0 10 -262144 -1
-1;
#X obj 161 60 bng 40 250 50 0 empty empty empty 17 7 0 10 -262144 -1
-1;
#X obj 201 60 bng 40 250 50 0 empty empty empty 17 7 0 10 -262144 -1
-1;
#X obj -119 117 bng 40 250 50 0 empty empty empty 17 7 0 10 -262144
-1 -1;
#X obj -79 117 bng 40 250 50 0 empty empty empty 17 7 0 10 -262144
-1 -1;
#X obj -39 117 bng 40 250 50 0 empty empty empty 17 7 0 10 -262144
-1 -1;
#X obj 1 117 bng 40 250 50 0 empty empty empty 17 7 0 10 -262144 -1
-1;
#X obj 41 117 bng 40 250 50 0 empty empty empty 17 7 0 10 -262144 -1
-1;
#X obj 81 117 bng 40 250 50 0 empty empty empty 17 7 0 10 -262144 -1
-1;
#X obj 121 117 bng 40 250 50 0 empty empty empty 17 7 0 10 -262144
-1 -1;
#X obj 161 117 bng 40 250 50 0 empty empty empty 17 7 0 10 -262144
-1 -1;
#X obj 201 117 bng 40 250 50 0 empty empty empty 17 7 0 10 -262144
-1 -1;
#X obj -119 174 bng 40 250 50 0 empty empty empty 17 7 0 10 -262144
-1 -1;
#X obj -79 174 bng 40 250 50 0 empty empty empty 17 7 0 10 -262144
-1 -1;
#X obj -39 174 bng 40 250 50 0 empty empty empty 17 7 0 10 -262144
-1 -1;
#X obj 1 174 bng 40 250 50 0 empty empty empty 17 7 0 10 -262144 -1
-1;
#X obj 41 174 bng 40 250 50 0 empty empty empty 17 7 0 10 -262144 -1
-1;
#X obj 81 174 bng 40 250 50 0 empty empty empty 17 7 0 10 -262144 -1
-1;
#X obj 121 174 bng 40 250 50 0 empty empty empty 17 7 0 10 -262144
-1 -1;
#X obj 161 174 bng 40 250 50 0 empty empty empty 17 7 0 10 -262144
-1 -1;
#X obj 201 174 bng 40 250 50 0 empty empty empty 17 7 0 10 -262144
-1 -1;
#X obj -119 231 bng 40 250 50 0 empty empty empty 17 7 0 10 -262144
-1 -1;
#X obj -39 231 bng 40 250 50 0 empty empty empty 17 7 0 10 -262144
-1 -1;
#X obj 1 231 bng 40 250 50 0 empty empty empty 17 7 0 10 -262144 -1
-1;
#X obj 41 231 bng 40 250 50 0 empty empty empty 17 7 0 10 -262144 -1
-1;
#X obj 81 231 bng 40 250 50 0 empty empty empty 17 7 0 10 -262144 -1
-1;
#X obj 121 231 bng 40 250 50 0 empty empty empty 17 7 0 10 -262144
-1 -1;
#X obj 161 231 bng 40 250 50 0 empty empty empty 17 7 0 10 -262144
-1 -1;
#X obj 201 231 bng 40 250 50 0 empty empty empty 17 7 0 10 -262144
-1 -1;
#X obj -119 288 bng 40 250 50 0 empty empty empty 17 7 0 10 -262144
-1 -1;
#X obj -119 271 r g1_6;
#X obj -79 288 bng 40 250 50 0 empty empty empty 17 7 0 10 -262144
-1 -1;
#X obj -79 271 r g2_6;
#X obj -39 288 bng 40 250 50 0 empty empty empty 17 7 0 10 -262144
-1 -1;
#X obj 1 288 bng 40 250 50 0 empty empty empty 17 7 0 10 -262144 -1
-1;
#X obj 41 288 bng 40 250 50 0 empty empty empty 17 7 0 10 -262144 -1
-1;
#X obj 81 288 bng 40 250 50 0 empty empty empty 17 7 0 10 -262144 -1
-1;
#X obj -39 271 r g3_6;
#X obj 1 271 r g4_6;
#X obj 41 271 r g5_6;
#X obj 81 271 r g6_6;
#X obj 121 288 bng 40 250 50 0 empty empty empty 17 7 0 10 -262144
-1 -1;
#X obj 161 288 bng 40 250 50 0 empty empty empty 17 7 0 10 -262144
-1 -1;
#X obj 201 288 bng 40 250 50 0 empty empty empty 17 7 0 10 -262144
-1 -1;
#X obj 121 271 r g7_6;
#X obj 161 271 r g8_6;
#X obj 201 271 r g9_6;
#X obj -119 345 bng 40 250 50 0 empty empty empty 17 7 0 10 -262144
-1 -1;
#X obj -79 345 bng 40 250 50 0 empty empty empty 17 7 0 10 -262144
-1 -1;
#X obj -39 345 bng 40 250 50 0 empty empty empty 17 7 0 10 -262144
-1 -1;
#X obj 1 345 bng 40 250 50 0 empty empty empty 17 7 0 10 -262144 -1
-1;
#X obj 41 345 bng 40 250 50 0 empty empty empty 17 7 0 10 -262144 -1
-1;
#X obj 81 345 bng 40 250 50 0 empty empty empty 17 7 0 10 -262144 -1
-1;
#X obj 121 345 bng 40 250 50 0 empty empty empty 17 7 0 10 -262144
-1 -1;
#X obj 161 345 bng 40 250 50 0 empty empty empty 17 7 0 10 -262144
-1 -1;
#X obj 201 345 bng 40 250 50 0 empty empty empty 17 7 0 10 -262144
-1 -1;
#X obj -119 402 bng 40 250 50 0 empty empty empty 17 7 0 10 -262144
-1 -1;
#X obj -79 402 bng 40 250 50 0 empty empty empty 17 7 0 10 -262144
-1 -1;
#X obj -39 402 bng 40 250 50 0 empty empty empty 17 7 0 10 -262144
-1 -1;
#X obj 1 402 bng 40 250 50 0 empty empty empty 17 7 0 10 -262144 -1
-1;
#X obj 41 402 bng 40 250 50 0 empty empty empty 17 7 0 10 -262144 -1
-1;
#X obj 81 402 bng 40 250 50 0 empty empty empty 17 7 0 10 -262144 -1
-1;
#X obj 121 402 bng 40 250 50 0 empty empty empty 17 7 0 10 -262144
-1 -1;
#X obj 161 402 bng 40 250 50 0 empty empty empty 17 7 0 10 -262144
-1 -1;
#X obj 201 402 bng 40 250 50 0 empty empty empty 17 7 0 10 -262144
-1 -1;
#X obj -119 459 bng 40 250 50 0 empty empty empty 17 7 0 10 -262144
-1 -1;
#X obj -79 459 bng 40 250 50 0 empty empty empty 17 7 0 10 -262144
-1 -1;
#X obj -39 459 bng 40 250 50 0 empty empty empty 17 7 0 10 -262144
-1 -1;
#X obj 1 459 bng 40 250 50 0 empty empty empty 17 7 0 10 -262144 -1
-1;
#X obj 41 459 bng 40 250 50 0 empty empty empty 17 7 0 10 -262144 -1
-1;
#X obj 81 459 bng 40 250 50 0 empty empty empty 17 7 0 10 -262144 -1
-1;
#X obj 121 459 bng 40 250 50 0 empty empty empty 17 7 0 10 -262144
-1 -1;
#X obj 161 459 bng 40 250 50 0 empty empty empty 17 7 0 10 -262144
-1 -1;
#X obj 201 459 bng 40 250 50 0 empty empty empty 17 7 0 10 -262144
-1 -1;
#X obj -119 -14 r g1_1;
#X obj -79 -14 r g2_1;
#X obj -39 -14 r g3_1;
#X obj 1 -14 r g4_1;
#X obj 41 -14 r g5_1;
#X obj 81 -14 r g6_1;
#X obj 121 -14 r g7_1;
#X obj 161 -14 r g8_1;
#X obj 201 -14 r g9_1;
#X obj -119 43 r g1_2;
#X obj -79 43 r g2_2;
#X obj -39 43 r g3_2;
#X obj 1 43 r g4_2;
#X obj 41 43 r g5_2;
#X obj 81 43 r g6_2;
#X obj 121 43 r g7_2;
#X obj 161 43 r g8_2;
#X obj 201 43 r g9_2;
#X obj -119 100 r g1_3;
#X obj -79 100 r g2_3;
#X obj -39 100 r g3_3;
#X obj 1 100 r g4_3;
#X obj 41 100 r g5_3;
#X obj 81 100 r g6_3;
#X obj 121 100 r g7_3;
#X obj 161 100 r g8_3;
#X obj 201 100 r g9_3;
#X obj -119 157 r g1_4;
#X obj -79 157 r g2_4;
#X obj -39 157 r g3_4;
#X obj 1 157 r g4_4;
#X obj 41 157 r g5_4;
#X obj 81 157 r g6_4;
#X obj 121 157 r g7_4;
#X obj 161 157 r g8_4;
#X obj 201 157 r g9_4;
#X obj 201 214 r g9_5;
#X obj 161 214 r g8_5;
#X obj 121 214 r g7_5;
#X obj 81 214 r g6_5;
#X obj 1 214 r g4_5;
#X obj -39 214 r g3_5;
#X obj -79 231 bng 40 250 50 0 empty empty empty 17 7 0 10 -262144
-1 -1;
#X obj -79 214 r g2_5;
#X obj -119 214 r g1_5;
#X obj -119 328 r g1_7;
#X obj -79 328 r g2_7;
#X obj -39 328 r g3_7;
#X obj 1 328 r g4_7;
#X obj 41 328 r g5_7;
#X obj 81 328 r g6_7;
#X obj 121 328 r g7_7;
#X obj 161 328 r g8_7;
#X obj 201 328 r g9_7;
#X obj -119 385 r g1_8;
#X obj -79 385 r g2_8;
#X obj -39 385 r g3_8;
#X obj 1 385 r g4_8;
#X obj 41 385 r g5_8;
#X obj 81 385 r g6_8;
#X obj 121 385 r g7_8;
#X obj 161 385 r g8_8;
#X obj 201 385 r g9_8;
#X obj -119 442 r g1_9;
#X obj -79 442 r g2_9;
#X obj -39 442 r g3_9;
#X obj 1 442 r g4_9;
#X obj 41 442 r g5_9;
#X obj 81 442 r g6_9;
#X obj 121 442 r g7_9;
#X obj 161 442 r g8_9;
#X obj 201 442 r g9_9;
#X obj 41 214 r g5_5;
#X obj 277 88 vsl 15 128 0 1 0 0 vol empty Volume 0 -9 1 10 -262144
-1 -1 0 1;
#X obj 371 -35 cnv 15 100 540 empty empty Sessions 20 8 1 14 -204786
-66577 0;
#X obj 392 9 session1;
#X obj 395 -14 comm_in;
#X obj 392 79 session4;
#X obj 392 102 session5;
#X obj 396 125 server;
#X obj 392 32 session2;
#X obj 392 56 session3;
#X connect 2 0 3 0;
#X connect 51 0 50 0;
#X connect 53 0 52 0;
#X connect 58 0 54 0;
#X connect 59 0 55 0;
#X connect 60 0 56 0;
#X connect 61 0 57 0;
#X connect 65 0 62 0;
#X connect 66 0 63 0;
#X connect 67 0 64 0;
#X connect 95 0 6 0;
#X connect 96 0 7 0;
#X connect 97 0 8 0;
#X connect 98 0 9 0;
#X connect 99 0 10 0;
#X connect 100 0 11 0;
#X connect 101 0 12 0;
#X connect 102 0 13 0;
#X connect 103 0 14 0;
#X connect 104 0 15 0;
#X connect 105 0 16 0;
#X connect 106 0 17 0;
#X connect 107 0 18 0;
#X connect 108 0 19 0;
#X connect 109 0 20 0;
#X connect 110 0 21 0;
#X connect 111 0 22 0;
#X connect 112 0 23 0;
#X connect 113 0 24 0;
#X connect 114 0 25 0;
#X connect 115 0 26 0;
#X connect 116 0 27 0;
#X connect 117 0 28 0;
#X connect 118 0 29 0;
#X connect 119 0 30 0;
#X connect 120 0 31 0;
#X connect 121 0 32 0;
#X connect 122 0 33 0;
#X connect 123 0 34 0;
#X connect 124 0 35 0;
#X connect 125 0 36 0;
#X connect 126 0 37 0;
#X connect 127 0 38 0;
#X connect 128 0 39 0;
#X connect 129 0 40 0;
#X connect 130 0 41 0;
#X connect 131 0 49 0;
#X connect 132 0 48 0;
#X connect 133 0 47 0;
#X connect 134 0 46 0;
#X connect 135 0 44 0;
#X connect 136 0 43 0;
#X connect 138 0 137 0;
#X connect 139 0 42 0;
#X connect 140 0 68 0;
#X connect 141 0 69 0;
#X connect 142 0 70 0;
#X connect 143 0 71 0;
#X connect 144 0 72 0;
#X connect 145 0 73 0;
#X connect 146 0 74 0;
#X connect 147 0 75 0;
#X connect 148 0 76 0;
#X connect 149 0 77 0;
#X connect 150 0 78 0;
#X connect 151 0 79 0;
#X connect 152 0 80 0;
#X connect 153 0 81 0;
#X connect 154 0 82 0;
#X connect 155 0 83 0;
#X connect 156 0 84 0;
#X connect 157 0 85 0;
#X connect 158 0 86 0;
#X connect 159 0 87 0;
#X connect 160 0 88 0;
#X connect 161 0 89 0;
#X connect 162 0 90 0;
#X connect 163 0 91 0;
#X connect 164 0 92 0;
#X connect 165 0 93 0;
#X connect 166 0 94 0;
#X connect 167 0 45 0;
