#N canvas 657 193 1230 747 10;
#X obj 111 229 rotate 0 0 0 0;
#X obj 106 294 square 0.44;
#X obj 39 98 color 0.69 0.85 0.96;
#X floatatom 184 114 5 0 0 0 - - -;
#X floatatom 242 143 5 0 0 0 - - -;
#X obj 79 174 translate 0 0.89 0 0;
#X obj 77 139 translate 0 0 0.89 0;
#X obj 261 76 - 5;
#X obj 180 23 * -1;
#X obj 182 67 + 5;
#X obj 93 -16 inlet;
#X obj 189 -12 inlet;
#X obj 253 32 inlet;
#X obj 36 59 gemhead 50;
#X obj 322 466 rotate 0 0 0 0;
#X obj 250 335 color 0.69 0.85 0.96;
#X floatatom 395 351 5 0 0 0 - - -;
#X floatatom 453 380 5 0 0 0 - - -;
#X obj 290 411 translate 0 0.89 0 0;
#X obj 288 376 translate 0 0 0.89 0;
#X obj 391 260 * -1;
#X obj 393 304 + 5;
#X obj 472 313 - 5;
#X obj 317 531 square 0.24;
#X obj 247 296 gemhead 40;
#X obj 385 170 inlet;
#X obj 491 211 inlet;
#X obj 437 530 circle 0.24;
#X connect 0 0 1 0;
#X connect 2 0 6 0;
#X connect 3 0 6 1;
#X connect 4 0 5 1;
#X connect 5 0 0 0;
#X connect 6 0 5 0;
#X connect 7 0 4 0;
#X connect 8 0 9 0;
#X connect 9 0 3 0;
#X connect 10 0 2 1;
#X connect 10 0 15 1;
#X connect 11 0 8 0;
#X connect 12 0 7 0;
#X connect 13 0 2 0;
#X connect 14 0 27 0;
#X connect 15 0 19 0;
#X connect 16 0 19 1;
#X connect 17 0 18 1;
#X connect 18 0 14 0;
#X connect 19 0 18 0;
#X connect 20 0 21 0;
#X connect 21 0 16 0;
#X connect 22 0 17 0;
#X connect 24 0 15 0;
#X connect 25 0 20 0;
#X connect 26 0 22 0;
