#N canvas 0 0 1362 689 10;
#X obj 846 1047 loadbang;
#X obj 677 1047 loadbang;
#X obj 677 1145 readsf~;
#X obj 846 1117 s g5_5;
#X msg 677 1064 4;
#X msg 711 1064 5;
#X obj 729 1145 s g4_5;
#X text 2 5 This is where all the inputs come in and sounds being played.
Bangs are then sent out to be viewed on master;
#X obj 677 1187 *~;
#X obj 727 1170 r vol;
#X obj 676 1223 dac~;
#X obj 512 1047 loadbang;
#X obj 512 1145 readsf~;
#X msg 546 1064 5;
#X obj 512 1187 *~;
#X obj 562 1170 r vol;
#X obj 511 1223 dac~;
#X msg 512 1064 3;
#X obj 564 1145 s g3_5;
#X obj 347 1047 loadbang;
#X obj 347 1145 readsf~;
#X msg 381 1064 5;
#X obj 347 1187 *~;
#X obj 397 1170 r vol;
#X obj 346 1223 dac~;
#X obj 182 1047 loadbang;
#X obj 182 1145 readsf~;
#X msg 216 1064 5;
#X obj 182 1187 *~;
#X obj 232 1170 r vol;
#X obj 181 1223 dac~;
#X msg 347 1064 2;
#X msg 182 1064 1;
#X obj 234 1145 s g1_5;
#X obj 399 1145 s g2_5;
#X obj 677 846 loadbang;
#X obj 677 944 readsf~;
#X msg 677 863 4;
#X obj 677 986 *~;
#X obj 727 969 r vol;
#X obj 676 1022 dac~;
#X obj 512 846 loadbang;
#X obj 512 944 readsf~;
#X obj 512 986 *~;
#X obj 562 969 r vol;
#X obj 511 1022 dac~;
#X msg 512 863 3;
#X obj 347 846 loadbang;
#X obj 347 944 readsf~;
#X obj 347 986 *~;
#X obj 397 969 r vol;
#X obj 346 1022 dac~;
#X obj 182 846 loadbang;
#X obj 182 944 readsf~;
#X obj 182 986 *~;
#X obj 232 969 r vol;
#X obj 181 1022 dac~;
#X msg 347 863 2;
#X msg 182 863 1;
#X msg 216 863 4;
#X msg 381 863 4;
#X msg 545 863 4;
#X msg 711 863 4;
#X obj 729 944 s g4_4;
#X obj 564 944 s g3_4;
#X obj 399 944 s g2_4;
#X obj 234 944 s g1_4;
#X obj 677 645 loadbang;
#X obj 677 743 readsf~;
#X msg 677 662 4;
#X obj 677 785 *~;
#X obj 727 768 r vol;
#X obj 676 821 dac~;
#X obj 512 645 loadbang;
#X obj 512 743 readsf~;
#X obj 512 785 *~;
#X obj 562 768 r vol;
#X obj 511 821 dac~;
#X msg 512 662 3;
#X obj 347 645 loadbang;
#X obj 347 743 readsf~;
#X obj 347 785 *~;
#X obj 397 768 r vol;
#X obj 346 821 dac~;
#X obj 182 645 loadbang;
#X obj 182 743 readsf~;
#X obj 182 785 *~;
#X obj 232 768 r vol;
#X obj 181 821 dac~;
#X msg 347 662 2;
#X msg 182 662 1;
#X obj 677 444 loadbang;
#X obj 677 542 readsf~;
#X msg 677 461 4;
#X obj 677 584 *~;
#X obj 727 567 r vol;
#X obj 676 620 dac~;
#X obj 512 444 loadbang;
#X obj 512 542 readsf~;
#X obj 512 584 *~;
#X obj 562 567 r vol;
#X obj 511 620 dac~;
#X msg 512 461 3;
#X obj 347 444 loadbang;
#X obj 347 542 readsf~;
#X obj 347 584 *~;
#X obj 397 567 r vol;
#X obj 346 620 dac~;
#X obj 182 444 loadbang;
#X obj 182 542 readsf~;
#X obj 182 584 *~;
#X obj 232 567 r vol;
#X obj 181 620 dac~;
#X msg 347 461 2;
#X msg 182 461 1;
#X msg 216 662 3;
#X msg 381 662 3;
#X msg 545 662 3;
#X msg 711 662 3;
#X obj 234 743 s g1_3;
#X obj 399 743 s g2_3;
#X obj 564 743 s g3_3;
#X obj 729 743 s g4_3;
#X msg 216 461 2;
#X msg 381 461 2;
#X msg 545 461 2;
#X msg 711 461 2;
#X obj 234 542 s g1_2;
#X obj 399 542 s g2_2;
#X obj 564 542 s g3_2;
#X obj 729 542 s g4_2;
#X obj 678 243 loadbang;
#X obj 678 341 readsf~;
#X msg 678 260 4;
#X obj 678 383 *~;
#X obj 728 366 r vol;
#X obj 677 419 dac~;
#X obj 513 243 loadbang;
#X obj 513 341 readsf~;
#X obj 513 383 *~;
#X obj 563 366 r vol;
#X obj 512 419 dac~;
#X msg 513 260 3;
#X obj 348 243 loadbang;
#X obj 348 341 readsf~;
#X obj 348 383 *~;
#X obj 398 366 r vol;
#X obj 347 419 dac~;
#X obj 183 243 loadbang;
#X obj 183 341 readsf~;
#X obj 183 383 *~;
#X obj 233 366 r vol;
#X obj 182 419 dac~;
#X msg 348 260 2;
#X msg 183 260 1;
#X msg 216 260 1;
#X msg 382 260 1;
#X msg 546 260 1;
#X msg 712 260 1;
#X obj 235 341 s g1_1;
#X obj 400 341 s g2_1;
#X obj 565 341 s g3_1;
#X obj 730 341 s g4_1;
#X obj 676 1852 loadbang;
#X obj 676 1950 readsf~;
#X msg 676 1869 4;
#X obj 676 1992 *~;
#X obj 726 1975 r vol;
#X obj 675 2028 dac~;
#X obj 511 1852 loadbang;
#X obj 511 1950 readsf~;
#X obj 511 1992 *~;
#X obj 561 1975 r vol;
#X obj 510 2028 dac~;
#X msg 511 1869 3;
#X obj 346 1852 loadbang;
#X obj 346 1950 readsf~;
#X obj 346 1992 *~;
#X obj 396 1975 r vol;
#X obj 345 2028 dac~;
#X obj 181 1852 loadbang;
#X obj 181 1950 readsf~;
#X obj 181 1992 *~;
#X obj 231 1975 r vol;
#X obj 180 2028 dac~;
#X msg 346 1869 2;
#X msg 181 1869 1;
#X obj 676 1651 loadbang;
#X obj 676 1749 readsf~;
#X msg 676 1668 4;
#X obj 676 1791 *~;
#X obj 726 1774 r vol;
#X obj 675 1827 dac~;
#X obj 511 1651 loadbang;
#X obj 511 1749 readsf~;
#X obj 511 1791 *~;
#X obj 561 1774 r vol;
#X obj 510 1827 dac~;
#X msg 511 1668 3;
#X obj 346 1651 loadbang;
#X obj 346 1749 readsf~;
#X obj 346 1791 *~;
#X obj 396 1774 r vol;
#X obj 345 1827 dac~;
#X obj 181 1651 loadbang;
#X obj 181 1749 readsf~;
#X obj 181 1791 *~;
#X obj 231 1774 r vol;
#X obj 180 1827 dac~;
#X msg 346 1668 2;
#X msg 181 1668 1;
#X obj 676 1450 loadbang;
#X obj 676 1548 readsf~;
#X msg 676 1467 4;
#X obj 676 1590 *~;
#X obj 726 1573 r vol;
#X obj 675 1626 dac~;
#X obj 511 1450 loadbang;
#X obj 511 1548 readsf~;
#X obj 511 1590 *~;
#X obj 561 1573 r vol;
#X obj 510 1626 dac~;
#X msg 511 1467 3;
#X obj 346 1450 loadbang;
#X obj 346 1548 readsf~;
#X obj 346 1590 *~;
#X obj 396 1573 r vol;
#X obj 345 1626 dac~;
#X obj 181 1450 loadbang;
#X obj 181 1548 readsf~;
#X obj 181 1590 *~;
#X obj 231 1573 r vol;
#X obj 180 1626 dac~;
#X msg 346 1467 2;
#X msg 181 1467 1;
#X obj 677 1249 loadbang;
#X obj 677 1347 readsf~;
#X msg 677 1319 open sounds/c_piano.wav \, 1;
#X msg 677 1266 4;
#X obj 677 1389 *~;
#X obj 727 1372 r vol;
#X obj 676 1425 dac~;
#X obj 512 1249 loadbang;
#X obj 512 1347 readsf~;
#X obj 512 1389 *~;
#X obj 562 1372 r vol;
#X obj 511 1425 dac~;
#X msg 512 1266 3;
#X obj 347 1249 loadbang;
#X obj 347 1347 readsf~;
#X obj 347 1389 *~;
#X obj 397 1372 r vol;
#X obj 346 1425 dac~;
#X obj 182 1249 loadbang;
#X obj 182 1347 readsf~;
#X obj 182 1389 *~;
#X obj 232 1372 r vol;
#X obj 181 1425 dac~;
#X msg 347 1266 2;
#X msg 182 1266 1;
#X msg 215 1869 9;
#X msg 380 1869 9;
#X msg 544 1869 9;
#X msg 710 1869 9;
#X msg 710 1668 8;
#X msg 544 1668 8;
#X msg 380 1668 8;
#X msg 215 1668 8;
#X msg 215 1467 7;
#X msg 380 1467 7;
#X msg 544 1467 7;
#X msg 710 1467 7;
#X msg 711 1266 6;
#X msg 545 1266 6;
#X msg 381 1266 6;
#X msg 215 1266 6;
#X obj 234 1347 s g1_6;
#X obj 399 1347 s g2_6;
#X obj 564 1347 s g3_6;
#X obj 729 1347 s g4_6;
#X obj 233 1950 s g1_9;
#X obj 398 1950 s g2_9;
#X obj 563 1950 s g3_9;
#X obj 728 1950 s g4_9;
#X obj 728 1548 s g4_7;
#X obj 563 1548 s g3_7;
#X obj 398 1548 s g2_7;
#X obj 233 1548 s g1_7;
#X obj 233 1749 s g1_8;
#X obj 398 1749 s g2_8;
#X obj 563 1749 s g3_8;
#X obj 728 1749 s g4_8;
#X obj 841 846 loadbang;
#X obj 841 944 readsf~;
#X obj 841 986 *~;
#X obj 891 969 r vol;
#X obj 840 1022 dac~;
#X msg 875 863 4;
#X obj 841 645 loadbang;
#X obj 841 743 readsf~;
#X obj 841 785 *~;
#X obj 891 768 r vol;
#X obj 840 821 dac~;
#X obj 841 444 loadbang;
#X obj 841 542 readsf~;
#X obj 841 584 *~;
#X obj 891 567 r vol;
#X obj 840 620 dac~;
#X msg 875 662 3;
#X msg 875 461 2;
#X obj 842 243 loadbang;
#X obj 842 341 readsf~;
#X obj 842 383 *~;
#X obj 892 366 r vol;
#X obj 841 419 dac~;
#X msg 875 260 1;
#X obj 840 1852 loadbang;
#X obj 840 1950 readsf~;
#X obj 840 1992 *~;
#X obj 890 1975 r vol;
#X obj 839 2028 dac~;
#X obj 840 1651 loadbang;
#X obj 840 1749 readsf~;
#X obj 840 1791 *~;
#X obj 890 1774 r vol;
#X obj 839 1827 dac~;
#X obj 840 1450 loadbang;
#X obj 840 1548 readsf~;
#X obj 840 1590 *~;
#X obj 890 1573 r vol;
#X obj 839 1626 dac~;
#X obj 841 1249 loadbang;
#X obj 841 1347 readsf~;
#X obj 841 1389 *~;
#X obj 891 1372 r vol;
#X obj 840 1425 dac~;
#X msg 874 1869 9;
#X msg 874 1668 8;
#X msg 874 1467 7;
#X msg 874 1266 6;
#X msg 841 1266 5;
#X msg 840 1467 5;
#X msg 840 1869 5;
#X msg 840 1668 5;
#X msg 842 260 5;
#X msg 841 461 5;
#X msg 841 662 5;
#X msg 841 863 5;
#X obj 894 341 s g5_1;
#X obj 893 542 s g5_2;
#X obj 893 743 s g5_3;
#X obj 893 944 s g5_4;
#X obj 893 1347 s g5_6;
#X obj 892 1548 s g5_7;
#X obj 892 1749 s g5_8;
#X obj 892 1950 s g5_9;
#X obj 1526 1047 loadbang;
#X obj 1526 1145 readsf~;
#X msg 1560 1064 5;
#X obj 1526 1187 *~;
#X obj 1576 1170 r vol;
#X obj 1525 1223 dac~;
#X obj 1361 1047 loadbang;
#X obj 1361 1145 readsf~;
#X msg 1395 1064 5;
#X obj 1361 1187 *~;
#X obj 1411 1170 r vol;
#X obj 1360 1223 dac~;
#X obj 1196 1047 loadbang;
#X obj 1196 1145 readsf~;
#X msg 1230 1064 5;
#X obj 1196 1187 *~;
#X obj 1246 1170 r vol;
#X obj 1195 1223 dac~;
#X obj 1031 1047 loadbang;
#X obj 1031 1145 readsf~;
#X msg 1065 1064 5;
#X obj 1031 1187 *~;
#X obj 1081 1170 r vol;
#X obj 1030 1223 dac~;
#X obj 1526 846 loadbang;
#X obj 1526 944 readsf~;
#X obj 1526 986 *~;
#X obj 1576 969 r vol;
#X obj 1525 1022 dac~;
#X obj 1361 846 loadbang;
#X obj 1361 944 readsf~;
#X obj 1361 986 *~;
#X obj 1411 969 r vol;
#X obj 1360 1022 dac~;
#X obj 1196 846 loadbang;
#X obj 1196 944 readsf~;
#X obj 1196 986 *~;
#X obj 1246 969 r vol;
#X obj 1195 1022 dac~;
#X obj 1031 846 loadbang;
#X obj 1031 944 readsf~;
#X obj 1031 986 *~;
#X obj 1081 969 r vol;
#X obj 1030 1022 dac~;
#X msg 1065 863 4;
#X msg 1230 863 4;
#X msg 1394 863 4;
#X msg 1560 863 4;
#X obj 1526 645 loadbang;
#X obj 1526 743 readsf~;
#X obj 1526 785 *~;
#X obj 1576 768 r vol;
#X obj 1525 821 dac~;
#X obj 1361 645 loadbang;
#X obj 1361 743 readsf~;
#X obj 1361 785 *~;
#X obj 1411 768 r vol;
#X obj 1360 821 dac~;
#X obj 1196 645 loadbang;
#X obj 1196 743 readsf~;
#X obj 1196 785 *~;
#X obj 1246 768 r vol;
#X obj 1195 821 dac~;
#X obj 1031 645 loadbang;
#X obj 1031 743 readsf~;
#X obj 1031 785 *~;
#X obj 1081 768 r vol;
#X obj 1030 821 dac~;
#X obj 1526 444 loadbang;
#X obj 1526 542 readsf~;
#X obj 1526 584 *~;
#X obj 1576 567 r vol;
#X obj 1525 620 dac~;
#X obj 1361 444 loadbang;
#X obj 1361 542 readsf~;
#X obj 1361 584 *~;
#X obj 1411 567 r vol;
#X obj 1360 620 dac~;
#X obj 1196 444 loadbang;
#X obj 1196 542 readsf~;
#X obj 1196 584 *~;
#X obj 1246 567 r vol;
#X obj 1195 620 dac~;
#X obj 1031 444 loadbang;
#X obj 1031 542 readsf~;
#X obj 1031 584 *~;
#X obj 1081 567 r vol;
#X obj 1030 620 dac~;
#X msg 1065 662 3;
#X msg 1230 662 3;
#X msg 1394 662 3;
#X msg 1560 662 3;
#X msg 1065 461 2;
#X msg 1230 461 2;
#X msg 1394 461 2;
#X msg 1560 461 2;
#X obj 1527 243 loadbang;
#X obj 1527 341 readsf~;
#X obj 1527 383 *~;
#X obj 1577 366 r vol;
#X obj 1526 419 dac~;
#X obj 1362 243 loadbang;
#X obj 1362 341 readsf~;
#X obj 1362 383 *~;
#X obj 1412 366 r vol;
#X obj 1361 419 dac~;
#X obj 1197 243 loadbang;
#X obj 1197 341 readsf~;
#X obj 1197 383 *~;
#X obj 1247 366 r vol;
#X obj 1196 419 dac~;
#X obj 1032 243 loadbang;
#X obj 1032 341 readsf~;
#X obj 1032 383 *~;
#X obj 1082 366 r vol;
#X obj 1031 419 dac~;
#X msg 1065 260 1;
#X msg 1231 260 1;
#X msg 1395 260 1;
#X msg 1561 260 1;
#X obj 1525 1852 loadbang;
#X obj 1525 1950 readsf~;
#X obj 1525 1992 *~;
#X obj 1575 1975 r vol;
#X obj 1524 2028 dac~;
#X obj 1360 1852 loadbang;
#X obj 1360 1950 readsf~;
#X obj 1360 1992 *~;
#X obj 1410 1975 r vol;
#X obj 1359 2028 dac~;
#X obj 1195 1852 loadbang;
#X obj 1195 1950 readsf~;
#X obj 1195 1992 *~;
#X obj 1245 1975 r vol;
#X obj 1194 2028 dac~;
#X obj 1030 1852 loadbang;
#X obj 1030 1950 readsf~;
#X obj 1030 1992 *~;
#X obj 1080 1975 r vol;
#X obj 1029 2028 dac~;
#X obj 1525 1651 loadbang;
#X obj 1525 1749 readsf~;
#X obj 1525 1791 *~;
#X obj 1575 1774 r vol;
#X obj 1524 1827 dac~;
#X obj 1360 1651 loadbang;
#X obj 1360 1749 readsf~;
#X obj 1360 1791 *~;
#X obj 1410 1774 r vol;
#X obj 1359 1827 dac~;
#X obj 1195 1651 loadbang;
#X obj 1195 1749 readsf~;
#X obj 1195 1791 *~;
#X obj 1245 1774 r vol;
#X obj 1194 1827 dac~;
#X obj 1030 1651 loadbang;
#X obj 1030 1749 readsf~;
#X obj 1030 1791 *~;
#X obj 1080 1774 r vol;
#X obj 1029 1827 dac~;
#X obj 1525 1450 loadbang;
#X obj 1525 1548 readsf~;
#X obj 1525 1590 *~;
#X obj 1575 1573 r vol;
#X obj 1524 1626 dac~;
#X obj 1360 1450 loadbang;
#X obj 1360 1548 readsf~;
#X obj 1360 1590 *~;
#X obj 1410 1573 r vol;
#X obj 1359 1626 dac~;
#X obj 1195 1450 loadbang;
#X obj 1195 1548 readsf~;
#X obj 1195 1590 *~;
#X obj 1245 1573 r vol;
#X obj 1194 1626 dac~;
#X obj 1030 1450 loadbang;
#X obj 1030 1548 readsf~;
#X obj 1030 1590 *~;
#X obj 1080 1573 r vol;
#X obj 1029 1626 dac~;
#X obj 1526 1249 loadbang;
#X obj 1526 1347 readsf~;
#X obj 1526 1389 *~;
#X obj 1576 1372 r vol;
#X obj 1525 1425 dac~;
#X obj 1361 1249 loadbang;
#X obj 1361 1347 readsf~;
#X obj 1361 1389 *~;
#X obj 1411 1372 r vol;
#X obj 1360 1425 dac~;
#X obj 1196 1249 loadbang;
#X obj 1196 1347 readsf~;
#X obj 1196 1389 *~;
#X obj 1246 1372 r vol;
#X obj 1195 1425 dac~;
#X obj 1031 1249 loadbang;
#X obj 1031 1347 readsf~;
#X obj 1031 1389 *~;
#X obj 1081 1372 r vol;
#X obj 1030 1425 dac~;
#X msg 1064 1869 9;
#X msg 1229 1869 9;
#X msg 1393 1869 9;
#X msg 1559 1869 9;
#X msg 1559 1668 8;
#X msg 1393 1668 8;
#X msg 1229 1668 8;
#X msg 1064 1668 8;
#X msg 1064 1467 7;
#X msg 1229 1467 7;
#X msg 1393 1467 7;
#X msg 1559 1467 7;
#X msg 1560 1266 6;
#X msg 1394 1266 6;
#X msg 1230 1266 6;
#X msg 1064 1266 6;
#X msg 1032 260 6;
#X msg 1197 260 7;
#X msg 1362 260 8;
#X msg 1527 260 9;
#X obj 1085 341 s g6_1;
#X obj 1249 341 s g7_1;
#X obj 1414 341 s g8_1;
#X obj 1579 341 s g9_1;
#X msg 1031 461 6;
#X msg 1196 461 7;
#X msg 1361 461 8;
#X msg 1526 461 9;
#X obj 1083 542 s g6_2;
#X obj 1248 543 s g7_2;
#X obj 1413 542 s g8_2;
#X obj 1578 542 s g9_2;
#X msg 1031 662 6;
#X msg 1196 662 7;
#X msg 1361 662 8;
#X msg 1526 662 9;
#X msg 1030 1869 6;
#X msg 1195 1869 7;
#X msg 1360 1869 8;
#X msg 1525 1869 9;
#X msg 1525 1668 9;
#X msg 1360 1668 8;
#X msg 1195 1668 7;
#X msg 1030 1668 6;
#X msg 1030 1467 6;
#X msg 1195 1467 7;
#X msg 1360 1467 8;
#X msg 1525 1467 9;
#X msg 1526 1266 9;
#X msg 1361 1266 8;
#X msg 1196 1266 7;
#X msg 1031 1266 6;
#X msg 1031 1064 6;
#X msg 1196 1064 7;
#X msg 1361 1064 8;
#X msg 1526 1064 9;
#X msg 1526 863 9;
#X msg 1361 863 8;
#X msg 1196 863 7;
#X msg 1031 863 6;
#X obj 1083 743 s g6_3;
#X obj 1248 743 s g7_3;
#X obj 1413 743 s g8_3;
#X obj 1578 743 s g9_3;
#X obj 1083 1950 s g6_9;
#X obj 1247 1950 s g7_9;
#X obj 1577 1950 s g9_9;
#X obj 1577 1749 s g9_8;
#X obj 1412 1749 s g8_8;
#X obj 1247 1749 s g7_8;
#X obj 1082 1749 s g6_8;
#X obj 1247 1548 s g7_7;
#X obj 1412 1548 s g8_7;
#X obj 1577 1547 s g9_7;
#X obj 1083 1347 s g6_6;
#X obj 1248 1347 s g7_6;
#X obj 1413 1347 s g8_6;
#X obj 1578 1347 s g9_6;
#X obj 1578 1145 s g9_5;
#X obj 1413 1145 s g8_5;
#X obj 1248 1145 s g7_5;
#X obj 1083 1145 s g6_5;
#X obj 1083 944 s g6_4;
#X obj 1248 944 s g7_4;
#X obj 1413 944 s g8_4;
#X obj 1578 944 s g9_4;
#X obj 1082 1548 s g6_7;
#X obj 1412 1950 s g8_9;
#X obj 183 287 filter;
#X obj 348 287 filter;
#X obj 513 287 filter;
#X obj 678 287 filter;
#X obj 842 287 filter;
#X obj 1032 287 filter;
#X obj 1197 287 filter;
#X obj 1362 287 filter;
#X obj 1527 287 filter;
#X obj 1526 488 filter;
#X obj 1361 488 filter;
#X obj 1196 488 filter;
#X obj 1031 488 filter;
#X obj 841 488 filter;
#X obj 677 488 filter;
#X obj 512 488 filter;
#X obj 347 488 filter;
#X obj 182 488 filter;
#X obj 182 689 filter;
#X obj 347 689 filter;
#X obj 512 689 filter;
#X obj 677 689 filter;
#X obj 841 689 filter;
#X obj 1031 689 filter;
#X obj 1196 689 filter;
#X obj 1361 689 filter;
#X obj 1526 689 filter;
#X obj 1526 890 filter;
#X obj 1361 890 filter;
#X obj 1196 890 filter;
#X obj 1031 890 filter;
#X obj 841 890 filter;
#X obj 677 890 filter;
#X obj 512 890 filter;
#X obj 347 890 filter;
#X obj 1526 1091 filter;
#X obj 1361 1091 filter;
#X obj 1196 1091 filter;
#X obj 1031 1091 filter;
#X obj 846 1091 filter;
#X obj 677 1091 filter;
#X obj 512 1091 filter;
#X obj 347 1091 filter;
#X obj 347 1293 filter;
#X obj 512 1293 filter;
#X obj 677 1293 filter;
#X obj 841 1293 filter;
#X obj 1031 1293 filter;
#X obj 1196 1293 filter;
#X obj 1361 1293 filter;
#X obj 1526 1293 filter;
#X obj 182 890 filter;
#X obj 182 1091 filter;
#X obj 182 1293 filter;
#X obj 1525 1494 filter;
#X obj 1360 1494 filter;
#X obj 1195 1494 filter;
#X obj 1030 1494 filter;
#X obj 840 1494 filter;
#X obj 676 1494 filter;
#X obj 511 1494 filter;
#X obj 346 1494 filter;
#X obj 346 1695 filter;
#X obj 511 1695 filter;
#X obj 676 1695 filter;
#X obj 840 1695 filter;
#X obj 1030 1695 filter;
#X obj 1195 1695 filter;
#X obj 1360 1695 filter;
#X obj 1525 1695 filter;
#X obj 1525 1896 filter;
#X obj 1360 1896 filter;
#X obj 1194 1896 filter;
#X obj 1030 1896 filter;
#X obj 840 1896 filter;
#X obj 676 1896 filter;
#X obj 511 1896 filter;
#X obj 346 1896 filter;
#X obj 182 1896 filter;
#X obj 181 1695 filter;
#X obj 181 1494 filter;
#X msg 841 916 open sounds/perc_1.wav \, 1;
#X msg 841 715 open sounds/perc_2.wav \, 1;
#X msg 841 1319 open sounds/perc_5.wav \, 1;
#X msg 840 1520 open sounds/perc_6.wav \, 1;
#X msg 840 1721 open sounds/perc_7.wav \, 1;
#X msg 840 1922 open sounds/perc_8.wav \, 1;
#X msg 842 314 open sounds/perc_4.wav \, 1;
#X msg 841 514 open sounds/perc_3.wav \, 1;
#X msg 183 313 open sounds/as_bass.wav \, 1;
#X msg 348 313 open sounds/gs_bass.wav \, 1;
#X msg 513 313 open sounds/fs_bass.wav \, 1;
#X msg 678 313 open sounds/ds_bass.wav \, 1;
#X msg 182 514 open sounds/cs_bass.wav \, 1;
#X msg 347 514 open sounds/b_bass.wav \, 1;
#X msg 512 514 open sounds/a_bass.wav \, 1;
#X msg 677 514 open sounds/g_bass.wav \, 1;
#X msg 182 715 open sounds/f_bass.wav \, 1;
#X msg 347 715 open sounds/e_bass.wav \, 1;
#X msg 512 715 open sounds/d_bass.wav \, 1;
#X msg 677 715 open sounds/c_bass.wav \, 1;
#X msg 182 916 open sounds/as_piano.wav \, 1;
#X msg 347 916 open sounds/gs_piano.wav \, 1;
#X msg 512 916 open sounds/fs_piano.wav \, 1;
#X msg 677 916 open sounds/ds_piano.wav \, 1;
#X msg 182 1117 open sounds/cs_piano.wav \, 1;
#X msg 347 1117 open sounds/b_piano.wav \, 1;
#X msg 512 1117 open sounds/a_piano.wav \, 1;
#X msg 677 1117 open sounds/g_piano.wav \, 1;
#X msg 182 1319 open sounds/f_piano.wav \, 1;
#X msg 347 1319 open sounds/e_piano.wav \, 1;
#X msg 512 1319 open sounds/d_piano.wav \, 1;
#X msg 181 1520 open sounds/as_guitar.wav \, 1;
#X msg 346 1520 open sounds/gs_guitar.wav \, 1;
#X msg 511 1520 open sounds/fs_guitar.wav \, 1;
#X msg 676 1520 open sounds/ds_guitar.wav \, 1;
#X msg 181 1721 open sounds/cs_guitar.wav \, 1;
#X msg 346 1721 open sounds/b_guitar.wav \, 1;
#X msg 511 1721 open sounds/a_guitar.wav \, 1;
#X msg 676 1721 open sounds/g_guitar.wav \, 1;
#X msg 181 1922 open sounds/f_guitar.wav \, 1;
#X msg 346 1922 open sounds/e_guitar.wav \, 1;
#X msg 511 1922 open sounds/d_guitar.wav \, 1;
#X msg 676 1922 open sounds/c_guitar.wav \, 1;
#X msg 1031 715 open sounds/c_trom.wav \, 1;
#X msg 1196 715 open sounds/d_trom.wav \, 1;
#X msg 1361 715 open sounds/e_trom.wav \, 1;
#X msg 1526 715 open sounds/f_trom.wav \, 1;
#X msg 1528 313 open sounds/as_trom.wav \, 1;
#X msg 1362 313 open sounds/gs_trom.wav \, 1;
#X msg 1197 313 open sounds/fs_trom.wav \, 1;
#X msg 1032 313 open sounds/ds_trom.wav \, 1;
#X msg 1526 514 open sounds/cs_trom.wav \, 1;
#X msg 1361 514 open sounds/b_trom.wav \, 1;
#X msg 1196 514 open sounds/a_trom.wav \, 1;
#X msg 1031 514 open sounds/g_trom.wav \, 1;
#X msg 1526 916 open sounds/as_vio.wav \, 1;
#X msg 1361 916 open sounds/gs_vio.wav \, 1;
#X msg 1196 916 open sounds/fs_vio.wav \, 1;
#X msg 1031 916 open sounds/ds_vio.wav \, 1;
#X msg 1526 1117 open sounds/cs_vio.wav \, 1;
#X msg 1361 1117 open sounds/b_vio.wav \, 1;
#X msg 1196 1117 open sounds/a_vio.wav \, 1;
#X msg 1031 1117 open sounds/g_vio.wav \, 1;
#X msg 1526 1319 open sounds/f_vio.wav \, 1;
#X msg 1361 1319 open sounds/e_vio.wav \, 1;
#X msg 1196 1319 open sounds/d_vio.wav \, 1;
#X msg 1031 1319 open sounds/c_vio.wav \, 1;
#X msg 1525 1520 open sounds/as_horn.wav \, 1;
#X msg 1360 1520 open sounds/gs_horn.wav \, 1;
#X msg 1195 1520 open sounds/fs_horn.wav \, 1;
#X msg 1030 1520 open sounds/ds_horn.wav \, 1;
#X msg 1525 1721 open sounds/cs_horn.wav \, 1;
#X msg 1360 1721 open sounds/b_horn.wav \, 1;
#X msg 1195 1721 open sounds/a_horn.wav \, 1;
#X msg 1030 1721 open sounds/g_horn.wav \, 1;
#X msg 1525 1922 open sounds/f_horn.wav \, 1;
#X msg 1360 1922 open sounds/e_horn.wav \, 1;
#X msg 1195 1922 open sounds/d_horn.wav \, 1;
#X msg 1030 1922 open sounds/c_horn.wav \, 1;
#X obj 3 1047 loadbang;
#X obj 3 1145 readsf~;
#X msg 37 1064 5;
#X obj 3 1187 *~;
#X obj 53 1170 r vol;
#X obj 2 1223 dac~;
#X obj 3 846 loadbang;
#X obj 3 944 readsf~;
#X obj 3 986 *~;
#X obj 53 969 r vol;
#X obj 2 1022 dac~;
#X msg 37 863 4;
#X obj 3 645 loadbang;
#X obj 3 743 readsf~;
#X obj 3 785 *~;
#X obj 53 768 r vol;
#X obj 2 821 dac~;
#X obj 3 444 loadbang;
#X obj 3 542 readsf~;
#X obj 3 584 *~;
#X obj 53 567 r vol;
#X obj 2 620 dac~;
#X msg 37 662 3;
#X msg 37 461 2;
#X obj 4 243 loadbang;
#X obj 4 341 readsf~;
#X obj 4 383 *~;
#X obj 54 366 r vol;
#X obj 3 419 dac~;
#X msg 37 260 1;
#X obj 3 1852 loadbang;
#X obj 2 1950 readsf~;
#X obj 2 1992 *~;
#X obj 52 1975 r vol;
#X obj 1 2028 dac~;
#X obj 2 1651 loadbang;
#X obj 2 1749 readsf~;
#X obj 2 1791 *~;
#X obj 52 1774 r vol;
#X obj 1 1827 dac~;
#X obj 2 1450 loadbang;
#X obj 2 1548 readsf~;
#X obj 2 1590 *~;
#X obj 52 1573 r vol;
#X obj 1 1626 dac~;
#X obj 3 1249 loadbang;
#X obj 3 1347 readsf~;
#X obj 3 1389 *~;
#X obj 53 1372 r vol;
#X obj 2 1425 dac~;
#X msg 36 1869 9;
#X msg 36 1668 8;
#X msg 36 1467 7;
#X msg 36 1266 6;
#X obj 4 287 filter;
#X obj 3 488 filter;
#X obj 3 689 filter;
#X obj 3 890 filter;
#X obj 3 1091 filter;
#X obj 3 1293 filter;
#X obj 3 1896 filter;
#X obj 2 1695 filter;
#X obj 2 1494 filter;
#X msg 4 260 0;
#X msg 3 461 0;
#X msg 3 662 0;
#X msg 3 863 0;
#X msg 3 1064 0;
#X msg 3 1267 0;
#X msg 2 1467 0;
#X msg 2 1668 0;
#X msg 3 1869 0;
#X obj 679 39 loadbang;
#X obj 679 137 readsf~;
#X msg 679 56 4;
#X obj 679 179 *~;
#X obj 729 162 r vol;
#X obj 678 215 dac~;
#X obj 514 39 loadbang;
#X obj 514 137 readsf~;
#X obj 514 179 *~;
#X obj 564 162 r vol;
#X obj 513 215 dac~;
#X msg 514 56 3;
#X obj 349 39 loadbang;
#X obj 349 137 readsf~;
#X obj 349 179 *~;
#X obj 399 162 r vol;
#X obj 348 215 dac~;
#X obj 184 39 loadbang;
#X obj 184 137 readsf~;
#X obj 184 179 *~;
#X obj 234 162 r vol;
#X obj 183 215 dac~;
#X msg 349 56 2;
#X msg 184 56 1;
#X obj 843 39 loadbang;
#X obj 843 137 readsf~;
#X obj 843 179 *~;
#X obj 893 162 r vol;
#X obj 842 215 dac~;
#X msg 843 56 5;
#X obj 1529 39 loadbang;
#X obj 1529 137 readsf~;
#X obj 1529 179 *~;
#X obj 1579 162 r vol;
#X obj 1528 215 dac~;
#X obj 1363 39 loadbang;
#X obj 1363 137 readsf~;
#X obj 1363 179 *~;
#X obj 1413 162 r vol;
#X obj 1362 215 dac~;
#X obj 1198 39 loadbang;
#X obj 1198 137 readsf~;
#X obj 1198 179 *~;
#X obj 1248 162 r vol;
#X obj 1197 215 dac~;
#X obj 1033 39 loadbang;
#X obj 1033 137 readsf~;
#X obj 1033 179 *~;
#X obj 1083 162 r vol;
#X obj 1032 215 dac~;
#X msg 1033 56 6;
#X msg 1198 56 7;
#X msg 1363 56 8;
#X msg 1529 56 9;
#X obj 184 83 filter;
#X obj 349 83 filter;
#X obj 514 83 filter;
#X obj 679 83 filter;
#X obj 843 83 filter;
#X obj 1033 83 filter;
#X obj 1198 83 filter;
#X obj 1363 83 filter;
#X obj 1529 83 filter;
#X obj 5 39 loadbang;
#X obj 5 137 readsf~;
#X obj 5 179 *~;
#X obj 55 162 r vol;
#X obj 4 215 dac~;
#X obj 5 83 filter;
#X msg 5 56 0;
#X msg 38 56 0;
#X msg 217 56 0;
#X msg 383 56 0;
#X msg 547 56 0;
#X msg 713 56 0;
#X msg 876 56 0;
#X msg 1066 56 0;
#X msg 1232 56 0;
#X msg 1396 56 0;
#X msg 1563 56 0;
#X obj 1581 137 s g9_0;
#X obj 1415 137 s g8_0;
#X obj 1249 137 s g7_0;
#X obj 1086 137 s g6_0;
#X obj 895 137 s g5_0;
#X obj 731 137 s g4_0;
#X obj 566 137 s g3_0;
#X obj 401 137 s g2_0;
#X obj 236 137 s g1_0;
#X obj 57 137 s g0_0;
#X obj 56 341 s g0_1;
#X obj 55 542 s g0_2;
#X obj 55 743 s g0_3;
#X obj 55 944 s g0_4;
#X obj 55 1145 s g0_5;
#X obj 55 1347 s g0_6;
#X obj 54 1548 s g0_7;
#X obj 54 1749 s g0_8;
#X obj 54 1950 s g0_9;
#X obj 1695 39 loadbang;
#X obj 1695 137 readsf~;
#X obj 1695 179 *~;
#X obj 1745 162 r vol;
#X obj 1694 215 dac~;
#X obj 1695 83 filter;
#X msg 1729 56 0;
#X msg 1695 56 10;
#X obj 1747 137 s g10_0;
#X obj 1693 1047 loadbang;
#X obj 1693 1145 readsf~;
#X msg 1727 1064 5;
#X obj 1693 1187 *~;
#X obj 1743 1170 r vol;
#X obj 1692 1223 dac~;
#X obj 1693 846 loadbang;
#X obj 1693 944 readsf~;
#X obj 1693 986 *~;
#X obj 1743 969 r vol;
#X obj 1692 1022 dac~;
#X msg 1727 863 4;
#X obj 1693 645 loadbang;
#X obj 1693 743 readsf~;
#X obj 1693 785 *~;
#X obj 1743 768 r vol;
#X obj 1692 821 dac~;
#X obj 1693 444 loadbang;
#X obj 1693 542 readsf~;
#X obj 1693 584 *~;
#X obj 1743 567 r vol;
#X obj 1692 620 dac~;
#X msg 1727 662 3;
#X msg 1727 461 2;
#X obj 1694 243 loadbang;
#X obj 1694 341 readsf~;
#X obj 1694 383 *~;
#X obj 1744 366 r vol;
#X obj 1693 419 dac~;
#X msg 1728 260 1;
#X obj 1692 1852 loadbang;
#X obj 1692 1950 readsf~;
#X obj 1692 1992 *~;
#X obj 1742 1975 r vol;
#X obj 1691 2028 dac~;
#X obj 1692 1651 loadbang;
#X obj 1692 1749 readsf~;
#X obj 1692 1791 *~;
#X obj 1742 1774 r vol;
#X obj 1691 1827 dac~;
#X obj 1692 1450 loadbang;
#X obj 1692 1548 readsf~;
#X obj 1692 1590 *~;
#X obj 1742 1573 r vol;
#X obj 1691 1626 dac~;
#X obj 1693 1249 loadbang;
#X obj 1693 1347 readsf~;
#X obj 1693 1389 *~;
#X obj 1743 1372 r vol;
#X obj 1692 1425 dac~;
#X msg 1726 1869 9;
#X msg 1726 1668 8;
#X msg 1726 1467 7;
#X msg 1727 1266 6;
#X obj 1694 287 filter;
#X obj 1693 488 filter;
#X obj 1693 689 filter;
#X obj 1693 890 filter;
#X obj 1693 1091 filter;
#X obj 1693 1293 filter;
#X obj 1692 1494 filter;
#X obj 1692 1695 filter;
#X obj 1692 1896 filter;
#X msg 1694 260 10;
#X msg 1693 461 10;
#X obj 1746 341 s g10_1;
#X obj 1745 542 s g10_2;
#X msg 1693 662 10;
#X obj 1745 743 s g10_3;
#X msg 1693 863 10;
#X obj 1745 944 s g10_4;
#X msg 1693 1064 10;
#X obj 1745 1145 s g10_5;
#X msg 1693 1266 10;
#X obj 1745 1347 s g10_6;
#X msg 1692 1467 10;
#X obj 1744 1547 s g10_7;
#X msg 1692 1668 10;
#X obj 1744 1749 s g10_8;
#X msg 1692 1869 10;
#X obj 1744 1950 s g10_9;
#X obj 675 2049 loadbang;
#X obj 675 2147 readsf~;
#X msg 675 2066 4;
#X obj 675 2189 *~;
#X obj 725 2172 r vol;
#X obj 674 2225 dac~;
#X obj 510 2049 loadbang;
#X obj 510 2147 readsf~;
#X obj 510 2189 *~;
#X obj 560 2172 r vol;
#X obj 509 2225 dac~;
#X msg 510 2066 3;
#X obj 345 2049 loadbang;
#X obj 345 2147 readsf~;
#X obj 345 2189 *~;
#X obj 395 2172 r vol;
#X obj 344 2225 dac~;
#X obj 180 2049 loadbang;
#X obj 180 2147 readsf~;
#X obj 180 2189 *~;
#X obj 230 2172 r vol;
#X obj 179 2225 dac~;
#X msg 345 2066 2;
#X msg 180 2066 1;
#X obj 839 2049 loadbang;
#X obj 839 2147 readsf~;
#X obj 839 2189 *~;
#X obj 889 2172 r vol;
#X obj 838 2225 dac~;
#X msg 839 2066 5;
#X obj 1524 2049 loadbang;
#X obj 1524 2147 readsf~;
#X obj 1524 2189 *~;
#X obj 1574 2172 r vol;
#X obj 1523 2225 dac~;
#X obj 1359 2049 loadbang;
#X obj 1359 2147 readsf~;
#X obj 1359 2189 *~;
#X obj 1409 2172 r vol;
#X obj 1358 2225 dac~;
#X obj 1194 2049 loadbang;
#X obj 1194 2147 readsf~;
#X obj 1194 2189 *~;
#X obj 1244 2172 r vol;
#X obj 1193 2225 dac~;
#X obj 1029 2049 loadbang;
#X obj 1029 2147 readsf~;
#X obj 1029 2189 *~;
#X obj 1079 2172 r vol;
#X obj 1028 2225 dac~;
#X msg 1029 2066 6;
#X msg 1194 2066 7;
#X msg 1359 2066 8;
#X msg 1524 2066 9;
#X obj 1524 2093 filter;
#X obj 1359 2093 filter;
#X obj 1193 2093 filter;
#X obj 1029 2093 filter;
#X obj 839 2093 filter;
#X obj 675 2093 filter;
#X obj 510 2093 filter;
#X obj 345 2093 filter;
#X obj 181 2093 filter;
#X obj 2 2049 loadbang;
#X obj 1 2147 readsf~;
#X obj 1 2189 *~;
#X obj 51 2172 r vol;
#X obj 0 2225 dac~;
#X obj 2 2093 filter;
#X msg 2 2066 0;
#X obj 1691 2049 loadbang;
#X obj 1691 2147 readsf~;
#X obj 1691 2189 *~;
#X obj 1741 2172 r vol;
#X obj 1690 2225 dac~;
#X obj 1691 2093 filter;
#X msg 1691 2066 10;
#X msg 35 2066 10;
#X obj 53 2147 s g0_10;
#X msg 214 2066 10;
#X obj 232 2147 s g1_10;
#X msg 379 2066 10;
#X obj 397 2147 s g2_10;
#X msg 543 2066 10;
#X obj 562 2147 s g3_10;
#X msg 709 2066 10;
#X obj 727 2147 s g4_10;
#X msg 873 2066 10;
#X obj 891 2147 s g5_10;
#X msg 1063 2066 10;
#X obj 1082 2147 s g6_10;
#X msg 1228 2066 10;
#X obj 1246 2147 s g7_10;
#X msg 1392 2066 10;
#X obj 1411 2147 s g8_10;
#X msg 1558 2066 10;
#X obj 1576 2147 s g9_10;
#X msg 1725 2066 10;
#X obj 1743 2147 s g10_10;
#X msg 5 109 open sounds/perc_9.wav \, 1;
#X msg 1695 109 open sounds/perc_10.wav \, 1;
#X msg 1 2119 open sounds/perc_11.wav \, 1;
#X msg 1691 2119 open sounds/perc_12.wav \, 1;
#X msg 184 109 open sounds/as_cell.wav \, 1;
#X msg 349 109 open sounds/gs_cell.wav \, 1;
#X msg 514 109 open sounds/fs_cell.wav \, 1;
#X msg 1363 109 open sounds/g_cell.wav \, 1;
#X msg 679 109 open sounds/ds_cell.wav \, 1;
#X msg 843 110 open sounds/cs_cell.wav \, 1;
#X msg 1033 109 open sounds/b_cell.wav \, 1;
#X msg 1198 109 open sounds/a_cell.wav \, 1;
#X msg 1529 109 open sounds/f_cell.wav \, 1;
#X msg 1695 313 open sounds/e_cell.wav \, 1;
#X msg 1693 514 open sounds/d_cell.wav \, 1;
#X msg 1693 715 open sounds/c_cell.wav \, 1;
#X msg 1693 916 open sounds/as_scifi.wav \, 1;
#X msg 1693 1117 open sounds/gs_scifi.wav \, 1;
#X msg 1693 1319 open sounds/fs_scifi.wav \, 1;
#X msg 1692 1520 open sounds/ds_scifi.wav \, 1;
#X msg 1692 1721 open sounds/cs_scifi.wav \, 1;
#X msg 1692 1922 open sounds/b_scifi.wav \, 1;
#X msg 1524 2119 open sounds/a_scifi.wav \, 1;
#X msg 1359 2119 open sounds/g_scifi.wav \, 1;
#X msg 1194 2119 open sounds/f_scifi.wav \, 1;
#X msg 1029 2119 open sounds/e_scifi.wav \, 1;
#X msg 839 2119 open sounds/d_scifi.wav \, 1;
#X msg 675 2119 open sounds/c_scifi.wav \, 1;
#X msg 510 2119 open sounds/as_synth.wav \, 1;
#X msg 345 2119 open sounds/gs_synth.wav \, 1;
#X msg 180 2119 open sounds/fs_synth.wav \, 1;
#X msg 2 1922 open sounds/ds_synth.wav \, 1;
#X msg 2 1721 open sounds/cs_synth.wav \, 1;
#X msg 2 1520 open sounds/b_synth.wav \, 1;
#X msg 3 1319 open sounds/a_synth.wav \, 1;
#X msg 3 1117 open sounds/g_synth.wav \, 1;
#X msg 3 916 open sounds/f_synth.wav \, 1;
#X msg 3 715 open sounds/e_synth.wav \, 1;
#X msg 3 514 open sounds/d_synth.wav \, 1;
#X msg 4 313 open sounds/c_synth.wav \, 1;
#X msg 846 1064 5;
#X msg 880 1064 5;
#X connect 0 0 1204 0;
#X connect 0 0 1205 0;
#X connect 1 0 4 0;
#X connect 1 0 5 0;
#X connect 2 0 8 0;
#X connect 4 0 684 0;
#X connect 5 0 684 1;
#X connect 8 0 10 0;
#X connect 8 0 10 1;
#X connect 9 0 8 1;
#X connect 11 0 17 0;
#X connect 11 0 13 0;
#X connect 12 0 14 0;
#X connect 13 0 685 1;
#X connect 14 0 16 0;
#X connect 14 0 16 1;
#X connect 15 0 14 1;
#X connect 17 0 685 0;
#X connect 19 0 31 0;
#X connect 19 0 21 0;
#X connect 20 0 22 0;
#X connect 21 0 686 1;
#X connect 22 0 24 0;
#X connect 22 0 24 1;
#X connect 23 0 22 1;
#X connect 25 0 32 0;
#X connect 25 0 27 0;
#X connect 26 0 28 0;
#X connect 27 0 696 1;
#X connect 28 0 30 0;
#X connect 28 0 30 1;
#X connect 29 0 28 1;
#X connect 31 0 686 0;
#X connect 32 0 696 0;
#X connect 35 0 37 0;
#X connect 35 0 62 0;
#X connect 36 0 38 0;
#X connect 37 0 676 0;
#X connect 38 0 40 0;
#X connect 38 0 40 1;
#X connect 39 0 38 1;
#X connect 41 0 46 0;
#X connect 41 0 61 0;
#X connect 42 0 43 0;
#X connect 43 0 45 0;
#X connect 43 0 45 1;
#X connect 44 0 43 1;
#X connect 46 0 677 0;
#X connect 47 0 57 0;
#X connect 47 0 60 0;
#X connect 48 0 49 0;
#X connect 49 0 51 0;
#X connect 49 0 51 1;
#X connect 50 0 49 1;
#X connect 52 0 58 0;
#X connect 52 0 59 0;
#X connect 53 0 54 0;
#X connect 54 0 56 0;
#X connect 54 0 56 1;
#X connect 55 0 54 1;
#X connect 57 0 678 0;
#X connect 58 0 695 0;
#X connect 59 0 695 1;
#X connect 60 0 678 1;
#X connect 61 0 677 1;
#X connect 62 0 676 1;
#X connect 67 0 69 0;
#X connect 67 0 118 0;
#X connect 68 0 70 0;
#X connect 69 0 665 0;
#X connect 70 0 72 0;
#X connect 70 0 72 1;
#X connect 71 0 70 1;
#X connect 73 0 78 0;
#X connect 73 0 117 0;
#X connect 74 0 75 0;
#X connect 75 0 77 0;
#X connect 75 0 77 1;
#X connect 76 0 75 1;
#X connect 78 0 664 0;
#X connect 79 0 89 0;
#X connect 79 0 116 0;
#X connect 80 0 81 0;
#X connect 81 0 83 0;
#X connect 81 0 83 1;
#X connect 82 0 81 1;
#X connect 84 0 90 0;
#X connect 84 0 115 0;
#X connect 85 0 86 0;
#X connect 86 0 88 0;
#X connect 86 0 88 1;
#X connect 87 0 86 1;
#X connect 89 0 663 0;
#X connect 90 0 662 0;
#X connect 91 0 93 0;
#X connect 91 0 126 0;
#X connect 92 0 94 0;
#X connect 93 0 658 0;
#X connect 94 0 96 0;
#X connect 94 0 96 1;
#X connect 95 0 94 1;
#X connect 97 0 102 0;
#X connect 97 0 125 0;
#X connect 98 0 99 0;
#X connect 99 0 101 0;
#X connect 99 0 101 1;
#X connect 100 0 99 1;
#X connect 102 0 659 0;
#X connect 103 0 113 0;
#X connect 103 0 124 0;
#X connect 104 0 105 0;
#X connect 105 0 107 0;
#X connect 105 0 107 1;
#X connect 106 0 105 1;
#X connect 108 0 114 0;
#X connect 108 0 123 0;
#X connect 109 0 110 0;
#X connect 110 0 112 0;
#X connect 110 0 112 1;
#X connect 111 0 110 1;
#X connect 113 0 660 0;
#X connect 114 0 661 0;
#X connect 115 0 662 1;
#X connect 116 0 663 1;
#X connect 117 0 664 1;
#X connect 118 0 665 1;
#X connect 123 0 661 1;
#X connect 124 0 660 1;
#X connect 125 0 659 1;
#X connect 126 0 658 1;
#X connect 131 0 133 0;
#X connect 131 0 158 0;
#X connect 132 0 134 0;
#X connect 133 0 647 0;
#X connect 134 0 136 0;
#X connect 134 0 136 1;
#X connect 135 0 134 1;
#X connect 137 0 142 0;
#X connect 137 0 157 0;
#X connect 138 0 139 0;
#X connect 139 0 141 0;
#X connect 139 0 141 1;
#X connect 140 0 139 1;
#X connect 142 0 646 0;
#X connect 143 0 153 0;
#X connect 143 0 156 0;
#X connect 144 0 145 0;
#X connect 145 0 147 0;
#X connect 145 0 147 1;
#X connect 146 0 145 1;
#X connect 148 0 154 0;
#X connect 148 0 155 0;
#X connect 149 0 150 0;
#X connect 150 0 152 0;
#X connect 150 0 152 1;
#X connect 151 0 150 1;
#X connect 153 0 645 0;
#X connect 154 0 644 0;
#X connect 155 0 644 1;
#X connect 156 0 645 1;
#X connect 157 0 646 1;
#X connect 158 0 647 1;
#X connect 163 0 165 0;
#X connect 163 0 263 0;
#X connect 164 0 166 0;
#X connect 165 0 719 0;
#X connect 166 0 168 0;
#X connect 166 0 168 1;
#X connect 167 0 166 1;
#X connect 169 0 174 0;
#X connect 169 0 262 0;
#X connect 170 0 171 0;
#X connect 171 0 173 0;
#X connect 171 0 173 1;
#X connect 172 0 171 1;
#X connect 174 0 720 0;
#X connect 175 0 185 0;
#X connect 175 0 261 0;
#X connect 176 0 177 0;
#X connect 177 0 179 0;
#X connect 177 0 179 1;
#X connect 178 0 177 1;
#X connect 180 0 186 0;
#X connect 180 0 260 0;
#X connect 181 0 182 0;
#X connect 182 0 184 0;
#X connect 182 0 184 1;
#X connect 183 0 182 1;
#X connect 185 0 721 0;
#X connect 186 0 722 0;
#X connect 187 0 189 0;
#X connect 187 0 264 0;
#X connect 188 0 190 0;
#X connect 189 0 708 0;
#X connect 190 0 192 0;
#X connect 190 0 192 1;
#X connect 191 0 190 1;
#X connect 193 0 198 0;
#X connect 193 0 265 0;
#X connect 194 0 195 0;
#X connect 195 0 197 0;
#X connect 195 0 197 1;
#X connect 196 0 195 1;
#X connect 198 0 707 0;
#X connect 199 0 209 0;
#X connect 199 0 266 0;
#X connect 200 0 201 0;
#X connect 201 0 203 0;
#X connect 201 0 203 1;
#X connect 202 0 201 1;
#X connect 204 0 210 0;
#X connect 204 0 267 0;
#X connect 205 0 206 0;
#X connect 206 0 208 0;
#X connect 206 0 208 1;
#X connect 207 0 206 1;
#X connect 209 0 706 0;
#X connect 210 0 723 0;
#X connect 211 0 213 0;
#X connect 211 0 271 0;
#X connect 212 0 214 0;
#X connect 213 0 703 0;
#X connect 214 0 216 0;
#X connect 214 0 216 1;
#X connect 215 0 214 1;
#X connect 217 0 222 0;
#X connect 217 0 270 0;
#X connect 218 0 219 0;
#X connect 219 0 221 0;
#X connect 219 0 221 1;
#X connect 220 0 219 1;
#X connect 222 0 704 0;
#X connect 223 0 233 0;
#X connect 223 0 269 0;
#X connect 224 0 225 0;
#X connect 225 0 227 0;
#X connect 225 0 227 1;
#X connect 226 0 225 1;
#X connect 228 0 234 0;
#X connect 228 0 268 0;
#X connect 229 0 230 0;
#X connect 230 0 232 0;
#X connect 230 0 232 1;
#X connect 231 0 230 1;
#X connect 233 0 705 0;
#X connect 234 0 724 0;
#X connect 235 0 238 0;
#X connect 235 0 272 0;
#X connect 236 0 239 0;
#X connect 237 0 236 0;
#X connect 237 0 279 0;
#X connect 238 0 689 0;
#X connect 239 0 241 0;
#X connect 239 0 241 1;
#X connect 240 0 239 1;
#X connect 242 0 247 0;
#X connect 242 0 273 0;
#X connect 243 0 244 0;
#X connect 244 0 246 0;
#X connect 244 0 246 1;
#X connect 245 0 244 1;
#X connect 247 0 688 0;
#X connect 248 0 258 0;
#X connect 248 0 274 0;
#X connect 249 0 250 0;
#X connect 250 0 252 0;
#X connect 250 0 252 1;
#X connect 251 0 250 1;
#X connect 253 0 259 0;
#X connect 253 0 275 0;
#X connect 254 0 255 0;
#X connect 255 0 257 0;
#X connect 255 0 257 1;
#X connect 256 0 255 1;
#X connect 258 0 687 0;
#X connect 259 0 697 0;
#X connect 260 0 722 1;
#X connect 261 0 721 1;
#X connect 262 0 720 1;
#X connect 263 0 719 1;
#X connect 264 0 708 1;
#X connect 265 0 707 1;
#X connect 266 0 706 1;
#X connect 267 0 723 1;
#X connect 268 0 724 1;
#X connect 269 0 705 1;
#X connect 270 0 704 1;
#X connect 271 0 703 1;
#X connect 272 0 689 1;
#X connect 273 0 688 1;
#X connect 274 0 687 1;
#X connect 275 0 697 1;
#X connect 292 0 347 0;
#X connect 292 0 297 0;
#X connect 293 0 294 0;
#X connect 294 0 296 0;
#X connect 294 0 296 1;
#X connect 295 0 294 1;
#X connect 297 0 675 1;
#X connect 298 0 346 0;
#X connect 298 0 308 0;
#X connect 299 0 300 0;
#X connect 300 0 302 0;
#X connect 300 0 302 1;
#X connect 301 0 300 1;
#X connect 303 0 345 0;
#X connect 303 0 309 0;
#X connect 304 0 305 0;
#X connect 305 0 307 0;
#X connect 305 0 307 1;
#X connect 306 0 305 1;
#X connect 308 0 666 1;
#X connect 309 0 657 1;
#X connect 310 0 344 0;
#X connect 310 0 315 0;
#X connect 311 0 312 0;
#X connect 312 0 314 0;
#X connect 312 0 314 1;
#X connect 313 0 312 1;
#X connect 315 0 648 1;
#X connect 316 0 342 0;
#X connect 316 0 336 0;
#X connect 317 0 318 0;
#X connect 318 0 320 0;
#X connect 318 0 320 1;
#X connect 319 0 318 1;
#X connect 321 0 343 0;
#X connect 321 0 337 0;
#X connect 322 0 323 0;
#X connect 323 0 325 0;
#X connect 323 0 325 1;
#X connect 324 0 323 1;
#X connect 326 0 341 0;
#X connect 326 0 338 0;
#X connect 327 0 328 0;
#X connect 328 0 330 0;
#X connect 328 0 330 1;
#X connect 329 0 328 1;
#X connect 331 0 340 0;
#X connect 331 0 339 0;
#X connect 332 0 333 0;
#X connect 333 0 335 0;
#X connect 333 0 335 1;
#X connect 334 0 333 1;
#X connect 336 0 718 1;
#X connect 337 0 709 1;
#X connect 338 0 702 1;
#X connect 339 0 690 1;
#X connect 340 0 690 0;
#X connect 341 0 702 0;
#X connect 342 0 718 0;
#X connect 343 0 709 0;
#X connect 344 0 648 0;
#X connect 345 0 657 0;
#X connect 346 0 666 0;
#X connect 347 0 675 0;
#X connect 356 0 611 0;
#X connect 356 0 358 0;
#X connect 357 0 359 0;
#X connect 358 0 679 1;
#X connect 359 0 361 0;
#X connect 359 0 361 1;
#X connect 360 0 359 1;
#X connect 362 0 610 0;
#X connect 362 0 364 0;
#X connect 363 0 365 0;
#X connect 364 0 680 1;
#X connect 365 0 367 0;
#X connect 365 0 367 1;
#X connect 366 0 365 1;
#X connect 368 0 609 0;
#X connect 368 0 370 0;
#X connect 369 0 371 0;
#X connect 370 0 681 1;
#X connect 371 0 373 0;
#X connect 371 0 373 1;
#X connect 372 0 371 1;
#X connect 374 0 608 0;
#X connect 374 0 376 0;
#X connect 375 0 377 0;
#X connect 376 0 682 1;
#X connect 377 0 379 0;
#X connect 377 0 379 1;
#X connect 378 0 377 1;
#X connect 380 0 612 0;
#X connect 380 0 403 0;
#X connect 381 0 382 0;
#X connect 382 0 384 0;
#X connect 382 0 384 1;
#X connect 383 0 382 1;
#X connect 385 0 613 0;
#X connect 385 0 402 0;
#X connect 386 0 387 0;
#X connect 387 0 389 0;
#X connect 387 0 389 1;
#X connect 388 0 387 1;
#X connect 390 0 614 0;
#X connect 390 0 401 0;
#X connect 391 0 392 0;
#X connect 392 0 394 0;
#X connect 392 0 394 1;
#X connect 393 0 392 1;
#X connect 395 0 615 0;
#X connect 395 0 400 0;
#X connect 396 0 397 0;
#X connect 397 0 399 0;
#X connect 397 0 399 1;
#X connect 398 0 397 1;
#X connect 400 0 674 1;
#X connect 401 0 673 1;
#X connect 402 0 672 1;
#X connect 403 0 671 1;
#X connect 404 0 591 0;
#X connect 404 0 447 0;
#X connect 405 0 406 0;
#X connect 406 0 408 0;
#X connect 406 0 408 1;
#X connect 407 0 406 1;
#X connect 409 0 590 0;
#X connect 409 0 446 0;
#X connect 410 0 411 0;
#X connect 411 0 413 0;
#X connect 411 0 413 1;
#X connect 412 0 411 1;
#X connect 414 0 589 0;
#X connect 414 0 445 0;
#X connect 415 0 416 0;
#X connect 416 0 418 0;
#X connect 416 0 418 1;
#X connect 417 0 416 1;
#X connect 419 0 588 0;
#X connect 419 0 444 0;
#X connect 420 0 421 0;
#X connect 421 0 423 0;
#X connect 421 0 423 1;
#X connect 422 0 421 1;
#X connect 424 0 583 0;
#X connect 424 0 451 0;
#X connect 425 0 426 0;
#X connect 426 0 428 0;
#X connect 426 0 428 1;
#X connect 427 0 426 1;
#X connect 429 0 582 0;
#X connect 429 0 450 0;
#X connect 430 0 431 0;
#X connect 431 0 433 0;
#X connect 431 0 433 1;
#X connect 432 0 431 1;
#X connect 434 0 581 0;
#X connect 434 0 449 0;
#X connect 435 0 436 0;
#X connect 436 0 438 0;
#X connect 436 0 438 1;
#X connect 437 0 436 1;
#X connect 439 0 580 0;
#X connect 439 0 448 0;
#X connect 440 0 441 0;
#X connect 441 0 443 0;
#X connect 441 0 443 1;
#X connect 442 0 441 1;
#X connect 444 0 667 1;
#X connect 445 0 668 1;
#X connect 446 0 669 1;
#X connect 447 0 670 1;
#X connect 448 0 656 1;
#X connect 449 0 655 1;
#X connect 450 0 654 1;
#X connect 451 0 653 1;
#X connect 452 0 575 0;
#X connect 452 0 475 0;
#X connect 453 0 454 0;
#X connect 454 0 456 0;
#X connect 454 0 456 1;
#X connect 455 0 454 1;
#X connect 457 0 574 0;
#X connect 457 0 474 0;
#X connect 458 0 459 0;
#X connect 459 0 461 0;
#X connect 459 0 461 1;
#X connect 460 0 459 1;
#X connect 462 0 573 0;
#X connect 462 0 473 0;
#X connect 463 0 464 0;
#X connect 464 0 466 0;
#X connect 464 0 466 1;
#X connect 465 0 464 1;
#X connect 467 0 572 0;
#X connect 467 0 472 0;
#X connect 468 0 469 0;
#X connect 469 0 471 0;
#X connect 469 0 471 1;
#X connect 470 0 469 1;
#X connect 472 0 649 1;
#X connect 473 0 650 1;
#X connect 474 0 651 1;
#X connect 475 0 652 1;
#X connect 476 0 595 0;
#X connect 476 0 559 0;
#X connect 477 0 478 0;
#X connect 478 0 480 0;
#X connect 478 0 480 1;
#X connect 479 0 478 1;
#X connect 481 0 594 0;
#X connect 481 0 558 0;
#X connect 482 0 483 0;
#X connect 483 0 485 0;
#X connect 483 0 485 1;
#X connect 484 0 483 1;
#X connect 486 0 593 0;
#X connect 486 0 557 0;
#X connect 487 0 488 0;
#X connect 488 0 490 0;
#X connect 488 0 490 1;
#X connect 489 0 488 1;
#X connect 491 0 592 0;
#X connect 491 0 556 0;
#X connect 492 0 493 0;
#X connect 493 0 495 0;
#X connect 493 0 495 1;
#X connect 494 0 493 1;
#X connect 496 0 596 0;
#X connect 496 0 560 0;
#X connect 497 0 498 0;
#X connect 498 0 500 0;
#X connect 498 0 500 1;
#X connect 499 0 498 1;
#X connect 501 0 597 0;
#X connect 501 0 561 0;
#X connect 502 0 503 0;
#X connect 503 0 505 0;
#X connect 503 0 505 1;
#X connect 504 0 503 1;
#X connect 506 0 598 0;
#X connect 506 0 562 0;
#X connect 507 0 508 0;
#X connect 508 0 510 0;
#X connect 508 0 510 1;
#X connect 509 0 508 1;
#X connect 511 0 599 0;
#X connect 511 0 563 0;
#X connect 512 0 513 0;
#X connect 513 0 515 0;
#X connect 513 0 515 1;
#X connect 514 0 513 1;
#X connect 516 0 603 0;
#X connect 516 0 567 0;
#X connect 517 0 518 0;
#X connect 518 0 520 0;
#X connect 518 0 520 1;
#X connect 519 0 518 1;
#X connect 521 0 602 0;
#X connect 521 0 566 0;
#X connect 522 0 523 0;
#X connect 523 0 525 0;
#X connect 523 0 525 1;
#X connect 524 0 523 1;
#X connect 526 0 601 0;
#X connect 526 0 565 0;
#X connect 527 0 528 0;
#X connect 528 0 530 0;
#X connect 528 0 530 1;
#X connect 529 0 528 1;
#X connect 531 0 600 0;
#X connect 531 0 564 0;
#X connect 532 0 533 0;
#X connect 533 0 535 0;
#X connect 533 0 535 1;
#X connect 534 0 533 1;
#X connect 536 0 604 0;
#X connect 536 0 568 0;
#X connect 537 0 538 0;
#X connect 538 0 540 0;
#X connect 538 0 540 1;
#X connect 539 0 538 1;
#X connect 541 0 605 0;
#X connect 541 0 569 0;
#X connect 542 0 543 0;
#X connect 543 0 545 0;
#X connect 543 0 545 1;
#X connect 544 0 543 1;
#X connect 546 0 606 0;
#X connect 546 0 570 0;
#X connect 547 0 548 0;
#X connect 548 0 550 0;
#X connect 548 0 550 1;
#X connect 549 0 548 1;
#X connect 551 0 607 0;
#X connect 551 0 571 0;
#X connect 552 0 553 0;
#X connect 553 0 555 0;
#X connect 553 0 555 1;
#X connect 554 0 553 1;
#X connect 556 0 717 1;
#X connect 557 0 716 1;
#X connect 558 0 715 1;
#X connect 559 0 714 1;
#X connect 560 0 713 1;
#X connect 561 0 712 1;
#X connect 562 0 711 1;
#X connect 563 0 710 1;
#X connect 564 0 701 1;
#X connect 565 0 700 1;
#X connect 566 0 699 1;
#X connect 567 0 698 1;
#X connect 568 0 694 1;
#X connect 569 0 693 1;
#X connect 570 0 692 1;
#X connect 571 0 691 1;
#X connect 572 0 649 0;
#X connect 573 0 650 0;
#X connect 574 0 651 0;
#X connect 575 0 652 0;
#X connect 580 0 656 0;
#X connect 581 0 655 0;
#X connect 582 0 654 0;
#X connect 583 0 653 0;
#X connect 588 0 667 0;
#X connect 589 0 668 0;
#X connect 590 0 669 0;
#X connect 591 0 670 0;
#X connect 592 0 717 0;
#X connect 593 0 716 0;
#X connect 594 0 715 0;
#X connect 595 0 714 0;
#X connect 596 0 713 0;
#X connect 597 0 712 0;
#X connect 598 0 711 0;
#X connect 599 0 710 0;
#X connect 600 0 701 0;
#X connect 601 0 700 0;
#X connect 602 0 699 0;
#X connect 603 0 698 0;
#X connect 604 0 694 0;
#X connect 605 0 693 0;
#X connect 606 0 692 0;
#X connect 607 0 691 0;
#X connect 608 0 682 0;
#X connect 609 0 681 0;
#X connect 610 0 680 0;
#X connect 611 0 679 0;
#X connect 612 0 671 0;
#X connect 613 0 672 0;
#X connect 614 0 673 0;
#X connect 615 0 674 0;
#X connect 644 0 733 0;
#X connect 645 0 734 0;
#X connect 646 0 735 0;
#X connect 647 0 736 0;
#X connect 648 0 731 0;
#X connect 649 0 775 0;
#X connect 650 0 774 0;
#X connect 651 0 773 0;
#X connect 652 0 772 0;
#X connect 653 0 776 0;
#X connect 654 0 777 0;
#X connect 655 0 778 0;
#X connect 656 0 779 0;
#X connect 657 0 732 0;
#X connect 658 0 740 0;
#X connect 659 0 739 0;
#X connect 660 0 738 0;
#X connect 661 0 737 0;
#X connect 662 0 741 0;
#X connect 663 0 742 0;
#X connect 664 0 743 0;
#X connect 665 0 744 0;
#X connect 666 0 726 0;
#X connect 667 0 768 0;
#X connect 668 0 769 0;
#X connect 669 0 770 0;
#X connect 670 0 771 0;
#X connect 671 0 780 0;
#X connect 672 0 781 0;
#X connect 673 0 782 0;
#X connect 674 0 783 0;
#X connect 675 0 725 0;
#X connect 676 0 748 0;
#X connect 677 0 747 0;
#X connect 678 0 746 0;
#X connect 679 0 784 0;
#X connect 680 0 785 0;
#X connect 681 0 786 0;
#X connect 682 0 787 0;
#X connect 683 0 3 0;
#X connect 684 0 752 0;
#X connect 685 0 751 0;
#X connect 686 0 750 0;
#X connect 687 0 754 0;
#X connect 688 0 755 0;
#X connect 689 0 237 0;
#X connect 690 0 727 0;
#X connect 691 0 791 0;
#X connect 692 0 790 0;
#X connect 693 0 789 0;
#X connect 694 0 788 0;
#X connect 695 0 745 0;
#X connect 696 0 749 0;
#X connect 697 0 753 0;
#X connect 698 0 792 0;
#X connect 699 0 793 0;
#X connect 700 0 794 0;
#X connect 701 0 795 0;
#X connect 702 0 728 0;
#X connect 703 0 759 0;
#X connect 704 0 758 0;
#X connect 705 0 757 0;
#X connect 706 0 761 0;
#X connect 707 0 762 0;
#X connect 708 0 763 0;
#X connect 709 0 729 0;
#X connect 710 0 799 0;
#X connect 711 0 798 0;
#X connect 712 0 797 0;
#X connect 713 0 796 0;
#X connect 714 0 800 0;
#X connect 715 0 801 0;
#X connect 716 0 802 0;
#X connect 717 0 803 0;
#X connect 718 0 730 0;
#X connect 719 0 767 0;
#X connect 720 0 766 0;
#X connect 721 0 765 0;
#X connect 722 0 764 0;
#X connect 723 0 760 0;
#X connect 724 0 756 0;
#X connect 725 0 293 0;
#X connect 725 0 351 0;
#X connect 726 0 299 0;
#X connect 726 0 350 0;
#X connect 727 0 332 0;
#X connect 727 0 352 0;
#X connect 728 0 327 0;
#X connect 728 0 353 0;
#X connect 729 0 322 0;
#X connect 729 0 354 0;
#X connect 730 0 317 0;
#X connect 730 0 355 0;
#X connect 731 0 311 0;
#X connect 731 0 348 0;
#X connect 732 0 304 0;
#X connect 732 0 349 0;
#X connect 733 0 149 0;
#X connect 733 0 159 0;
#X connect 734 0 144 0;
#X connect 734 0 160 0;
#X connect 735 0 138 0;
#X connect 735 0 161 0;
#X connect 736 0 132 0;
#X connect 736 0 162 0;
#X connect 737 0 109 0;
#X connect 737 0 127 0;
#X connect 738 0 104 0;
#X connect 738 0 128 0;
#X connect 739 0 98 0;
#X connect 739 0 129 0;
#X connect 740 0 92 0;
#X connect 740 0 130 0;
#X connect 741 0 85 0;
#X connect 741 0 119 0;
#X connect 742 0 80 0;
#X connect 742 0 120 0;
#X connect 743 0 74 0;
#X connect 743 0 121 0;
#X connect 744 0 68 0;
#X connect 744 0 122 0;
#X connect 745 0 53 0;
#X connect 745 0 66 0;
#X connect 746 0 48 0;
#X connect 746 0 65 0;
#X connect 747 0 42 0;
#X connect 747 0 64 0;
#X connect 748 0 36 0;
#X connect 748 0 63 0;
#X connect 749 0 26 0;
#X connect 749 0 33 0;
#X connect 750 0 20 0;
#X connect 750 0 34 0;
#X connect 751 0 12 0;
#X connect 751 0 18 0;
#X connect 752 0 2 0;
#X connect 752 0 6 0;
#X connect 753 0 254 0;
#X connect 753 0 276 0;
#X connect 754 0 249 0;
#X connect 754 0 277 0;
#X connect 755 0 243 0;
#X connect 755 0 278 0;
#X connect 756 0 229 0;
#X connect 756 0 287 0;
#X connect 757 0 224 0;
#X connect 757 0 286 0;
#X connect 758 0 218 0;
#X connect 758 0 285 0;
#X connect 759 0 212 0;
#X connect 759 0 284 0;
#X connect 760 0 205 0;
#X connect 760 0 288 0;
#X connect 761 0 200 0;
#X connect 761 0 289 0;
#X connect 762 0 194 0;
#X connect 762 0 290 0;
#X connect 763 0 188 0;
#X connect 763 0 291 0;
#X connect 764 0 181 0;
#X connect 764 0 280 0;
#X connect 765 0 176 0;
#X connect 765 0 281 0;
#X connect 766 0 170 0;
#X connect 766 0 282 0;
#X connect 767 0 164 0;
#X connect 767 0 283 0;
#X connect 768 0 420 0;
#X connect 768 0 616 0;
#X connect 769 0 415 0;
#X connect 769 0 617 0;
#X connect 770 0 410 0;
#X connect 770 0 618 0;
#X connect 771 0 405 0;
#X connect 771 0 619 0;
#X connect 772 0 453 0;
#X connect 772 0 579 0;
#X connect 773 0 458 0;
#X connect 773 0 578 0;
#X connect 774 0 463 0;
#X connect 774 0 577 0;
#X connect 775 0 468 0;
#X connect 775 0 576 0;
#X connect 776 0 425 0;
#X connect 776 0 587 0;
#X connect 777 0 430 0;
#X connect 777 0 586 0;
#X connect 778 0 435 0;
#X connect 778 0 585 0;
#X connect 779 0 440 0;
#X connect 779 0 584 0;
#X connect 780 0 381 0;
#X connect 780 0 641 0;
#X connect 781 0 386 0;
#X connect 781 0 640 0;
#X connect 782 0 391 0;
#X connect 782 0 639 0;
#X connect 783 0 396 0;
#X connect 783 0 638 0;
#X connect 784 0 357 0;
#X connect 784 0 634 0;
#X connect 785 0 363 0;
#X connect 785 0 635 0;
#X connect 786 0 369 0;
#X connect 786 0 636 0;
#X connect 787 0 375 0;
#X connect 787 0 637 0;
#X connect 788 0 537 0;
#X connect 788 0 633 0;
#X connect 789 0 542 0;
#X connect 789 0 632 0;
#X connect 790 0 547 0;
#X connect 790 0 631 0;
#X connect 791 0 552 0;
#X connect 791 0 630 0;
#X connect 792 0 517 0;
#X connect 792 0 629 0;
#X connect 793 0 522 0;
#X connect 793 0 628 0;
#X connect 794 0 527 0;
#X connect 794 0 627 0;
#X connect 795 0 532 0;
#X connect 795 0 642 0;
#X connect 796 0 497 0;
#X connect 796 0 623 0;
#X connect 797 0 502 0;
#X connect 797 0 624 0;
#X connect 798 0 507 0;
#X connect 798 0 625 0;
#X connect 799 0 512 0;
#X connect 799 0 626 0;
#X connect 800 0 477 0;
#X connect 800 0 622 0;
#X connect 801 0 482 0;
#X connect 801 0 643 0;
#X connect 802 0 487 0;
#X connect 802 0 621 0;
#X connect 803 0 492 0;
#X connect 803 0 620 0;
#X connect 804 0 871 0;
#X connect 804 0 806 0;
#X connect 805 0 807 0;
#X connect 806 0 862 1;
#X connect 807 0 809 0;
#X connect 807 0 809 1;
#X connect 808 0 807 1;
#X connect 810 0 870 0;
#X connect 810 0 815 0;
#X connect 811 0 812 0;
#X connect 812 0 814 0;
#X connect 812 0 814 1;
#X connect 813 0 812 1;
#X connect 815 0 861 1;
#X connect 816 0 869 0;
#X connect 816 0 826 0;
#X connect 817 0 818 0;
#X connect 818 0 820 0;
#X connect 818 0 820 1;
#X connect 819 0 818 1;
#X connect 821 0 868 0;
#X connect 821 0 827 0;
#X connect 822 0 823 0;
#X connect 823 0 825 0;
#X connect 823 0 825 1;
#X connect 824 0 823 1;
#X connect 826 0 860 1;
#X connect 827 0 859 1;
#X connect 828 0 867 0;
#X connect 828 0 833 0;
#X connect 829 0 830 0;
#X connect 830 0 832 0;
#X connect 830 0 832 1;
#X connect 831 0 830 1;
#X connect 833 0 858 1;
#X connect 834 0 875 0;
#X connect 834 0 854 0;
#X connect 835 0 836 0;
#X connect 836 0 838 0;
#X connect 836 0 838 1;
#X connect 837 0 836 1;
#X connect 839 0 874 0;
#X connect 839 0 855 0;
#X connect 840 0 841 0;
#X connect 841 0 843 0;
#X connect 841 0 843 1;
#X connect 842 0 841 1;
#X connect 844 0 873 0;
#X connect 844 0 856 0;
#X connect 845 0 846 0;
#X connect 846 0 848 0;
#X connect 846 0 848 1;
#X connect 847 0 846 1;
#X connect 849 0 872 0;
#X connect 849 0 857 0;
#X connect 850 0 851 0;
#X connect 851 0 853 0;
#X connect 851 0 853 1;
#X connect 852 0 851 1;
#X connect 854 0 864 1;
#X connect 855 0 865 1;
#X connect 856 0 866 1;
#X connect 857 0 863 1;
#X connect 858 0 1203 0;
#X connect 859 0 1202 0;
#X connect 860 0 1201 0;
#X connect 861 0 1200 0;
#X connect 862 0 1199 0;
#X connect 863 0 1198 0;
#X connect 864 0 1195 0;
#X connect 865 0 1196 0;
#X connect 866 0 1197 0;
#X connect 867 0 858 0;
#X connect 868 0 859 0;
#X connect 869 0 860 0;
#X connect 870 0 861 0;
#X connect 871 0 862 0;
#X connect 872 0 863 0;
#X connect 873 0 866 0;
#X connect 874 0 865 0;
#X connect 875 0 864 0;
#X connect 876 0 878 0;
#X connect 876 0 950 0;
#X connect 877 0 879 0;
#X connect 878 0 933 0;
#X connect 879 0 881 0;
#X connect 879 0 881 1;
#X connect 880 0 879 1;
#X connect 882 0 887 0;
#X connect 882 0 949 0;
#X connect 883 0 884 0;
#X connect 884 0 886 0;
#X connect 884 0 886 1;
#X connect 885 0 884 1;
#X connect 887 0 932 0;
#X connect 888 0 898 0;
#X connect 888 0 948 0;
#X connect 889 0 890 0;
#X connect 890 0 892 0;
#X connect 890 0 892 1;
#X connect 891 0 890 1;
#X connect 893 0 899 0;
#X connect 893 0 947 0;
#X connect 894 0 895 0;
#X connect 895 0 897 0;
#X connect 895 0 897 1;
#X connect 896 0 895 1;
#X connect 898 0 931 0;
#X connect 899 0 930 0;
#X connect 900 0 905 0;
#X connect 900 0 951 0;
#X connect 901 0 902 0;
#X connect 902 0 904 0;
#X connect 902 0 904 1;
#X connect 903 0 902 1;
#X connect 905 0 934 0;
#X connect 906 0 929 0;
#X connect 906 0 955 0;
#X connect 907 0 908 0;
#X connect 908 0 910 0;
#X connect 908 0 910 1;
#X connect 909 0 908 1;
#X connect 911 0 928 0;
#X connect 911 0 954 0;
#X connect 912 0 913 0;
#X connect 913 0 915 0;
#X connect 913 0 915 1;
#X connect 914 0 913 1;
#X connect 916 0 927 0;
#X connect 916 0 953 0;
#X connect 917 0 918 0;
#X connect 918 0 920 0;
#X connect 918 0 920 1;
#X connect 919 0 918 1;
#X connect 921 0 926 0;
#X connect 921 0 952 0;
#X connect 922 0 923 0;
#X connect 923 0 925 0;
#X connect 923 0 925 1;
#X connect 924 0 923 1;
#X connect 926 0 935 0;
#X connect 927 0 936 0;
#X connect 928 0 937 0;
#X connect 929 0 938 0;
#X connect 930 0 1168 0;
#X connect 931 0 1169 0;
#X connect 932 0 1170 0;
#X connect 933 0 1172 0;
#X connect 934 0 1173 0;
#X connect 935 0 1174 0;
#X connect 936 0 1175 0;
#X connect 937 0 1171 0;
#X connect 938 0 1176 0;
#X connect 939 0 945 0;
#X connect 939 0 946 0;
#X connect 940 0 941 0;
#X connect 941 0 943 0;
#X connect 941 0 943 1;
#X connect 942 0 941 1;
#X connect 944 0 1164 0;
#X connect 945 0 944 0;
#X connect 946 0 944 1;
#X connect 947 0 930 1;
#X connect 948 0 931 1;
#X connect 949 0 932 1;
#X connect 950 0 933 1;
#X connect 951 0 934 1;
#X connect 952 0 935 1;
#X connect 953 0 936 1;
#X connect 954 0 937 1;
#X connect 955 0 938 1;
#X connect 975 0 982 0;
#X connect 975 0 981 0;
#X connect 976 0 977 0;
#X connect 977 0 979 0;
#X connect 977 0 979 1;
#X connect 978 0 977 1;
#X connect 980 0 1165 0;
#X connect 981 0 980 1;
#X connect 982 0 980 0;
#X connect 984 0 1055 0;
#X connect 984 0 986 0;
#X connect 985 0 987 0;
#X connect 986 0 1042 1;
#X connect 987 0 989 0;
#X connect 987 0 989 1;
#X connect 988 0 987 1;
#X connect 990 0 1053 0;
#X connect 990 0 995 0;
#X connect 991 0 992 0;
#X connect 992 0 994 0;
#X connect 992 0 994 1;
#X connect 993 0 992 1;
#X connect 995 0 1041 1;
#X connect 996 0 1051 0;
#X connect 996 0 1006 0;
#X connect 997 0 998 0;
#X connect 998 0 1000 0;
#X connect 998 0 1000 1;
#X connect 999 0 998 1;
#X connect 1001 0 1048 0;
#X connect 1001 0 1007 0;
#X connect 1002 0 1003 0;
#X connect 1003 0 1005 0;
#X connect 1003 0 1005 1;
#X connect 1004 0 1003 1;
#X connect 1006 0 1040 1;
#X connect 1007 0 1039 1;
#X connect 1008 0 1047 0;
#X connect 1008 0 1013 0;
#X connect 1009 0 1010 0;
#X connect 1010 0 1012 0;
#X connect 1010 0 1012 1;
#X connect 1011 0 1010 1;
#X connect 1013 0 1038 1;
#X connect 1014 0 1063 0;
#X connect 1014 0 1034 0;
#X connect 1015 0 1016 0;
#X connect 1016 0 1018 0;
#X connect 1016 0 1018 1;
#X connect 1017 0 1016 1;
#X connect 1019 0 1061 0;
#X connect 1019 0 1035 0;
#X connect 1020 0 1021 0;
#X connect 1021 0 1023 0;
#X connect 1021 0 1023 1;
#X connect 1022 0 1021 1;
#X connect 1024 0 1059 0;
#X connect 1024 0 1036 0;
#X connect 1025 0 1026 0;
#X connect 1026 0 1028 0;
#X connect 1026 0 1028 1;
#X connect 1027 0 1026 1;
#X connect 1029 0 1057 0;
#X connect 1029 0 1037 0;
#X connect 1030 0 1031 0;
#X connect 1031 0 1033 0;
#X connect 1031 0 1033 1;
#X connect 1032 0 1031 1;
#X connect 1034 0 1046 1;
#X connect 1035 0 1045 1;
#X connect 1036 0 1044 1;
#X connect 1037 0 1043 1;
#X connect 1038 0 1177 0;
#X connect 1039 0 1178 0;
#X connect 1040 0 1179 0;
#X connect 1041 0 1180 0;
#X connect 1042 0 1181 0;
#X connect 1043 0 1182 0;
#X connect 1044 0 1183 0;
#X connect 1045 0 1184 0;
#X connect 1046 0 1185 0;
#X connect 1047 0 1038 0;
#X connect 1048 0 1039 0;
#X connect 1051 0 1040 0;
#X connect 1053 0 1041 0;
#X connect 1055 0 1042 0;
#X connect 1057 0 1043 0;
#X connect 1059 0 1044 0;
#X connect 1061 0 1045 0;
#X connect 1063 0 1046 0;
#X connect 1065 0 1067 0;
#X connect 1065 0 1150 0;
#X connect 1066 0 1068 0;
#X connect 1067 0 1124 0;
#X connect 1068 0 1070 0;
#X connect 1068 0 1070 1;
#X connect 1069 0 1068 1;
#X connect 1071 0 1076 0;
#X connect 1071 0 1148 0;
#X connect 1072 0 1073 0;
#X connect 1073 0 1075 0;
#X connect 1073 0 1075 1;
#X connect 1074 0 1073 1;
#X connect 1076 0 1125 0;
#X connect 1077 0 1087 0;
#X connect 1077 0 1146 0;
#X connect 1078 0 1079 0;
#X connect 1079 0 1081 0;
#X connect 1079 0 1081 1;
#X connect 1080 0 1079 1;
#X connect 1082 0 1088 0;
#X connect 1082 0 1144 0;
#X connect 1083 0 1084 0;
#X connect 1084 0 1086 0;
#X connect 1084 0 1086 1;
#X connect 1085 0 1084 1;
#X connect 1087 0 1126 0;
#X connect 1088 0 1127 0;
#X connect 1089 0 1094 0;
#X connect 1089 0 1152 0;
#X connect 1090 0 1091 0;
#X connect 1091 0 1093 0;
#X connect 1091 0 1093 1;
#X connect 1092 0 1091 1;
#X connect 1094 0 1123 0;
#X connect 1095 0 1118 0;
#X connect 1095 0 1160 0;
#X connect 1096 0 1097 0;
#X connect 1097 0 1099 0;
#X connect 1097 0 1099 1;
#X connect 1098 0 1097 1;
#X connect 1100 0 1117 0;
#X connect 1100 0 1158 0;
#X connect 1101 0 1102 0;
#X connect 1102 0 1104 0;
#X connect 1102 0 1104 1;
#X connect 1103 0 1102 1;
#X connect 1105 0 1116 0;
#X connect 1105 0 1156 0;
#X connect 1106 0 1107 0;
#X connect 1107 0 1109 0;
#X connect 1107 0 1109 1;
#X connect 1108 0 1107 1;
#X connect 1110 0 1115 0;
#X connect 1110 0 1154 0;
#X connect 1111 0 1112 0;
#X connect 1112 0 1114 0;
#X connect 1112 0 1114 1;
#X connect 1113 0 1112 1;
#X connect 1115 0 1122 0;
#X connect 1116 0 1121 0;
#X connect 1117 0 1120 0;
#X connect 1118 0 1119 0;
#X connect 1119 0 1186 0;
#X connect 1120 0 1187 0;
#X connect 1121 0 1188 0;
#X connect 1122 0 1189 0;
#X connect 1123 0 1190 0;
#X connect 1124 0 1191 0;
#X connect 1125 0 1192 0;
#X connect 1126 0 1193 0;
#X connect 1127 0 1194 0;
#X connect 1128 0 1134 0;
#X connect 1128 0 1142 0;
#X connect 1129 0 1130 0;
#X connect 1130 0 1132 0;
#X connect 1130 0 1132 1;
#X connect 1131 0 1130 1;
#X connect 1133 0 1166 0;
#X connect 1134 0 1133 0;
#X connect 1135 0 1141 0;
#X connect 1135 0 1162 0;
#X connect 1136 0 1137 0;
#X connect 1137 0 1139 0;
#X connect 1137 0 1139 1;
#X connect 1138 0 1137 1;
#X connect 1140 0 1167 0;
#X connect 1141 0 1140 0;
#X connect 1142 0 1133 1;
#X connect 1144 0 1127 1;
#X connect 1146 0 1126 1;
#X connect 1148 0 1125 1;
#X connect 1150 0 1124 1;
#X connect 1152 0 1123 1;
#X connect 1154 0 1122 1;
#X connect 1156 0 1121 1;
#X connect 1158 0 1120 1;
#X connect 1160 0 1119 1;
#X connect 1162 0 1140 1;
#X connect 1164 0 940 0;
#X connect 1164 0 965 0;
#X connect 1165 0 976 0;
#X connect 1165 0 983 0;
#X connect 1166 0 1129 0;
#X connect 1166 0 1143 0;
#X connect 1167 0 1136 0;
#X connect 1167 0 1163 0;
#X connect 1168 0 894 0;
#X connect 1168 0 964 0;
#X connect 1169 0 889 0;
#X connect 1169 0 963 0;
#X connect 1170 0 883 0;
#X connect 1170 0 962 0;
#X connect 1171 0 912 0;
#X connect 1171 0 957 0;
#X connect 1172 0 877 0;
#X connect 1172 0 961 0;
#X connect 1173 0 901 0;
#X connect 1173 0 960 0;
#X connect 1174 0 922 0;
#X connect 1174 0 959 0;
#X connect 1175 0 917 0;
#X connect 1175 0 958 0;
#X connect 1176 0 907 0;
#X connect 1176 0 956 0;
#X connect 1177 0 1009 0;
#X connect 1177 0 1049 0;
#X connect 1178 0 1002 0;
#X connect 1178 0 1050 0;
#X connect 1179 0 997 0;
#X connect 1179 0 1052 0;
#X connect 1180 0 991 0;
#X connect 1180 0 1054 0;
#X connect 1181 0 985 0;
#X connect 1181 0 1056 0;
#X connect 1182 0 1030 0;
#X connect 1182 0 1058 0;
#X connect 1183 0 1025 0;
#X connect 1183 0 1060 0;
#X connect 1184 0 1020 0;
#X connect 1184 0 1062 0;
#X connect 1185 0 1015 0;
#X connect 1185 0 1064 0;
#X connect 1186 0 1096 0;
#X connect 1186 0 1161 0;
#X connect 1187 0 1101 0;
#X connect 1187 0 1159 0;
#X connect 1188 0 1106 0;
#X connect 1188 0 1157 0;
#X connect 1189 0 1111 0;
#X connect 1189 0 1155 0;
#X connect 1190 0 1090 0;
#X connect 1190 0 1153 0;
#X connect 1191 0 1066 0;
#X connect 1191 0 1151 0;
#X connect 1192 0 1072 0;
#X connect 1192 0 1149 0;
#X connect 1193 0 1078 0;
#X connect 1193 0 1147 0;
#X connect 1194 0 1083 0;
#X connect 1194 0 1145 0;
#X connect 1195 0 835 0;
#X connect 1195 0 974 0;
#X connect 1196 0 840 0;
#X connect 1196 0 973 0;
#X connect 1197 0 845 0;
#X connect 1197 0 972 0;
#X connect 1198 0 850 0;
#X connect 1198 0 971 0;
#X connect 1199 0 805 0;
#X connect 1199 0 970 0;
#X connect 1200 0 811 0;
#X connect 1200 0 969 0;
#X connect 1201 0 817 0;
#X connect 1201 0 968 0;
#X connect 1202 0 822 0;
#X connect 1202 0 967 0;
#X connect 1203 0 829 0;
#X connect 1203 0 966 0;
#X connect 1204 0 683 0;
#X connect 1205 0 683 1;
