#N canvas -8 -8 1366 689 10;
#X obj 681 883 loadbang;
#X obj 512 883 loadbang;
#X obj 512 981 readsf~;
#X msg 512 953 open sounds/c_piano.wav \, 1;
#X msg 681 900 0;
#X msg 715 900 0;
#X obj 681 953 s g5_5;
#X msg 512 900 4;
#X msg 546 900 5;
#X obj 564 981 s g4_5;
#X text 19 17 This is where all the inputs come in and sounds being
played. Bangs are then sent out to be viewed on master;
#X obj 512 1023 *~;
#X obj 562 1006 r vol;
#X obj 511 1059 dac~;
#X obj 347 883 loadbang;
#X obj 347 981 readsf~;
#X msg 347 953 open sounds/c_piano.wav \, 1;
#X msg 381 900 5;
#X obj 347 1023 *~;
#X obj 397 1006 r vol;
#X obj 346 1059 dac~;
#X msg 347 900 3;
#X obj 399 981 s g3_5;
#X obj 182 883 loadbang;
#X obj 182 981 readsf~;
#X msg 182 953 open sounds/c_piano.wav \, 1;
#X msg 216 900 5;
#X obj 182 1023 *~;
#X obj 232 1006 r vol;
#X obj 181 1059 dac~;
#X obj 17 883 loadbang;
#X obj 17 981 readsf~;
#X msg 17 953 open sounds/c_piano.wav \, 1;
#X msg 51 900 5;
#X obj 17 1023 *~;
#X obj 67 1006 r vol;
#X obj 16 1059 dac~;
#X msg 182 900 2;
#X msg 17 900 1;
#X obj 69 981 s g1_5;
#X obj 234 981 s g2_5;
#X obj 512 682 loadbang;
#X obj 512 780 readsf~;
#X msg 512 752 open sounds/c_piano.wav \, 1;
#X msg 512 699 4;
#X obj 512 822 *~;
#X obj 562 805 r vol;
#X obj 511 858 dac~;
#X obj 347 682 loadbang;
#X obj 347 780 readsf~;
#X msg 347 752 open sounds/c_piano.wav \, 1;
#X obj 347 822 *~;
#X obj 397 805 r vol;
#X obj 346 858 dac~;
#X msg 347 699 3;
#X obj 182 682 loadbang;
#X obj 182 780 readsf~;
#X msg 182 752 open sounds/c_piano.wav \, 1;
#X obj 182 822 *~;
#X obj 232 805 r vol;
#X obj 181 858 dac~;
#X obj 17 682 loadbang;
#X obj 17 780 readsf~;
#X msg 17 752 open sounds/c_piano.wav \, 1;
#X obj 17 822 *~;
#X obj 67 805 r vol;
#X obj 16 858 dac~;
#X msg 182 699 2;
#X msg 17 699 1;
#X msg 51 699 4;
#X msg 216 699 4;
#X msg 380 699 4;
#X msg 546 699 4;
#X obj 564 780 s g4_4;
#X obj 399 780 s g3_4;
#X obj 234 780 s g2_4;
#X obj 69 780 s g1_4;
#X obj 512 481 loadbang;
#X obj 512 579 readsf~;
#X msg 512 551 open sounds/c_piano.wav \, 1;
#X msg 512 498 4;
#X obj 512 621 *~;
#X obj 562 604 r vol;
#X obj 511 657 dac~;
#X obj 347 481 loadbang;
#X obj 347 579 readsf~;
#X msg 347 551 open sounds/c_piano.wav \, 1;
#X obj 347 621 *~;
#X obj 397 604 r vol;
#X obj 346 657 dac~;
#X msg 347 498 3;
#X obj 182 481 loadbang;
#X obj 182 579 readsf~;
#X msg 182 551 open sounds/c_piano.wav \, 1;
#X obj 182 621 *~;
#X obj 232 604 r vol;
#X obj 181 657 dac~;
#X obj 17 481 loadbang;
#X obj 17 579 readsf~;
#X msg 17 551 open sounds/c_piano.wav \, 1;
#X obj 17 621 *~;
#X obj 67 604 r vol;
#X obj 16 657 dac~;
#X msg 182 498 2;
#X msg 17 498 1;
#X obj 512 280 loadbang;
#X obj 512 378 readsf~;
#X msg 512 350 open sounds/c_piano.wav \, 1;
#X msg 512 297 4;
#X obj 512 420 *~;
#X obj 562 403 r vol;
#X obj 511 456 dac~;
#X obj 347 280 loadbang;
#X obj 347 378 readsf~;
#X msg 347 350 open sounds/c_piano.wav \, 1;
#X obj 347 420 *~;
#X obj 397 403 r vol;
#X obj 346 456 dac~;
#X msg 347 297 3;
#X obj 182 280 loadbang;
#X obj 182 378 readsf~;
#X msg 182 350 open sounds/c_piano.wav \, 1;
#X obj 182 420 *~;
#X obj 232 403 r vol;
#X obj 181 456 dac~;
#X obj 17 280 loadbang;
#X obj 17 378 readsf~;
#X msg 17 350 open sounds/c_piano.wav \, 1;
#X obj 17 420 *~;
#X obj 67 403 r vol;
#X obj 16 456 dac~;
#X msg 182 297 2;
#X msg 17 297 1;
#X msg 51 498 3;
#X msg 216 498 3;
#X msg 380 498 3;
#X msg 546 498 3;
#X obj 69 579 s g1_3;
#X obj 234 579 s g2_3;
#X obj 399 579 s g3_3;
#X obj 564 579 s g4_3;
#X msg 51 297 2;
#X msg 216 297 2;
#X msg 380 297 2;
#X msg 546 297 2;
#X obj 69 378 s g1_2;
#X obj 234 378 s g2_2;
#X obj 399 378 s g3_2;
#X obj 564 378 s g4_2;
#X obj 513 79 loadbang;
#X obj 513 177 readsf~;
#X msg 513 149 open sounds/c_piano.wav \, 1;
#X msg 513 96 4;
#X obj 513 219 *~;
#X obj 563 202 r vol;
#X obj 512 255 dac~;
#X obj 348 79 loadbang;
#X obj 348 177 readsf~;
#X msg 348 149 open sounds/c_piano.wav \, 1;
#X obj 348 219 *~;
#X obj 398 202 r vol;
#X obj 347 255 dac~;
#X msg 348 96 3;
#X obj 183 79 loadbang;
#X obj 183 177 readsf~;
#X msg 183 149 open sounds/c_piano.wav \, 1;
#X obj 183 219 *~;
#X obj 233 202 r vol;
#X obj 182 255 dac~;
#X obj 18 79 loadbang;
#X obj 18 177 readsf~;
#X msg 18 149 open sounds/c_piano.wav \, 1;
#X obj 18 219 *~;
#X obj 68 202 r vol;
#X obj 17 255 dac~;
#X msg 183 96 2;
#X msg 18 96 1;
#X msg 51 96 1;
#X msg 217 96 1;
#X msg 381 96 1;
#X msg 547 96 1;
#X obj 70 177 s g1_1;
#X obj 235 177 s g2_1;
#X obj 400 177 s g3_1;
#X obj 565 177 s g4_1;
#X obj 511 1688 loadbang;
#X obj 511 1786 readsf~;
#X msg 511 1758 open sounds/c_piano.wav \, 1;
#X msg 511 1705 4;
#X obj 511 1828 *~;
#X obj 561 1811 r vol;
#X obj 510 1864 dac~;
#X obj 346 1688 loadbang;
#X obj 346 1786 readsf~;
#X msg 346 1758 open sounds/c_piano.wav \, 1;
#X obj 346 1828 *~;
#X obj 396 1811 r vol;
#X obj 345 1864 dac~;
#X msg 346 1705 3;
#X obj 181 1688 loadbang;
#X obj 181 1786 readsf~;
#X msg 181 1758 open sounds/c_piano.wav \, 1;
#X obj 181 1828 *~;
#X obj 231 1811 r vol;
#X obj 180 1864 dac~;
#X obj 16 1688 loadbang;
#X obj 16 1786 readsf~;
#X msg 16 1758 open sounds/c_piano.wav \, 1;
#X obj 16 1828 *~;
#X obj 66 1811 r vol;
#X obj 15 1864 dac~;
#X msg 181 1705 2;
#X msg 16 1705 1;
#X obj 511 1487 loadbang;
#X obj 511 1585 readsf~;
#X msg 511 1557 open sounds/c_piano.wav \, 1;
#X msg 511 1504 4;
#X obj 511 1627 *~;
#X obj 561 1610 r vol;
#X obj 510 1663 dac~;
#X obj 346 1487 loadbang;
#X obj 346 1585 readsf~;
#X msg 346 1557 open sounds/c_piano.wav \, 1;
#X obj 346 1627 *~;
#X obj 396 1610 r vol;
#X obj 345 1663 dac~;
#X msg 346 1504 3;
#X obj 181 1487 loadbang;
#X obj 181 1585 readsf~;
#X msg 181 1557 open sounds/c_piano.wav \, 1;
#X obj 181 1627 *~;
#X obj 231 1610 r vol;
#X obj 180 1663 dac~;
#X obj 16 1487 loadbang;
#X obj 16 1585 readsf~;
#X msg 16 1557 open sounds/c_piano.wav \, 1;
#X obj 16 1627 *~;
#X obj 66 1610 r vol;
#X obj 15 1663 dac~;
#X msg 181 1504 2;
#X msg 16 1504 1;
#X obj 511 1286 loadbang;
#X obj 511 1384 readsf~;
#X msg 511 1356 open sounds/c_piano.wav \, 1;
#X msg 511 1303 4;
#X obj 511 1426 *~;
#X obj 561 1409 r vol;
#X obj 510 1462 dac~;
#X obj 346 1286 loadbang;
#X obj 346 1384 readsf~;
#X msg 346 1356 open sounds/c_piano.wav \, 1;
#X obj 346 1426 *~;
#X obj 396 1409 r vol;
#X obj 345 1462 dac~;
#X msg 346 1303 3;
#X obj 181 1286 loadbang;
#X obj 181 1384 readsf~;
#X msg 181 1356 open sounds/c_piano.wav \, 1;
#X obj 181 1426 *~;
#X obj 231 1409 r vol;
#X obj 180 1462 dac~;
#X obj 16 1286 loadbang;
#X obj 16 1384 readsf~;
#X msg 16 1356 open sounds/c_piano.wav \, 1;
#X obj 16 1426 *~;
#X obj 66 1409 r vol;
#X obj 15 1462 dac~;
#X msg 181 1303 2;
#X msg 16 1303 1;
#X obj 512 1085 loadbang;
#X obj 512 1183 readsf~;
#X msg 512 1155 open sounds/c_piano.wav \, 1;
#X msg 512 1102 4;
#X obj 512 1225 *~;
#X obj 562 1208 r vol;
#X obj 511 1261 dac~;
#X obj 347 1085 loadbang;
#X obj 347 1183 readsf~;
#X msg 347 1155 open sounds/c_piano.wav \, 1;
#X obj 347 1225 *~;
#X obj 397 1208 r vol;
#X obj 346 1261 dac~;
#X msg 347 1102 3;
#X obj 182 1085 loadbang;
#X obj 182 1183 readsf~;
#X msg 182 1155 open sounds/c_piano.wav \, 1;
#X obj 182 1225 *~;
#X obj 232 1208 r vol;
#X obj 181 1261 dac~;
#X obj 17 1085 loadbang;
#X obj 17 1183 readsf~;
#X msg 17 1155 open sounds/c_piano.wav \, 1;
#X obj 17 1225 *~;
#X obj 67 1208 r vol;
#X obj 16 1261 dac~;
#X msg 182 1102 2;
#X msg 17 1102 1;
#X msg 50 1705 9;
#X msg 215 1705 9;
#X msg 379 1705 9;
#X msg 545 1705 9;
#X msg 545 1504 8;
#X msg 379 1504 8;
#X msg 215 1504 8;
#X msg 50 1504 8;
#X msg 50 1303 7;
#X msg 215 1303 7;
#X msg 379 1303 7;
#X msg 545 1303 7;
#X msg 546 1102 6;
#X msg 380 1102 6;
#X msg 216 1102 6;
#X msg 50 1102 6;
#X obj 69 1183 s g1_6;
#X obj 234 1183 s g2_6;
#X obj 399 1183 s g3_6;
#X obj 564 1183 s g4_6;
#X obj 68 1786 s g1_9;
#X obj 233 1786 s g2_9;
#X obj 398 1786 s g3_9;
#X obj 563 1786 s g4_9;
#X obj 563 1384 s g4_7;
#X obj 398 1384 s g3_7;
#X obj 233 1384 s g2_7;
#X obj 68 1384 s g1_7;
#X obj 68 1585 s g1_8;
#X obj 233 1585 s g2_8;
#X obj 398 1585 s g3_8;
#X obj 563 1585 s g4_8;
#X obj 676 682 loadbang;
#X obj 676 780 readsf~;
#X msg 676 752 open sounds/c_piano.wav \, 1;
#X obj 676 822 *~;
#X obj 726 805 r vol;
#X obj 675 858 dac~;
#X msg 710 699 4;
#X obj 676 481 loadbang;
#X obj 676 579 readsf~;
#X msg 676 551 open sounds/c_piano.wav \, 1;
#X obj 676 621 *~;
#X obj 726 604 r vol;
#X obj 675 657 dac~;
#X obj 676 280 loadbang;
#X obj 676 378 readsf~;
#X msg 676 350 open sounds/c_piano.wav \, 1;
#X obj 676 420 *~;
#X obj 726 403 r vol;
#X obj 675 456 dac~;
#X msg 710 498 3;
#X msg 710 297 2;
#X obj 677 79 loadbang;
#X obj 677 177 readsf~;
#X msg 677 149 open sounds/c_piano.wav \, 1;
#X obj 677 219 *~;
#X obj 727 202 r vol;
#X obj 676 255 dac~;
#X msg 710 96 1;
#X obj 675 1688 loadbang;
#X obj 675 1786 readsf~;
#X msg 675 1758 open sounds/c_piano.wav \, 1;
#X obj 675 1828 *~;
#X obj 725 1811 r vol;
#X obj 674 1864 dac~;
#X obj 675 1487 loadbang;
#X obj 675 1585 readsf~;
#X msg 675 1557 open sounds/c_piano.wav \, 1;
#X obj 675 1627 *~;
#X obj 725 1610 r vol;
#X obj 674 1663 dac~;
#X obj 675 1286 loadbang;
#X obj 675 1384 readsf~;
#X msg 675 1356 open sounds/c_piano.wav \, 1;
#X obj 675 1426 *~;
#X obj 725 1409 r vol;
#X obj 674 1462 dac~;
#X obj 676 1085 loadbang;
#X obj 676 1183 readsf~;
#X msg 676 1155 open sounds/c_piano.wav \, 1;
#X obj 676 1225 *~;
#X obj 726 1208 r vol;
#X obj 675 1261 dac~;
#X msg 709 1705 9;
#X msg 709 1504 8;
#X msg 709 1303 7;
#X msg 709 1102 6;
#X msg 676 1102 5;
#X msg 675 1303 5;
#X msg 675 1705 5;
#X msg 675 1504 5;
#X msg 677 96 5;
#X msg 676 297 5;
#X msg 676 498 5;
#X msg 676 699 5;
#X obj 729 177 s g5_1;
#X obj 728 378 s g5_2;
#X obj 728 579 s g5_3;
#X obj 728 780 s g5_4;
#X obj 728 1183 s g5_6;
#X obj 727 1384 s g5_7;
#X obj 727 1585 s g5_8;
#X obj 727 1786 s g5_9;
#X obj 1361 883 loadbang;
#X obj 1361 981 readsf~;
#X msg 1361 953 open sounds/c_piano.wav \, 1;
#X msg 1395 900 5;
#X obj 1361 1023 *~;
#X obj 1411 1006 r vol;
#X obj 1360 1059 dac~;
#X obj 1196 883 loadbang;
#X obj 1196 981 readsf~;
#X msg 1196 953 open sounds/c_piano.wav \, 1;
#X msg 1230 900 5;
#X obj 1196 1023 *~;
#X obj 1246 1006 r vol;
#X obj 1195 1059 dac~;
#X obj 1031 883 loadbang;
#X obj 1031 981 readsf~;
#X msg 1031 953 open sounds/c_piano.wav \, 1;
#X msg 1065 900 5;
#X obj 1031 1023 *~;
#X obj 1081 1006 r vol;
#X obj 1030 1059 dac~;
#X obj 866 883 loadbang;
#X obj 866 981 readsf~;
#X msg 866 953 open sounds/c_piano.wav \, 1;
#X msg 900 900 5;
#X obj 866 1023 *~;
#X obj 916 1006 r vol;
#X obj 865 1059 dac~;
#X obj 1361 682 loadbang;
#X obj 1361 780 readsf~;
#X msg 1361 752 open sounds/c_piano.wav \, 1;
#X obj 1361 822 *~;
#X obj 1411 805 r vol;
#X obj 1360 858 dac~;
#X obj 1196 682 loadbang;
#X obj 1196 780 readsf~;
#X msg 1196 752 open sounds/c_piano.wav \, 1;
#X obj 1196 822 *~;
#X obj 1246 805 r vol;
#X obj 1195 858 dac~;
#X obj 1031 682 loadbang;
#X obj 1031 780 readsf~;
#X msg 1031 752 open sounds/c_piano.wav \, 1;
#X obj 1031 822 *~;
#X obj 1081 805 r vol;
#X obj 1030 858 dac~;
#X obj 866 682 loadbang;
#X obj 866 780 readsf~;
#X msg 866 752 open sounds/c_piano.wav \, 1;
#X obj 866 822 *~;
#X obj 916 805 r vol;
#X obj 865 858 dac~;
#X msg 900 699 4;
#X msg 1065 699 4;
#X msg 1229 699 4;
#X msg 1395 699 4;
#X obj 1361 481 loadbang;
#X obj 1361 579 readsf~;
#X msg 1361 551 open sounds/c_piano.wav \, 1;
#X obj 1361 621 *~;
#X obj 1411 604 r vol;
#X obj 1360 657 dac~;
#X obj 1196 481 loadbang;
#X obj 1196 579 readsf~;
#X msg 1196 551 open sounds/c_piano.wav \, 1;
#X obj 1196 621 *~;
#X obj 1246 604 r vol;
#X obj 1195 657 dac~;
#X obj 1031 481 loadbang;
#X obj 1031 579 readsf~;
#X msg 1031 551 open sounds/c_piano.wav \, 1;
#X obj 1031 621 *~;
#X obj 1081 604 r vol;
#X obj 1030 657 dac~;
#X obj 866 481 loadbang;
#X obj 866 579 readsf~;
#X msg 866 551 open sounds/c_piano.wav \, 1;
#X obj 866 621 *~;
#X obj 916 604 r vol;
#X obj 865 657 dac~;
#X obj 1361 280 loadbang;
#X obj 1361 378 readsf~;
#X msg 1361 350 open sounds/c_piano.wav \, 1;
#X obj 1361 420 *~;
#X obj 1411 403 r vol;
#X obj 1360 456 dac~;
#X obj 1196 280 loadbang;
#X obj 1196 378 readsf~;
#X msg 1196 350 open sounds/c_piano.wav \, 1;
#X obj 1196 420 *~;
#X obj 1246 403 r vol;
#X obj 1195 456 dac~;
#X obj 1031 280 loadbang;
#X obj 1031 378 readsf~;
#X msg 1031 350 open sounds/c_piano.wav \, 1;
#X obj 1031 420 *~;
#X obj 1081 403 r vol;
#X obj 1030 456 dac~;
#X obj 866 280 loadbang;
#X obj 866 378 readsf~;
#X msg 866 350 open sounds/c_piano.wav \, 1;
#X obj 866 420 *~;
#X obj 916 403 r vol;
#X obj 865 456 dac~;
#X msg 900 498 3;
#X msg 1065 498 3;
#X msg 1229 498 3;
#X msg 1395 498 3;
#X msg 900 297 2;
#X msg 1065 297 2;
#X msg 1229 297 2;
#X msg 1395 297 2;
#X obj 1362 79 loadbang;
#X obj 1362 177 readsf~;
#X msg 1362 149 open sounds/c_piano.wav \, 1;
#X obj 1362 219 *~;
#X obj 1412 202 r vol;
#X obj 1361 255 dac~;
#X obj 1197 79 loadbang;
#X obj 1197 177 readsf~;
#X msg 1197 149 open sounds/c_piano.wav \, 1;
#X obj 1197 219 *~;
#X obj 1247 202 r vol;
#X obj 1196 255 dac~;
#X obj 1032 79 loadbang;
#X obj 1032 177 readsf~;
#X msg 1032 149 open sounds/c_piano.wav \, 1;
#X obj 1032 219 *~;
#X obj 1082 202 r vol;
#X obj 1031 255 dac~;
#X obj 867 79 loadbang;
#X obj 867 177 readsf~;
#X msg 867 149 open sounds/c_piano.wav \, 1;
#X obj 867 219 *~;
#X obj 917 202 r vol;
#X obj 866 255 dac~;
#X msg 900 96 1;
#X msg 1066 96 1;
#X msg 1230 96 1;
#X msg 1396 96 1;
#X obj 1360 1688 loadbang;
#X obj 1360 1786 readsf~;
#X msg 1360 1758 open sounds/c_piano.wav \, 1;
#X obj 1360 1828 *~;
#X obj 1410 1811 r vol;
#X obj 1359 1864 dac~;
#X obj 1195 1688 loadbang;
#X obj 1195 1786 readsf~;
#X msg 1195 1758 open sounds/c_piano.wav \, 1;
#X obj 1195 1828 *~;
#X obj 1245 1811 r vol;
#X obj 1194 1864 dac~;
#X obj 1030 1688 loadbang;
#X obj 1030 1786 readsf~;
#X msg 1030 1758 open sounds/c_piano.wav \, 1;
#X obj 1030 1828 *~;
#X obj 1080 1811 r vol;
#X obj 1029 1864 dac~;
#X obj 865 1688 loadbang;
#X obj 865 1786 readsf~;
#X msg 865 1758 open sounds/c_piano.wav \, 1;
#X obj 865 1828 *~;
#X obj 915 1811 r vol;
#X obj 864 1864 dac~;
#X obj 1360 1487 loadbang;
#X obj 1360 1585 readsf~;
#X msg 1360 1557 open sounds/c_piano.wav \, 1;
#X obj 1360 1627 *~;
#X obj 1410 1610 r vol;
#X obj 1359 1663 dac~;
#X obj 1195 1487 loadbang;
#X obj 1195 1585 readsf~;
#X msg 1195 1557 open sounds/c_piano.wav \, 1;
#X obj 1195 1627 *~;
#X obj 1245 1610 r vol;
#X obj 1194 1663 dac~;
#X obj 1030 1487 loadbang;
#X obj 1030 1585 readsf~;
#X msg 1030 1557 open sounds/c_piano.wav \, 1;
#X obj 1030 1627 *~;
#X obj 1080 1610 r vol;
#X obj 1029 1663 dac~;
#X obj 865 1487 loadbang;
#X obj 865 1585 readsf~;
#X msg 865 1557 open sounds/c_piano.wav \, 1;
#X obj 865 1627 *~;
#X obj 915 1610 r vol;
#X obj 864 1663 dac~;
#X obj 1360 1286 loadbang;
#X obj 1360 1384 readsf~;
#X msg 1360 1356 open sounds/c_piano.wav \, 1;
#X obj 1360 1426 *~;
#X obj 1410 1409 r vol;
#X obj 1359 1462 dac~;
#X obj 1195 1286 loadbang;
#X obj 1195 1384 readsf~;
#X msg 1195 1356 open sounds/c_piano.wav \, 1;
#X obj 1195 1426 *~;
#X obj 1245 1409 r vol;
#X obj 1194 1462 dac~;
#X obj 1030 1286 loadbang;
#X obj 1030 1384 readsf~;
#X msg 1030 1356 open sounds/c_piano.wav \, 1;
#X obj 1030 1426 *~;
#X obj 1080 1409 r vol;
#X obj 1029 1462 dac~;
#X obj 865 1286 loadbang;
#X obj 865 1384 readsf~;
#X msg 865 1356 open sounds/c_piano.wav \, 1;
#X obj 865 1426 *~;
#X obj 915 1409 r vol;
#X obj 864 1462 dac~;
#X obj 1361 1085 loadbang;
#X obj 1361 1183 readsf~;
#X msg 1361 1155 open sounds/c_piano.wav \, 1;
#X obj 1361 1225 *~;
#X obj 1411 1208 r vol;
#X obj 1360 1261 dac~;
#X obj 1196 1085 loadbang;
#X obj 1196 1183 readsf~;
#X msg 1196 1155 open sounds/c_piano.wav \, 1;
#X obj 1196 1225 *~;
#X obj 1246 1208 r vol;
#X obj 1195 1261 dac~;
#X obj 1031 1085 loadbang;
#X obj 1031 1183 readsf~;
#X msg 1031 1155 open sounds/c_piano.wav \, 1;
#X obj 1031 1225 *~;
#X obj 1081 1208 r vol;
#X obj 1030 1261 dac~;
#X obj 866 1085 loadbang;
#X obj 866 1183 readsf~;
#X msg 866 1155 open sounds/c_piano.wav \, 1;
#X obj 866 1225 *~;
#X obj 916 1208 r vol;
#X obj 865 1261 dac~;
#X msg 899 1705 9;
#X msg 1064 1705 9;
#X msg 1228 1705 9;
#X msg 1394 1705 9;
#X msg 1394 1504 8;
#X msg 1228 1504 8;
#X msg 1064 1504 8;
#X msg 899 1504 8;
#X msg 899 1303 7;
#X msg 1064 1303 7;
#X msg 1228 1303 7;
#X msg 1394 1303 7;
#X msg 1395 1102 6;
#X msg 1229 1102 6;
#X msg 1065 1102 6;
#X msg 899 1102 6;
#X msg 867 96 6;
#X msg 1032 96 7;
#X msg 1197 96 8;
#X msg 1362 96 9;
#X obj 920 177 s g6_1;
#X obj 1084 177 s g7_1;
#X obj 1249 177 s g8_1;
#X obj 1414 177 s g9_1;
#X msg 866 297 6;
#X msg 1031 297 7;
#X msg 1196 297 8;
#X msg 1361 297 9;
#X obj 918 378 s g6_2;
#X obj 1083 379 s g7_2;
#X obj 1248 378 s g8_2;
#X obj 1413 378 s g9_2;
#X msg 866 498 6;
#X msg 1031 498 7;
#X msg 1196 498 8;
#X msg 1361 498 9;
#X msg 865 1705 6;
#X msg 1030 1705 7;
#X msg 1195 1705 8;
#X msg 1360 1705 9;
#X msg 1360 1504 9;
#X msg 1195 1504 8;
#X msg 1030 1504 7;
#X msg 865 1504 6;
#X msg 865 1303 6;
#X msg 1030 1303 7;
#X msg 1195 1303 8;
#X msg 1360 1303 9;
#X msg 1361 1102 9;
#X msg 1196 1102 8;
#X msg 1031 1102 7;
#X msg 866 1102 6;
#X msg 866 900 6;
#X msg 1031 900 7;
#X msg 1196 900 8;
#X msg 1361 900 9;
#X msg 1361 699 9;
#X msg 1196 699 8;
#X msg 1031 699 7;
#X msg 866 699 6;
#X obj 918 579 s g6_3;
#X obj 1083 579 s g7_3;
#X obj 1248 579 s g8_3;
#X obj 1413 579 s g9_3;
#X obj 918 1786 s g6_9;
#X obj 1082 1786 s g7_9;
#X obj 1412 1786 s g9_9;
#X obj 1412 1585 s g9_8;
#X obj 1247 1585 s g8_8;
#X obj 1082 1585 s g7_8;
#X obj 917 1585 s g6_8;
#X obj 1082 1384 s g7_7;
#X obj 1247 1384 s g8_7;
#X obj 1412 1383 s g9_7;
#X obj 918 1183 s g6_6;
#X obj 1083 1183 s g7_6;
#X obj 1248 1183 s g8_6;
#X obj 1413 1183 s g9_6;
#X obj 1413 981 s g9_5;
#X obj 1248 981 s g8_5;
#X obj 1083 981 s g7_5;
#X obj 918 981 s g6_5;
#X obj 918 780 s g6_4;
#X obj 1083 780 s g7_4;
#X obj 1248 780 s g8_4;
#X obj 1413 780 s g9_4;
#X obj 917 1384 s g6_7;
#X obj 1247 1786 s g8_9;
#X obj 18 123 filter;
#X obj 183 123 filter;
#X obj 348 123 filter;
#X obj 513 123 filter;
#X obj 677 123 filter;
#X obj 867 123 filter;
#X obj 1032 123 filter;
#X obj 1197 123 filter;
#X obj 1362 123 filter;
#X obj 1361 324 filter;
#X obj 1196 324 filter;
#X obj 1031 324 filter;
#X obj 866 324 filter;
#X obj 676 324 filter;
#X obj 512 324 filter;
#X obj 347 324 filter;
#X obj 182 324 filter;
#X obj 17 324 filter;
#X obj 17 525 filter;
#X obj 182 525 filter;
#X obj 347 525 filter;
#X obj 512 525 filter;
#X obj 676 525 filter;
#X obj 866 525 filter;
#X obj 1031 525 filter;
#X obj 1196 525 filter;
#X obj 1361 525 filter;
#X obj 1361 726 filter;
#X obj 1196 726 filter;
#X obj 1031 726 filter;
#X obj 866 726 filter;
#X obj 676 726 filter;
#X obj 512 726 filter;
#X obj 347 726 filter;
#X obj 182 726 filter;
#X obj 1361 927 filter;
#X obj 1196 927 filter;
#X obj 1031 927 filter;
#X obj 866 927 filter;
#X obj 681 927 filter;
#X obj 512 927 filter;
#X obj 347 927 filter;
#X obj 182 927 filter;
#X obj 182 1129 filter;
#X obj 347 1129 filter;
#X obj 512 1129 filter;
#X obj 676 1129 filter;
#X obj 866 1129 filter;
#X obj 1031 1129 filter;
#X obj 1196 1129 filter;
#X obj 1361 1129 filter;
#X obj 17 726 filter;
#X obj 17 927 filter;
#X obj 17 1129 filter;
#X obj 1360 1330 filter;
#X obj 1195 1330 filter;
#X obj 1030 1330 filter;
#X obj 865 1330 filter;
#X obj 675 1330 filter;
#X obj 511 1330 filter;
#X obj 346 1330 filter;
#X obj 181 1330 filter;
#X obj 181 1531 filter;
#X obj 346 1531 filter;
#X obj 511 1531 filter;
#X obj 675 1531 filter;
#X obj 865 1531 filter;
#X obj 1030 1531 filter;
#X obj 1195 1531 filter;
#X obj 1360 1531 filter;
#X obj 1360 1732 filter;
#X obj 1195 1732 filter;
#X obj 1029 1732 filter;
#X obj 865 1732 filter;
#X obj 675 1732 filter;
#X obj 511 1732 filter;
#X obj 346 1732 filter;
#X obj 181 1732 filter;
#X obj 17 1732 filter;
#X obj 16 1531 filter;
#X obj 16 1330 filter;
#X connect 0 0 4 0;
#X connect 0 0 5 0;
#X connect 1 0 7 0;
#X connect 1 0 8 0;
#X connect 2 0 11 0;
#X connect 3 0 2 0;
#X connect 3 0 9 0;
#X connect 4 0 764 0;
#X connect 5 0 764 1;
#X connect 7 0 765 0;
#X connect 8 0 765 1;
#X connect 11 0 13 0;
#X connect 11 0 13 1;
#X connect 12 0 11 1;
#X connect 14 0 21 0;
#X connect 14 0 17 0;
#X connect 15 0 18 0;
#X connect 16 0 15 0;
#X connect 16 0 22 0;
#X connect 17 0 766 1;
#X connect 18 0 20 0;
#X connect 18 0 20 1;
#X connect 19 0 18 1;
#X connect 21 0 766 0;
#X connect 23 0 37 0;
#X connect 23 0 26 0;
#X connect 24 0 27 0;
#X connect 25 0 24 0;
#X connect 25 0 40 0;
#X connect 26 0 767 1;
#X connect 27 0 29 0;
#X connect 27 0 29 1;
#X connect 28 0 27 1;
#X connect 30 0 38 0;
#X connect 30 0 33 0;
#X connect 31 0 34 0;
#X connect 32 0 31 0;
#X connect 32 0 39 0;
#X connect 33 0 777 1;
#X connect 34 0 36 0;
#X connect 34 0 36 1;
#X connect 35 0 34 1;
#X connect 37 0 767 0;
#X connect 38 0 777 0;
#X connect 41 0 44 0;
#X connect 41 0 72 0;
#X connect 42 0 45 0;
#X connect 43 0 42 0;
#X connect 43 0 73 0;
#X connect 44 0 757 0;
#X connect 45 0 47 0;
#X connect 45 0 47 1;
#X connect 46 0 45 1;
#X connect 48 0 54 0;
#X connect 48 0 71 0;
#X connect 49 0 51 0;
#X connect 50 0 49 0;
#X connect 50 0 74 0;
#X connect 51 0 53 0;
#X connect 51 0 53 1;
#X connect 52 0 51 1;
#X connect 54 0 758 0;
#X connect 55 0 67 0;
#X connect 55 0 70 0;
#X connect 56 0 58 0;
#X connect 57 0 56 0;
#X connect 57 0 75 0;
#X connect 58 0 60 0;
#X connect 58 0 60 1;
#X connect 59 0 58 1;
#X connect 61 0 68 0;
#X connect 61 0 69 0;
#X connect 62 0 64 0;
#X connect 63 0 62 0;
#X connect 63 0 76 0;
#X connect 64 0 66 0;
#X connect 64 0 66 1;
#X connect 65 0 64 1;
#X connect 67 0 759 0;
#X connect 68 0 776 0;
#X connect 69 0 776 1;
#X connect 70 0 759 1;
#X connect 71 0 758 1;
#X connect 72 0 757 1;
#X connect 77 0 80 0;
#X connect 77 0 136 0;
#X connect 78 0 81 0;
#X connect 79 0 78 0;
#X connect 79 0 140 0;
#X connect 80 0 746 0;
#X connect 81 0 83 0;
#X connect 81 0 83 1;
#X connect 82 0 81 1;
#X connect 84 0 90 0;
#X connect 84 0 135 0;
#X connect 85 0 87 0;
#X connect 86 0 85 0;
#X connect 86 0 139 0;
#X connect 87 0 89 0;
#X connect 87 0 89 1;
#X connect 88 0 87 1;
#X connect 90 0 745 0;
#X connect 91 0 103 0;
#X connect 91 0 134 0;
#X connect 92 0 94 0;
#X connect 93 0 92 0;
#X connect 93 0 138 0;
#X connect 94 0 96 0;
#X connect 94 0 96 1;
#X connect 95 0 94 1;
#X connect 97 0 104 0;
#X connect 97 0 133 0;
#X connect 98 0 100 0;
#X connect 99 0 98 0;
#X connect 99 0 137 0;
#X connect 100 0 102 0;
#X connect 100 0 102 1;
#X connect 101 0 100 1;
#X connect 103 0 744 0;
#X connect 104 0 743 0;
#X connect 105 0 108 0;
#X connect 105 0 144 0;
#X connect 106 0 109 0;
#X connect 107 0 106 0;
#X connect 107 0 148 0;
#X connect 108 0 739 0;
#X connect 109 0 111 0;
#X connect 109 0 111 1;
#X connect 110 0 109 1;
#X connect 112 0 118 0;
#X connect 112 0 143 0;
#X connect 113 0 115 0;
#X connect 114 0 113 0;
#X connect 114 0 147 0;
#X connect 115 0 117 0;
#X connect 115 0 117 1;
#X connect 116 0 115 1;
#X connect 118 0 740 0;
#X connect 119 0 131 0;
#X connect 119 0 142 0;
#X connect 120 0 122 0;
#X connect 121 0 120 0;
#X connect 121 0 146 0;
#X connect 122 0 124 0;
#X connect 122 0 124 1;
#X connect 123 0 122 1;
#X connect 125 0 132 0;
#X connect 125 0 141 0;
#X connect 126 0 128 0;
#X connect 127 0 126 0;
#X connect 127 0 145 0;
#X connect 128 0 130 0;
#X connect 128 0 130 1;
#X connect 129 0 128 1;
#X connect 131 0 741 0;
#X connect 132 0 742 0;
#X connect 133 0 743 1;
#X connect 134 0 744 1;
#X connect 135 0 745 1;
#X connect 136 0 746 1;
#X connect 141 0 742 1;
#X connect 142 0 741 1;
#X connect 143 0 740 1;
#X connect 144 0 739 1;
#X connect 149 0 152 0;
#X connect 149 0 180 0;
#X connect 150 0 153 0;
#X connect 151 0 150 0;
#X connect 151 0 184 0;
#X connect 152 0 728 0;
#X connect 153 0 155 0;
#X connect 153 0 155 1;
#X connect 154 0 153 1;
#X connect 156 0 162 0;
#X connect 156 0 179 0;
#X connect 157 0 159 0;
#X connect 158 0 157 0;
#X connect 158 0 183 0;
#X connect 159 0 161 0;
#X connect 159 0 161 1;
#X connect 160 0 159 1;
#X connect 162 0 727 0;
#X connect 163 0 175 0;
#X connect 163 0 178 0;
#X connect 164 0 166 0;
#X connect 165 0 164 0;
#X connect 165 0 182 0;
#X connect 166 0 168 0;
#X connect 166 0 168 1;
#X connect 167 0 166 1;
#X connect 169 0 176 0;
#X connect 169 0 177 0;
#X connect 170 0 172 0;
#X connect 171 0 170 0;
#X connect 171 0 181 0;
#X connect 172 0 174 0;
#X connect 172 0 174 1;
#X connect 173 0 172 1;
#X connect 175 0 726 0;
#X connect 176 0 725 0;
#X connect 177 0 725 1;
#X connect 178 0 726 1;
#X connect 179 0 727 1;
#X connect 180 0 728 1;
#X connect 185 0 188 0;
#X connect 185 0 300 0;
#X connect 186 0 189 0;
#X connect 187 0 186 0;
#X connect 187 0 320 0;
#X connect 188 0 800 0;
#X connect 189 0 191 0;
#X connect 189 0 191 1;
#X connect 190 0 189 1;
#X connect 192 0 198 0;
#X connect 192 0 299 0;
#X connect 193 0 195 0;
#X connect 194 0 193 0;
#X connect 194 0 319 0;
#X connect 195 0 197 0;
#X connect 195 0 197 1;
#X connect 196 0 195 1;
#X connect 198 0 801 0;
#X connect 199 0 211 0;
#X connect 199 0 298 0;
#X connect 200 0 202 0;
#X connect 201 0 200 0;
#X connect 201 0 318 0;
#X connect 202 0 204 0;
#X connect 202 0 204 1;
#X connect 203 0 202 1;
#X connect 205 0 212 0;
#X connect 205 0 297 0;
#X connect 206 0 208 0;
#X connect 207 0 206 0;
#X connect 207 0 317 0;
#X connect 208 0 210 0;
#X connect 208 0 210 1;
#X connect 209 0 208 1;
#X connect 211 0 802 0;
#X connect 212 0 803 0;
#X connect 213 0 216 0;
#X connect 213 0 301 0;
#X connect 214 0 217 0;
#X connect 215 0 214 0;
#X connect 215 0 328 0;
#X connect 216 0 789 0;
#X connect 217 0 219 0;
#X connect 217 0 219 1;
#X connect 218 0 217 1;
#X connect 220 0 226 0;
#X connect 220 0 302 0;
#X connect 221 0 223 0;
#X connect 222 0 221 0;
#X connect 222 0 327 0;
#X connect 223 0 225 0;
#X connect 223 0 225 1;
#X connect 224 0 223 1;
#X connect 226 0 788 0;
#X connect 227 0 239 0;
#X connect 227 0 303 0;
#X connect 228 0 230 0;
#X connect 229 0 228 0;
#X connect 229 0 326 0;
#X connect 230 0 232 0;
#X connect 230 0 232 1;
#X connect 231 0 230 1;
#X connect 233 0 240 0;
#X connect 233 0 304 0;
#X connect 234 0 236 0;
#X connect 235 0 234 0;
#X connect 235 0 325 0;
#X connect 236 0 238 0;
#X connect 236 0 238 1;
#X connect 237 0 236 1;
#X connect 239 0 787 0;
#X connect 240 0 804 0;
#X connect 241 0 244 0;
#X connect 241 0 308 0;
#X connect 242 0 245 0;
#X connect 243 0 242 0;
#X connect 243 0 321 0;
#X connect 244 0 784 0;
#X connect 245 0 247 0;
#X connect 245 0 247 1;
#X connect 246 0 245 1;
#X connect 248 0 254 0;
#X connect 248 0 307 0;
#X connect 249 0 251 0;
#X connect 250 0 249 0;
#X connect 250 0 322 0;
#X connect 251 0 253 0;
#X connect 251 0 253 1;
#X connect 252 0 251 1;
#X connect 254 0 785 0;
#X connect 255 0 267 0;
#X connect 255 0 306 0;
#X connect 256 0 258 0;
#X connect 257 0 256 0;
#X connect 257 0 323 0;
#X connect 258 0 260 0;
#X connect 258 0 260 1;
#X connect 259 0 258 1;
#X connect 261 0 268 0;
#X connect 261 0 305 0;
#X connect 262 0 264 0;
#X connect 263 0 262 0;
#X connect 263 0 324 0;
#X connect 264 0 266 0;
#X connect 264 0 266 1;
#X connect 265 0 264 1;
#X connect 267 0 786 0;
#X connect 268 0 805 0;
#X connect 269 0 272 0;
#X connect 269 0 309 0;
#X connect 270 0 273 0;
#X connect 271 0 270 0;
#X connect 271 0 316 0;
#X connect 272 0 770 0;
#X connect 273 0 275 0;
#X connect 273 0 275 1;
#X connect 274 0 273 1;
#X connect 276 0 282 0;
#X connect 276 0 310 0;
#X connect 277 0 279 0;
#X connect 278 0 277 0;
#X connect 278 0 315 0;
#X connect 279 0 281 0;
#X connect 279 0 281 1;
#X connect 280 0 279 1;
#X connect 282 0 769 0;
#X connect 283 0 295 0;
#X connect 283 0 311 0;
#X connect 284 0 286 0;
#X connect 285 0 284 0;
#X connect 285 0 314 0;
#X connect 286 0 288 0;
#X connect 286 0 288 1;
#X connect 287 0 286 1;
#X connect 289 0 296 0;
#X connect 289 0 312 0;
#X connect 290 0 292 0;
#X connect 291 0 290 0;
#X connect 291 0 313 0;
#X connect 292 0 294 0;
#X connect 292 0 294 1;
#X connect 293 0 292 1;
#X connect 295 0 768 0;
#X connect 296 0 778 0;
#X connect 297 0 803 1;
#X connect 298 0 802 1;
#X connect 299 0 801 1;
#X connect 300 0 800 1;
#X connect 301 0 789 1;
#X connect 302 0 788 1;
#X connect 303 0 787 1;
#X connect 304 0 804 1;
#X connect 305 0 805 1;
#X connect 306 0 786 1;
#X connect 307 0 785 1;
#X connect 308 0 784 1;
#X connect 309 0 770 1;
#X connect 310 0 769 1;
#X connect 311 0 768 1;
#X connect 312 0 778 1;
#X connect 329 0 392 0;
#X connect 329 0 335 0;
#X connect 330 0 332 0;
#X connect 331 0 330 0;
#X connect 331 0 396 0;
#X connect 332 0 334 0;
#X connect 332 0 334 1;
#X connect 333 0 332 1;
#X connect 335 0 756 1;
#X connect 336 0 391 0;
#X connect 336 0 348 0;
#X connect 337 0 339 0;
#X connect 338 0 337 0;
#X connect 338 0 395 0;
#X connect 339 0 341 0;
#X connect 339 0 341 1;
#X connect 340 0 339 1;
#X connect 342 0 390 0;
#X connect 342 0 349 0;
#X connect 343 0 345 0;
#X connect 344 0 343 0;
#X connect 344 0 394 0;
#X connect 345 0 347 0;
#X connect 345 0 347 1;
#X connect 346 0 345 1;
#X connect 348 0 747 1;
#X connect 349 0 738 1;
#X connect 350 0 389 0;
#X connect 350 0 356 0;
#X connect 351 0 353 0;
#X connect 352 0 351 0;
#X connect 352 0 393 0;
#X connect 353 0 355 0;
#X connect 353 0 355 1;
#X connect 354 0 353 1;
#X connect 356 0 729 1;
#X connect 357 0 387 0;
#X connect 357 0 381 0;
#X connect 358 0 360 0;
#X connect 359 0 358 0;
#X connect 359 0 400 0;
#X connect 360 0 362 0;
#X connect 360 0 362 1;
#X connect 361 0 360 1;
#X connect 363 0 388 0;
#X connect 363 0 382 0;
#X connect 364 0 366 0;
#X connect 365 0 364 0;
#X connect 365 0 399 0;
#X connect 366 0 368 0;
#X connect 366 0 368 1;
#X connect 367 0 366 1;
#X connect 369 0 386 0;
#X connect 369 0 383 0;
#X connect 370 0 372 0;
#X connect 371 0 370 0;
#X connect 371 0 398 0;
#X connect 372 0 374 0;
#X connect 372 0 374 1;
#X connect 373 0 372 1;
#X connect 375 0 385 0;
#X connect 375 0 384 0;
#X connect 376 0 378 0;
#X connect 377 0 376 0;
#X connect 377 0 397 0;
#X connect 378 0 380 0;
#X connect 378 0 380 1;
#X connect 379 0 378 1;
#X connect 381 0 799 1;
#X connect 382 0 790 1;
#X connect 383 0 783 1;
#X connect 384 0 771 1;
#X connect 385 0 771 0;
#X connect 386 0 783 0;
#X connect 387 0 799 0;
#X connect 388 0 790 0;
#X connect 389 0 729 0;
#X connect 390 0 738 0;
#X connect 391 0 747 0;
#X connect 392 0 756 0;
#X connect 401 0 692 0;
#X connect 401 0 404 0;
#X connect 402 0 405 0;
#X connect 403 0 402 0;
#X connect 403 0 715 0;
#X connect 404 0 760 1;
#X connect 405 0 407 0;
#X connect 405 0 407 1;
#X connect 406 0 405 1;
#X connect 408 0 691 0;
#X connect 408 0 411 0;
#X connect 409 0 412 0;
#X connect 410 0 409 0;
#X connect 410 0 716 0;
#X connect 411 0 761 1;
#X connect 412 0 414 0;
#X connect 412 0 414 1;
#X connect 413 0 412 1;
#X connect 415 0 690 0;
#X connect 415 0 418 0;
#X connect 416 0 419 0;
#X connect 417 0 416 0;
#X connect 417 0 717 0;
#X connect 418 0 762 1;
#X connect 419 0 421 0;
#X connect 419 0 421 1;
#X connect 420 0 419 1;
#X connect 422 0 689 0;
#X connect 422 0 425 0;
#X connect 423 0 426 0;
#X connect 424 0 423 0;
#X connect 424 0 718 0;
#X connect 425 0 763 1;
#X connect 426 0 428 0;
#X connect 426 0 428 1;
#X connect 427 0 426 1;
#X connect 429 0 693 0;
#X connect 429 0 456 0;
#X connect 430 0 432 0;
#X connect 431 0 430 0;
#X connect 431 0 722 0;
#X connect 432 0 434 0;
#X connect 432 0 434 1;
#X connect 433 0 432 1;
#X connect 435 0 694 0;
#X connect 435 0 455 0;
#X connect 436 0 438 0;
#X connect 437 0 436 0;
#X connect 437 0 721 0;
#X connect 438 0 440 0;
#X connect 438 0 440 1;
#X connect 439 0 438 1;
#X connect 441 0 695 0;
#X connect 441 0 454 0;
#X connect 442 0 444 0;
#X connect 443 0 442 0;
#X connect 443 0 720 0;
#X connect 444 0 446 0;
#X connect 444 0 446 1;
#X connect 445 0 444 1;
#X connect 447 0 696 0;
#X connect 447 0 453 0;
#X connect 448 0 450 0;
#X connect 449 0 448 0;
#X connect 449 0 719 0;
#X connect 450 0 452 0;
#X connect 450 0 452 1;
#X connect 451 0 450 1;
#X connect 453 0 755 1;
#X connect 454 0 754 1;
#X connect 455 0 753 1;
#X connect 456 0 752 1;
#X connect 457 0 672 0;
#X connect 457 0 508 0;
#X connect 458 0 460 0;
#X connect 459 0 458 0;
#X connect 459 0 700 0;
#X connect 460 0 462 0;
#X connect 460 0 462 1;
#X connect 461 0 460 1;
#X connect 463 0 671 0;
#X connect 463 0 507 0;
#X connect 464 0 466 0;
#X connect 465 0 464 0;
#X connect 465 0 699 0;
#X connect 466 0 468 0;
#X connect 466 0 468 1;
#X connect 467 0 466 1;
#X connect 469 0 670 0;
#X connect 469 0 506 0;
#X connect 470 0 472 0;
#X connect 471 0 470 0;
#X connect 471 0 698 0;
#X connect 472 0 474 0;
#X connect 472 0 474 1;
#X connect 473 0 472 1;
#X connect 475 0 669 0;
#X connect 475 0 505 0;
#X connect 476 0 478 0;
#X connect 477 0 476 0;
#X connect 477 0 697 0;
#X connect 478 0 480 0;
#X connect 478 0 480 1;
#X connect 479 0 478 1;
#X connect 481 0 664 0;
#X connect 481 0 512 0;
#X connect 482 0 484 0;
#X connect 483 0 482 0;
#X connect 483 0 668 0;
#X connect 484 0 486 0;
#X connect 484 0 486 1;
#X connect 485 0 484 1;
#X connect 487 0 663 0;
#X connect 487 0 511 0;
#X connect 488 0 490 0;
#X connect 489 0 488 0;
#X connect 489 0 667 0;
#X connect 490 0 492 0;
#X connect 490 0 492 1;
#X connect 491 0 490 1;
#X connect 493 0 662 0;
#X connect 493 0 510 0;
#X connect 494 0 496 0;
#X connect 495 0 494 0;
#X connect 495 0 666 0;
#X connect 496 0 498 0;
#X connect 496 0 498 1;
#X connect 497 0 496 1;
#X connect 499 0 661 0;
#X connect 499 0 509 0;
#X connect 500 0 502 0;
#X connect 501 0 500 0;
#X connect 501 0 665 0;
#X connect 502 0 504 0;
#X connect 502 0 504 1;
#X connect 503 0 502 1;
#X connect 505 0 748 1;
#X connect 506 0 749 1;
#X connect 507 0 750 1;
#X connect 508 0 751 1;
#X connect 509 0 737 1;
#X connect 510 0 736 1;
#X connect 511 0 735 1;
#X connect 512 0 734 1;
#X connect 513 0 656 0;
#X connect 513 0 540 0;
#X connect 514 0 516 0;
#X connect 515 0 514 0;
#X connect 515 0 660 0;
#X connect 516 0 518 0;
#X connect 516 0 518 1;
#X connect 517 0 516 1;
#X connect 519 0 655 0;
#X connect 519 0 539 0;
#X connect 520 0 522 0;
#X connect 521 0 520 0;
#X connect 521 0 659 0;
#X connect 522 0 524 0;
#X connect 522 0 524 1;
#X connect 523 0 522 1;
#X connect 525 0 654 0;
#X connect 525 0 538 0;
#X connect 526 0 528 0;
#X connect 527 0 526 0;
#X connect 527 0 658 0;
#X connect 528 0 530 0;
#X connect 528 0 530 1;
#X connect 529 0 528 1;
#X connect 531 0 653 0;
#X connect 531 0 537 0;
#X connect 532 0 534 0;
#X connect 533 0 532 0;
#X connect 533 0 657 0;
#X connect 534 0 536 0;
#X connect 534 0 536 1;
#X connect 535 0 534 1;
#X connect 537 0 730 1;
#X connect 538 0 731 1;
#X connect 539 0 732 1;
#X connect 540 0 733 1;
#X connect 541 0 676 0;
#X connect 541 0 640 0;
#X connect 542 0 544 0;
#X connect 543 0 542 0;
#X connect 543 0 703 0;
#X connect 544 0 546 0;
#X connect 544 0 546 1;
#X connect 545 0 544 1;
#X connect 547 0 675 0;
#X connect 547 0 639 0;
#X connect 548 0 550 0;
#X connect 549 0 548 0;
#X connect 549 0 724 0;
#X connect 550 0 552 0;
#X connect 550 0 552 1;
#X connect 551 0 550 1;
#X connect 553 0 674 0;
#X connect 553 0 638 0;
#X connect 554 0 556 0;
#X connect 555 0 554 0;
#X connect 555 0 702 0;
#X connect 556 0 558 0;
#X connect 556 0 558 1;
#X connect 557 0 556 1;
#X connect 559 0 673 0;
#X connect 559 0 637 0;
#X connect 560 0 562 0;
#X connect 561 0 560 0;
#X connect 561 0 701 0;
#X connect 562 0 564 0;
#X connect 562 0 564 1;
#X connect 563 0 562 1;
#X connect 565 0 677 0;
#X connect 565 0 641 0;
#X connect 566 0 568 0;
#X connect 567 0 566 0;
#X connect 567 0 704 0;
#X connect 568 0 570 0;
#X connect 568 0 570 1;
#X connect 569 0 568 1;
#X connect 571 0 678 0;
#X connect 571 0 642 0;
#X connect 572 0 574 0;
#X connect 573 0 572 0;
#X connect 573 0 705 0;
#X connect 574 0 576 0;
#X connect 574 0 576 1;
#X connect 575 0 574 1;
#X connect 577 0 679 0;
#X connect 577 0 643 0;
#X connect 578 0 580 0;
#X connect 579 0 578 0;
#X connect 579 0 706 0;
#X connect 580 0 582 0;
#X connect 580 0 582 1;
#X connect 581 0 580 1;
#X connect 583 0 680 0;
#X connect 583 0 644 0;
#X connect 584 0 586 0;
#X connect 585 0 584 0;
#X connect 585 0 707 0;
#X connect 586 0 588 0;
#X connect 586 0 588 1;
#X connect 587 0 586 1;
#X connect 589 0 684 0;
#X connect 589 0 648 0;
#X connect 590 0 592 0;
#X connect 591 0 590 0;
#X connect 591 0 710 0;
#X connect 592 0 594 0;
#X connect 592 0 594 1;
#X connect 593 0 592 1;
#X connect 595 0 683 0;
#X connect 595 0 647 0;
#X connect 596 0 598 0;
#X connect 597 0 596 0;
#X connect 597 0 709 0;
#X connect 598 0 600 0;
#X connect 598 0 600 1;
#X connect 599 0 598 1;
#X connect 601 0 682 0;
#X connect 601 0 646 0;
#X connect 602 0 604 0;
#X connect 603 0 602 0;
#X connect 603 0 708 0;
#X connect 604 0 606 0;
#X connect 604 0 606 1;
#X connect 605 0 604 1;
#X connect 607 0 681 0;
#X connect 607 0 645 0;
#X connect 608 0 610 0;
#X connect 609 0 608 0;
#X connect 609 0 723 0;
#X connect 610 0 612 0;
#X connect 610 0 612 1;
#X connect 611 0 610 1;
#X connect 613 0 685 0;
#X connect 613 0 649 0;
#X connect 614 0 616 0;
#X connect 615 0 614 0;
#X connect 615 0 714 0;
#X connect 616 0 618 0;
#X connect 616 0 618 1;
#X connect 617 0 616 1;
#X connect 619 0 686 0;
#X connect 619 0 650 0;
#X connect 620 0 622 0;
#X connect 621 0 620 0;
#X connect 621 0 713 0;
#X connect 622 0 624 0;
#X connect 622 0 624 1;
#X connect 623 0 622 1;
#X connect 625 0 687 0;
#X connect 625 0 651 0;
#X connect 626 0 628 0;
#X connect 627 0 626 0;
#X connect 627 0 712 0;
#X connect 628 0 630 0;
#X connect 628 0 630 1;
#X connect 629 0 628 1;
#X connect 631 0 688 0;
#X connect 631 0 652 0;
#X connect 632 0 634 0;
#X connect 633 0 632 0;
#X connect 633 0 711 0;
#X connect 634 0 636 0;
#X connect 634 0 636 1;
#X connect 635 0 634 1;
#X connect 637 0 798 1;
#X connect 638 0 797 1;
#X connect 639 0 796 1;
#X connect 640 0 795 1;
#X connect 641 0 794 1;
#X connect 642 0 793 1;
#X connect 643 0 792 1;
#X connect 644 0 791 1;
#X connect 645 0 782 1;
#X connect 646 0 781 1;
#X connect 647 0 780 1;
#X connect 648 0 779 1;
#X connect 649 0 775 1;
#X connect 650 0 774 1;
#X connect 651 0 773 1;
#X connect 652 0 772 1;
#X connect 653 0 730 0;
#X connect 654 0 731 0;
#X connect 655 0 732 0;
#X connect 656 0 733 0;
#X connect 661 0 737 0;
#X connect 662 0 736 0;
#X connect 663 0 735 0;
#X connect 664 0 734 0;
#X connect 669 0 748 0;
#X connect 670 0 749 0;
#X connect 671 0 750 0;
#X connect 672 0 751 0;
#X connect 673 0 798 0;
#X connect 674 0 797 0;
#X connect 675 0 796 0;
#X connect 676 0 795 0;
#X connect 677 0 794 0;
#X connect 678 0 793 0;
#X connect 679 0 792 0;
#X connect 680 0 791 0;
#X connect 681 0 782 0;
#X connect 682 0 781 0;
#X connect 683 0 780 0;
#X connect 684 0 779 0;
#X connect 685 0 775 0;
#X connect 686 0 774 0;
#X connect 687 0 773 0;
#X connect 688 0 772 0;
#X connect 689 0 763 0;
#X connect 690 0 762 0;
#X connect 691 0 761 0;
#X connect 692 0 760 0;
#X connect 693 0 752 0;
#X connect 694 0 753 0;
#X connect 695 0 754 0;
#X connect 696 0 755 0;
#X connect 725 0 171 0;
#X connect 726 0 165 0;
#X connect 727 0 158 0;
#X connect 728 0 151 0;
#X connect 729 0 352 0;
#X connect 730 0 533 0;
#X connect 731 0 527 0;
#X connect 732 0 521 0;
#X connect 733 0 515 0;
#X connect 734 0 483 0;
#X connect 735 0 489 0;
#X connect 736 0 495 0;
#X connect 737 0 501 0;
#X connect 738 0 344 0;
#X connect 739 0 107 0;
#X connect 740 0 114 0;
#X connect 741 0 121 0;
#X connect 742 0 127 0;
#X connect 743 0 99 0;
#X connect 744 0 93 0;
#X connect 745 0 86 0;
#X connect 746 0 79 0;
#X connect 747 0 338 0;
#X connect 748 0 477 0;
#X connect 749 0 471 0;
#X connect 750 0 465 0;
#X connect 751 0 459 0;
#X connect 752 0 431 0;
#X connect 753 0 437 0;
#X connect 754 0 443 0;
#X connect 755 0 449 0;
#X connect 756 0 331 0;
#X connect 757 0 43 0;
#X connect 758 0 50 0;
#X connect 759 0 57 0;
#X connect 760 0 403 0;
#X connect 761 0 410 0;
#X connect 762 0 417 0;
#X connect 763 0 424 0;
#X connect 764 0 6 0;
#X connect 765 0 3 0;
#X connect 766 0 16 0;
#X connect 767 0 25 0;
#X connect 768 0 285 0;
#X connect 769 0 278 0;
#X connect 770 0 271 0;
#X connect 771 0 377 0;
#X connect 772 0 633 0;
#X connect 773 0 627 0;
#X connect 774 0 621 0;
#X connect 775 0 615 0;
#X connect 776 0 63 0;
#X connect 777 0 32 0;
#X connect 778 0 291 0;
#X connect 779 0 591 0;
#X connect 780 0 597 0;
#X connect 781 0 603 0;
#X connect 782 0 609 0;
#X connect 783 0 371 0;
#X connect 784 0 243 0;
#X connect 785 0 250 0;
#X connect 786 0 257 0;
#X connect 787 0 229 0;
#X connect 788 0 222 0;
#X connect 789 0 215 0;
#X connect 790 0 365 0;
#X connect 791 0 585 0;
#X connect 792 0 579 0;
#X connect 793 0 573 0;
#X connect 794 0 567 0;
#X connect 795 0 543 0;
#X connect 796 0 549 0;
#X connect 797 0 555 0;
#X connect 798 0 561 0;
#X connect 799 0 359 0;
#X connect 800 0 187 0;
#X connect 801 0 194 0;
#X connect 802 0 201 0;
#X connect 803 0 207 0;
#X connect 804 0 235 0;
#X connect 805 0 263 0;
