#N canvas 0 0 1362 689 10;
#X obj -129 3 cnv 15 900 540 empty empty Play_Logic 20 8 1 14 -260097
-66577 0;
#X obj 378 85 sel 1 2 3 4 5;
#X obj -103 178 r beat;
#X obj -103 202 f;
#X obj -69 202 + 1;
#X text -36 202 Increment index on beat;
#X floatatom -103 258 5 0 0 0 - - -;
#X obj -103 239 % 10;
#X floatatom -69 224 5 0 0 0 - - -;
#X floatatom -103 322 5 0 0 0 - - -;
#X obj -103 359 s c1x;
#X text -50 240 Contrain to array bounds;
#X floatatom 16 322 5 0 0 0 - - -;
#X obj 16 356 s c1y;
#X text -104 156 Play the sound on beats;
#X obj 175 420 tabwrite client1_x;
#X obj 620 420 tabwrite client1_y;
#X obj 175 108 r cur_x;
#X floatatom 175 128 5 0 0 0 - - -;
#X obj 175 82 s cur_x;
#X obj 175 196 +;
#X msg 190 168 0;
#X msg 227 161 1;
#X msg 227 190 -1;
#X obj 205 220 s cur_x;
#X obj 175 50 init 5;
#X floatatom 620 117 5 0 0 0 - - -;
#X obj 620 196 +;
#X msg 635 160 0;
#X obj 620 98 r cur_y;
#X obj 652 218 s cur_y;
#X obj 621 40 init 5;
#X obj 621 72 s cur_y;
#X msg 672 161 -1;
#X msg 672 190 1;
#X obj -101 109 tabread client1_x;
#X floatatom -101 132 5 0 0 0 - - -;
#X obj 18 109 tabread client1_y;
#X floatatom 18 132 5 0 0 0 - - -;
#X obj -101 45 r c1len;
#X obj 175 146 pipe 50;
#X obj 620 135 pipe 50;
#X obj -101 68 pipe 50;
#X floatatom 280 334 5 0 0 0 - - -;
#X obj 297 420 s c1len;
#X obj 280 195 bng 15 250 50 0 empty empty empty 17 7 0 10 -262144
-1 -1;
#X obj 280 307 counter 0 0 100;
#X obj 345 263 bng 15 250 50 0 empty empty empty 17 7 0 10 -262144
-1 -1;
#X msg 379 306 \; client1_x const 0 \; client1_y const 0 \;;
#X obj 434 219 arraycopy play1_x;
#X msg 434 194 copy client1_x;
#X obj 467 151 t b b b;
#X obj 434 271 arraycopy play1_y;
#X msg 434 246 copy client1_y;
#X obj 562 221 r c1len;
#X obj 547 246 f;
#X obj 547 272 s p1len;
#X obj 16 299 tabread play1_y;
#X obj -103 299 tabread play1_x;
#X obj -29 223 r p1len;
#X obj 280 375 pipe 80;
#X obj 345 242 pipe 80;
#X obj -102 277 t f f;
#X obj -103 385 server;
#X obj 378 51 r p1in;
#X obj 379 279 loadbang;
#N canvas 0 0 450 300 (subpatch) 0;
#X array client2_x 100 float 3;
#A 0 5 0 0 0 0 0 0 0 0 0 0 0 0 0 0 0 0 0 0 0 0 0 0 0 0 0 0 0 0 0 0
0 0 0 0 0 0 0 0 0 0 0 0 0 0 0 0 0 0 0 0 0 0 0 0 0 0 0 0 0 0 0 0 0 0
0 0 0 0 0 0 0 0 0 0 0 0 0 0 0 0 0 0 0 0 0 0 0 0 0 0 0 0 0 0 0 0 0 0
0;
#X coords 0 9 99 0 100 40 1 0 0;
#X restore 167 575 graph;
#X obj -129 548 cnv 15 900 135 empty empty Client_Signals 20 8 1 14
-261234 -66577 0;
#N canvas 0 0 450 300 (subpatch) 0;
#X array client2_y 100 float 3;
#A 0 5 0 0 0 0 0 0 0 0 0 0 0 0 0 0 0 0 0 0 0 0 0 0 0 0 0 0 0 0 0 0
0 0 0 0 0 0 0 0 0 0 0 0 0 0 0 0 0 0 0 0 0 0 0 0 0 0 0 0 0 0 0 0 0 0
0 0 0 0 0 0 0 0 0 0 0 0 0 0 0 0 0 0 0 0 0 0 0 0 0 0 0 0 0 0 0 0 0 0
0;
#X coords 0 9 99 0 100 40 1 0 0;
#X restore 167 634 graph;
#N canvas 0 0 450 300 (subpatch) 0;
#X array play2_x 100 float 2;
#X coords 0 9 100 0 100 40 1 0 0;
#X restore 283 578 graph;
#N canvas 0 0 450 300 (subpatch) 0;
#X array play2_y 100 float 2;
#X coords 0 9 100 0 100 40 1 0 0;
#X restore 286 636 graph;
#X connect 1 0 33 0;
#X connect 1 0 45 0;
#X connect 1 1 22 0;
#X connect 1 1 45 0;
#X connect 1 2 34 0;
#X connect 1 2 45 0;
#X connect 1 3 23 0;
#X connect 1 3 45 0;
#X connect 1 4 51 0;
#X connect 2 0 3 0;
#X connect 3 0 4 0;
#X connect 3 0 7 0;
#X connect 4 0 3 1;
#X connect 6 0 62 0;
#X connect 7 0 6 0;
#X connect 8 0 7 1;
#X connect 9 0 10 0;
#X connect 12 0 13 0;
#X connect 17 0 18 0;
#X connect 18 0 40 0;
#X connect 20 0 21 0;
#X connect 20 0 24 0;
#X connect 20 0 15 0;
#X connect 21 0 20 1;
#X connect 22 0 20 1;
#X connect 23 0 20 1;
#X connect 25 0 19 0;
#X connect 26 0 41 0;
#X connect 27 0 28 0;
#X connect 27 0 30 0;
#X connect 27 0 16 0;
#X connect 28 0 27 1;
#X connect 29 0 26 0;
#X connect 31 0 32 0;
#X connect 33 0 27 1;
#X connect 34 0 27 1;
#X connect 35 0 36 0;
#X connect 37 0 38 0;
#X connect 39 0 42 0;
#X connect 40 0 20 0;
#X connect 41 0 27 0;
#X connect 42 0 35 0;
#X connect 42 0 37 0;
#X connect 43 0 60 0;
#X connect 45 0 46 0;
#X connect 46 0 43 0;
#X connect 47 0 46 3;
#X connect 47 0 48 0;
#X connect 50 0 49 0;
#X connect 51 0 61 0;
#X connect 51 2 55 0;
#X connect 51 2 53 0;
#X connect 51 2 50 0;
#X connect 53 0 52 0;
#X connect 54 0 55 1;
#X connect 55 0 56 0;
#X connect 57 0 12 0;
#X connect 58 0 9 0;
#X connect 59 0 8 0;
#X connect 60 0 15 1;
#X connect 60 0 16 1;
#X connect 60 0 44 0;
#X connect 61 0 47 0;
#X connect 62 0 58 0;
#X connect 62 1 57 0;
#X connect 64 0 1 0;
#X connect 65 0 48 0;
