#N canvas 292 42 1362 689 10;
#X obj -129 3 cnv 15 900 540 empty empty Play_Logic 20 8 1 14 -260097
-66577 0;
#X obj 378 85 sel 1 2 3 4 5;
#X obj -103 178 r beat;
#X obj -103 202 f;
#X obj -69 202 + 1;
#X text -36 202 Increment index on beat;
#X floatatom -103 258 5 0 0 0 - - -;
#X obj -103 239 % 10;
#X floatatom -69 224 5 0 0 0 - - -;
#X floatatom -103 322 5 0 0 0 - - -;
#X text -50 240 Contrain to array bounds;
#X floatatom 16 322 5 0 0 0 - - -;
#X text -104 156 Play the sound on beats;
#X floatatom 175 128 5 0 0 0 - - -;
#X obj 175 196 +;
#X msg 190 168 0;
#X msg 227 161 1;
#X msg 227 190 -1;
#X obj 175 50 init 5;
#X floatatom 620 117 5 0 0 0 - - -;
#X obj 620 196 +;
#X msg 635 160 0;
#X obj 621 40 init 5;
#X msg 672 161 -1;
#X msg 672 190 1;
#X floatatom -101 132 5 0 0 0 - - -;
#X floatatom 18 132 5 0 0 0 - - -;
#X obj 175 146 pipe 50;
#X obj 620 135 pipe 50;
#X obj -101 68 pipe 50;
#X floatatom 280 334 5 0 0 0 - - -;
#X obj 280 195 bng 15 250 50 0 empty empty empty 17 7 0 10 -262144
-1 -1;
#X obj 280 307 counter 0 0 100;
#X obj 345 263 bng 15 250 50 0 empty empty empty 17 7 0 10 -262144
-1 -1;
#X obj 467 151 t b b b;
#X obj 547 246 f;
#X obj 280 375 pipe 80;
#X obj 345 242 pipe 80;
#X obj -102 277 t f f;
#X obj 379 279 loadbang;
#N canvas 0 0 450 300 (subpatch) 0;
#X array client2_x 100 float 2;
#X coords 0 9 99 0 100 40 1 0 0;
#X restore 167 575 graph;
#X obj -129 548 cnv 15 900 135 empty empty Client_Signals 20 8 1 14
-261234 -66577 0;
#N canvas 0 0 450 300 (subpatch) 0;
#X array client2_y 100 float 2;
#X coords 0 9 99 0 100 40 1 0 0;
#X restore 167 634 graph;
#N canvas 0 0 450 300 (subpatch) 0;
#X array play2_x 100 float 2;
#X coords 0 9 100 0 100 40 1 0 0;
#X restore 283 578 graph;
#N canvas 0 0 450 300 (subpatch) 0;
#X array play2_y 100 float 2;
#X coords 0 9 100 0 100 40 1 0 0;
#X restore 286 636 graph;
#X obj 175 245 vsl 15 128 1 9 0 0 empty empty empty 0 -9 0 10 -262144
-1 -1 6350 1;
#X obj 621 233 vsl 15 128 1 9 0 0 empty empty empty 0 -9 0 10 -262144
-1 -1 6350 1;
#X obj 175 82 s cur2_x;
#X obj 378 51 r p2in;
#X obj -101 40 r c2len;
#X obj -101 109 tabread client2_x;
#X obj 18 109 tabread client2_y;
#X obj -29 223 r p2len;
#X obj 16 299 tabread play2_y;
#X obj -103 299 tabread play2_x;
#X obj 16 356 s c2y;
#X obj -103 359 s c2x;
#X obj 206 396 s cur2_x;
#X obj 175 420 tabwrite client2_x;
#X obj 297 420 s c2len;
#X obj 175 108 r cur2_x;
#X obj 622 72 s cur2_y;
#X obj 619 98 r cur2_y;
#X obj 636 391 s cur2_y;
#X obj 620 420 tabwrite client2_y;
#X msg 379 306 \; client2_x const 0 \; client2_y const 0 \;;
#X obj 434 271 arraycopy play2_y;
#X obj 547 272 s p2len;
#X obj 562 221 r c2len;
#X msg 434 194 copy client2_x;
#X obj 434 219 arraycopy play2_x;
#X msg 434 246 copy client2_y;
#X connect 1 0 23 0;
#X connect 1 0 31 0;
#X connect 1 1 16 0;
#X connect 1 1 31 0;
#X connect 1 2 24 0;
#X connect 1 2 31 0;
#X connect 1 3 17 0;
#X connect 1 3 31 0;
#X connect 1 4 34 0;
#X connect 2 0 3 0;
#X connect 3 0 4 0;
#X connect 3 0 7 0;
#X connect 4 0 3 1;
#X connect 6 0 38 0;
#X connect 7 0 6 0;
#X connect 8 0 7 1;
#X connect 9 0 56 0;
#X connect 11 0 55 0;
#X connect 13 0 27 0;
#X connect 14 0 15 0;
#X connect 14 0 45 0;
#X connect 15 0 14 1;
#X connect 16 0 14 1;
#X connect 17 0 14 1;
#X connect 18 0 47 0;
#X connect 19 0 28 0;
#X connect 20 0 21 0;
#X connect 20 0 46 0;
#X connect 21 0 20 1;
#X connect 22 0 61 0;
#X connect 23 0 20 1;
#X connect 24 0 20 1;
#X connect 27 0 14 0;
#X connect 28 0 20 0;
#X connect 29 0 50 0;
#X connect 29 0 51 0;
#X connect 30 0 36 0;
#X connect 31 0 32 0;
#X connect 32 0 30 0;
#X connect 33 0 32 3;
#X connect 33 0 65 0;
#X connect 34 0 37 0;
#X connect 34 2 35 0;
#X connect 34 2 71 0;
#X connect 34 2 69 0;
#X connect 35 0 67 0;
#X connect 36 0 58 1;
#X connect 36 0 59 0;
#X connect 36 0 64 1;
#X connect 37 0 33 0;
#X connect 38 0 54 0;
#X connect 38 1 53 0;
#X connect 39 0 65 0;
#X connect 45 0 57 0;
#X connect 45 0 58 0;
#X connect 46 0 63 0;
#X connect 46 0 64 0;
#X connect 48 0 1 0;
#X connect 49 0 29 0;
#X connect 50 0 25 0;
#X connect 51 0 26 0;
#X connect 52 0 8 0;
#X connect 53 0 11 0;
#X connect 54 0 9 0;
#X connect 60 0 13 0;
#X connect 62 0 19 0;
#X connect 68 0 35 1;
#X connect 69 0 70 0;
#X connect 71 0 66 0;
