#N canvas 340 74 1362 689 10;
#X obj -129 3 cnv 15 900 540 empty empty Play_Logic 20 8 1 14 -260097
-66577 0;
#X obj 378 85 sel 1 2 3 4 5;
#X obj -103 178 r beat;
#X obj -103 202 f;
#X obj -69 202 + 1;
#X text -36 202 Increment index on beat;
#X floatatom -103 258 5 0 0 0 - - -;
#X obj -103 239 % 10;
#X floatatom -69 224 5 0 0 0 - - -;
#X floatatom -103 322 5 0 0 0 - - -;
#X text -50 240 Contrain to array bounds;
#X floatatom 16 322 5 0 0 0 - - -;
#X text -104 156 Play the sound on beats;
#X floatatom 175 128 5 0 0 0 - - -;
#X obj 175 196 +;
#X msg 190 168 0;
#X msg 227 161 1;
#X msg 227 190 -1;
#X obj 175 50 init 5;
#X floatatom 620 117 5 0 0 0 - - -;
#X obj 620 196 +;
#X msg 635 160 0;
#X obj 621 40 init 5;
#X msg 672 161 -1;
#X msg 672 190 1;
#X floatatom -101 132 5 0 0 0 - - -;
#X floatatom 18 132 5 0 0 0 - - -;
#X obj 175 146 pipe 50;
#X obj 620 135 pipe 50;
#X obj -101 68 pipe 50;
#X floatatom 280 334 5 0 0 0 - - -;
#X obj 280 195 bng 15 250 50 0 empty empty empty 17 7 0 10 -262144
-1 -1;
#X obj 280 307 counter 0 0 100;
#X obj 345 263 bng 15 250 50 0 empty empty empty 17 7 0 10 -262144
-1 -1;
#X obj 467 151 t b b b;
#X obj 547 246 f;
#X obj 280 375 pipe 80;
#X obj 345 242 pipe 80;
#X obj -102 277 t f f;
#X obj 379 279 loadbang;
#N canvas 0 0 450 300 (subpatch) 0;
#X array client19_x 100 float 2;
#X coords 0 9 99 0 100 40 1 0 0;
#X restore 167 575 graph;
#X obj -129 548 cnv 15 900 135 empty empty Client_Signals 20 8 1 14
-261234 -66577 0;
#N canvas 0 0 450 300 (subpatch) 0;
#X array client19_y 100 float 2;
#X coords 0 9 99 0 100 40 1 0 0;
#X restore 167 634 graph;
#N canvas 0 0 450 300 (subpatch) 0;
#X array play19_x 100 float 2;
#X coords 0 9 100 0 100 40 1 0 0;
#X restore 283 578 graph;
#N canvas 0 0 450 300 (subpatch) 0;
#X array play19_y 100 float 2;
#X coords 0 9 100 0 100 40 1 0 0;
#X restore 286 636 graph;
#X obj 175 271 greaterLess;
#X obj 620 294 greaterLess;
#X obj -100 45 r c19len;
#X obj -100 109 tabread client19_x;
#X obj 18 109 tabread client19_y;
#X obj -29 223 r p19len;
#X obj -103 299 tabread play19_x;
#X obj 16 299 tabread play19_y;
#X obj 16 356 s c19y;
#X obj -103 359 s c19x;
#X obj 175 82 s cur19_x;
#X obj 172 108 r cur19_x;
#X obj 378 51 r p19in;
#X obj 621 72 s cur19_y;
#X obj 620 98 r cur19_y;
#X obj 648 399 s cur19_y;
#X obj 621 420 tabwrite client19_y;
#X obj 297 420 s c19len;
#X obj 204 395 s cur19_x;
#X obj 175 420 tabwrite client19_x;
#X msg 434 194 copy client19_x;
#X obj 434 219 arraycopy play19_x;
#X msg 434 247 copy client19_y;
#X obj 434 271 arraycopy play19_y;
#X obj 562 221 r c19len;
#X obj 551 271 s p19len;
#X msg 380 306 \; client19_x const 0 \; client19_y const 0 \; play19_x
const 5 \; play19_y const 5 \;;
#X connect 1 0 23 0;
#X connect 1 0 31 0;
#X connect 1 1 16 0;
#X connect 1 1 31 0;
#X connect 1 2 24 0;
#X connect 1 2 31 0;
#X connect 1 3 17 0;
#X connect 1 3 31 0;
#X connect 1 4 34 0;
#X connect 2 0 3 0;
#X connect 3 0 4 0;
#X connect 3 0 7 0;
#X connect 4 0 3 1;
#X connect 6 0 38 0;
#X connect 7 0 6 0;
#X connect 8 0 7 1;
#X connect 9 0 54 0;
#X connect 11 0 53 0;
#X connect 13 0 27 0;
#X connect 14 0 15 0;
#X connect 14 0 45 0;
#X connect 15 0 14 1;
#X connect 16 0 14 1;
#X connect 17 0 14 1;
#X connect 18 0 55 0;
#X connect 19 0 28 0;
#X connect 20 0 21 0;
#X connect 20 0 46 0;
#X connect 21 0 20 1;
#X connect 22 0 58 0;
#X connect 23 0 20 1;
#X connect 24 0 20 1;
#X connect 27 0 14 0;
#X connect 28 0 20 0;
#X connect 29 0 48 0;
#X connect 29 0 49 0;
#X connect 30 0 36 0;
#X connect 31 0 32 0;
#X connect 32 0 30 0;
#X connect 33 0 32 3;
#X connect 33 0 71 0;
#X connect 34 0 37 0;
#X connect 34 2 35 0;
#X connect 34 2 67 0;
#X connect 34 2 65 0;
#X connect 35 0 70 0;
#X connect 36 0 61 1;
#X connect 36 0 62 0;
#X connect 36 0 64 1;
#X connect 37 0 33 0;
#X connect 38 0 51 0;
#X connect 38 1 52 0;
#X connect 39 0 71 0;
#X connect 45 0 63 0;
#X connect 45 0 64 0;
#X connect 46 0 60 0;
#X connect 46 0 61 0;
#X connect 47 0 29 0;
#X connect 48 0 25 0;
#X connect 49 0 26 0;
#X connect 50 0 8 0;
#X connect 51 0 9 0;
#X connect 52 0 11 0;
#X connect 56 0 13 0;
#X connect 57 0 1 0;
#X connect 59 0 19 0;
#X connect 65 0 66 0;
#X connect 67 0 68 0;
#X connect 69 0 35 1;
